<?xml version="1.0" encoding="utf-8"?>
<!-- Generator: Adobe Illustrator 15.0.0, SVG Export Plug-In . SVG Version: 6.00 Build 0)  -->
<!DOCTYPE svg PUBLIC "-//W3C//DTD SVG 1.1//EN" "http://www.w3.org/Graphics/SVG/1.1/DTD/svg11.dtd">
<svg version="1.1" id="Layer_1" xmlns="http://www.w3.org/2000/svg" xmlns:xlink="http://www.w3.org/1999/xlink" x="0px" y="0px"
	 width="320px" height="220px" viewBox="0 0 320 220" enable-background="new 0 0 320 220" xml:space="preserve">
<g id="Layer_2">
	<rect fill="#FFFABD" width="320" height="220"/>
</g>
<g id="track" display="none">
	
		<text transform="matrix(0.7894 -0.6139 0.6139 0.7894 -163.9893 128.418)" display="inline" fill="#FFFFFF" font-family="'BellGothicStd-Bold'" font-size="18">ROUGH TRADE  ROUGH TRADE  ROUGH TRADE  ROUGH TRADE  ROUGH TRADE  ROUGH TRADE  ROUGH TRADE  ROUGH TRADE  ROUGH TRADE  ROUGH TRADE  ROUGH TRADE  ROUGH TRADE  ROUGH TRADE  ROUGH T</text>
	
		<text transform="matrix(0.7894 -0.6139 0.6139 0.7894 -149.2559 147.3633)" display="inline" fill="#FFFFFF" font-family="'BellGothicStd-Bold'" font-size="18">RADE  ROUGH TRADE  ROUGH TRADE  ROUGH TRADE  ROUGH TRADE  ROUGH TRADE </text>
	
		<text transform="matrix(0.7894 -0.6139 0.6139 0.7894 -134.5215 166.3086)" display="inline" fill="#FFFFFF" font-family="'BellGothicStd-Bold'" font-size="18"> ROUGH TRADE  ROUGH TRADE  ROUGH TRADE  ROUGH TRADE  ROUGH TRADE</text>
	
		<text transform="matrix(0.7894 -0.6139 0.6139 0.7894 -148.207 207.3555)" display="inline" fill="#FFFFFF" font-family="'BellGothicStd-Bold'" font-size="18">  ROUGH TRADE  ROUGH TRADE  ROUGH TRADE  ROUGH TRADE  ROUG</text>
	
		<text transform="matrix(0.7894 -0.6139 0.6139 0.7894 -105.0547 204.2002)" display="inline" fill="#FFFFFF" font-family="'BellGothicStd-Bold'" font-size="18">H TRADE  ROUGH TRADE  ROUGH TRADE  ROUGH TRADE  ROUGH TRADE  ROUGH TRADE  ROUGH TRADE  BELL CENTENIAL BELL CENTENIAL BELL CENTENIAL BELL CENTENIAL BELL CENTENIAL BELL CENTENIAL</text>
	
		<text transform="matrix(0.7894 -0.6139 0.6139 0.7894 -156.6309 274.7139)" display="inline" fill="#FFFFFF" font-family="'BellGothicStd-Bold'" font-size="18">ROUGH TRADE  ROUGH TRADE  ROUGH TRADE  ROUGH TRADE  ROUGH TRADE  ROUGH TRADE </text>
	
		<text transform="matrix(0.7894 -0.6139 0.6139 0.7894 -122.9512 278.9258)" display="inline" fill="#FFFFFF" font-family="'BellGothicStd-Bold'" font-size="18"> ROUGH TRADE  ROUGH TRADE  ROUGH TRADE  ROUGH TRADE  ROUGH TRADE  ROUGH TRADE </text>
	
		<text transform="matrix(0.7894 -0.6139 0.6139 0.7894 -146.1084 327.3379)" display="inline" fill="#FFFFFF" font-family="'BellGothicStd-Bold'" font-size="18"> ROUGH TRADE  ROUGH TRADE  ROUGH TRADE  ROUGH TRADE  ROUGH TRADE  ROUGH TRADE  ROUGH TRAD</text>
	
		<text transform="matrix(0.7894 -0.6139 0.6139 0.7894 -93.4834 316.8164)" display="inline" fill="#FFFFFF" font-family="'BellGothicStd-Bold'" font-size="18">E  ROUGH TRADE  ROUGH TRADE  ROUGH TRADE  ROUGH TRADE  ROUGH TRADE  ROUGH TRADE </text>
	
		<text transform="matrix(0.7894 -0.6139 0.6139 0.7894 -102.4326 354.1797)" display="inline" fill="#FFFFFF" font-family="'BellGothicStd-Bold'" font-size="18">E  ROUGH TRADE  ROUGH TRADE  ROUGH TRADE  ROUGH TRADE  ROUGH TRADE  ROUGH TRADE </text>
	
		<text transform="matrix(0.7894 -0.6139 0.6139 0.7894 -111.3818 391.541)" display="inline" fill="#FFFFFF" font-family="'BellGothicStd-Bold'" font-size="18">E  ROUGH TRADE  ROUGH TRADE  ROUGH TRADE  ROUGH TRADE  ROUGH TRADE  ROUGH TRADE </text>
	
		<text transform="matrix(0.7894 -0.6139 0.6139 0.7894 -87.1748 403.1211)" display="inline" fill="#FFFFFF" font-family="'BellGothicStd-Bold'" font-size="18">E  ROUGH TRADE  ROUGH TRADE  ROUGH TRADE  ROUGH TRADE  ROUGH TRADE  ROUGH TRADE </text>
	
		<text transform="matrix(0.7894 -0.6139 0.6139 0.7894 -105.5957 447.8516)" display="inline" fill="#FFFFFF" font-family="'BellGothicStd-Bold'" font-size="18">E  ROUGH TRADE  ROUGH TRADE  ROUGH TRADE  ROUGH TRADE  ROUGH TRADE  ROUGH TRADE </text>
	
		<text transform="matrix(0.7894 -0.6139 0.6139 0.7894 -19.8164 411.543)" display="inline" fill="#FFFFFF" font-family="'BellGothicStd-Bold'" font-size="18">E  ROUGH TRADE  ROUGH TRADE  ROUGH TRADE  ROUGH TRADE  ROUGH TRADE  ROUGH TRADE </text>
	
		<text transform="matrix(0.7894 -0.6139 0.6139 0.7894 -5.082 430.4902)" display="inline" fill="#FFFFFF" font-family="'BellGothicStd-Bold'" font-size="18">E  ROUGH TRADE  ROUGH TRADE  ROUGH TRADE  ROUGH TRADE  ROUGH TRADE  ROUGH TRADE </text>
	
		<text transform="matrix(0.7894 -0.6139 0.6139 0.7894 9.6494 449.4365)" display="inline" fill="#FFFFFF" font-family="'BellGothicStd-Bold'" font-size="18">E  ROUGH TRADE  ROUGH TRADE  ROUGH TRADE  ROUGH TRADE  ROUGH TRADE  ROUGH TRADE </text>
</g>
<text transform="matrix(1 0 0 1 130.1997 41.7954)"><tspan x="0" y="0" font-family="'Frutiger-BoldCn'" font-size="33.02" letter-spacing="-4">1</tspan><tspan x="12.679" y="0" font-family="'Frutiger-BoldCn'" font-size="33.02" letter-spacing="-1">9</tspan><tspan x="28.694" y="0" font-family="'Frutiger-BoldCn'" font-size="33.02" letter-spacing="-2">6</tspan><tspan x="43.75" y="0" font-family="'Frutiger-BoldCn'" font-size="33.02" letter-spacing="-1">9</tspan></text>
<text transform="matrix(1 0 0 1 156.2871 164.9404)"><tspan x="0" y="0" font-family="'Frutiger-BoldCn'" font-size="13.0636">A</tspan><tspan x="-59.016" y="19.16" font-family="'Frutiger-BoldCn'" font-size="19.16">TECHNOCOLOUR</tspan><tspan x="-19.145" y="33.966" font-family="'Frutiger-BoldCn'" font-size="13.0636">FEATURE</tspan></text>
<g>
	<g>
		<path d="M85.717,104.627c10.534-6.157,22.711-18.196,22.711-30.646c0-12.722-11.63-21.752-30.508-21.752
			c-22.3,0-45.146,13.27-45.146,33.381c0,9.712,6.84,14.774,14.228,14.774c5.472,0,7.388-1.504,7.388-2.873
			c0-3.558-9.987-0.273-9.987-11.901c0-18.332,19.153-28.867,32.149-28.867c8.893,0,19.974,6.021,19.974,17.648
			c0,14.092-12.449,26.13-21.068,29.96c-1.504,0.685-2.188,1.507-2.188,2.326c0,0.958,0.957,1.778,2.599,1.778
			c0.548,0,1.367-0.137,1.916-0.137c4.651,0,11.08,4.104,11.08,12.862c0,9.713-9.166,24.213-27.772,24.213
			c-13.953,0-19.835-4.104-19.835-10.262c0-5.471,5.745-7.797,8.893-8.068l-2.601,7.523c-0.273,0.684-0.41,1.367-0.41,1.914
			c0,1.641,1.231,2.463,2.872,2.463c3.012,0,8.073-2.736,9.44-6.979l0.546-1.641c5.062,3.283,2.19,7.66,5.61,7.66
			c2.189,0,4.24-2.188,4.24-5.334s-2.051-7.115-7.523-9.166L81.338,68.51c0.275-0.685,0.275-1.231,0.275-1.779
			c0-1.778-1.095-2.599-2.873-2.599c-3.147,0-7.935,2.872-9.303,6.978L51.79,122c-9.304,0.414-21.754,4.789-21.754,14.502
			c0,7.658,8.346,14.639,26.405,14.639c17.921,0,44.188-12.039,44.188-30.371C100.629,109.141,89.82,105.583,85.717,104.627z"/>
	</g>
	<g>
		<g>
			<path d="M295.165,83.285h-16.963c3.008-9.166,4.924-18.059,4.924-24.488c0-4.514-1.23-6.43-3.146-6.43
				c-4.785,0-14.637,13.133-21.752,30.918h-5.609c3.01-9.166,4.789-18.059,4.789-24.488c0-4.514-1.234-6.566-3.146-6.566
				c-4.789,0-14.502,13.269-21.615,31.053c-4.83-1.78-11.766-4.47-13.775-4.47c-4.379,0-8.48,4.745-8.48,8.714
				c0,1.835,0.475,9.219,1.451,13.801c-5.018,1.691-8.746,5.223-8.746,6.855c0,1.094,0.957,1.505,1.643,1.505
				s1.096-0.273,1.506-0.273s0.682,0.273,0.682,0.685c0,1.118-3.383,6.905-6.039,13.84c-5.053,5.871-9.697,10.236-12.842,10.236
				c-2.049,0-3.691-2.871-4.1-10.945c11.488-15.458,24.076-47.744,24.076-64.434c0-4.514-1.232-6.566-3.146-6.566
				c-8.209,0-30.645,38.579-30.645,71.959c0,0.326,0.004,0.646,0.012,0.967c-4.641,5.246-8.857,9.02-11.775,9.02
				c-2.054,0-3.695-2.871-4.104-10.945c11.491-15.458,24.075-47.744,24.075-64.434c0-4.514-1.229-6.566-3.145-6.566
				c-8.209,0-30.645,38.579-30.645,71.959c0,0.314,0.005,0.629,0.012,0.941c-6.176,6.82-10.931,10.002-12.871,10.002
				c-0.957,0-1.368-0.818-1.368-1.914c0-3.969,8.072-21.752,10.807-28.044c0.547-1.231,0.686-2.189,0.686-2.463
				c0-1.505-1.096-2.189-2.601-2.189c-2.736,0-7.113,2.6-9.438,7.387c-6.702,14.505-15.87,26.816-19.7,26.816
				c-1.096,0-1.778-1.096-1.778-3.559c0-7.797,6.702-17.785,10.67-26.266c0.411-0.684,0.548-1.368,0.548-2.052
				c0-1.642-1.505-2.463-3.283-2.463c-6.703,0-13.544,5.198-13.544,7.661c0,0.958,0.958,1.368,1.916,1.368
				c0.409,0,0.958-0.138,1.23-0.138c0.41,0,0.683,0.274,0.683,0.549c0,0.409-0.409,1.231-0.683,1.778
				c-3.146,6.293-6.978,14.773-6.978,21.068c0,5.746,2.737,8.754,6.705,8.754c4.514,0,10.532-3.828,16.278-11.764
				c-0.548,1.916-0.821,3.557-0.821,5.199c0,3.969,1.916,6.564,6.566,6.564c4.271,0,10.83-3.602,17.538-10.689
				c1.159,6.145,4.108,10.689,9.141,10.689c4.178,0,9.466-2.996,16.45-10.645c1.164,6.121,4.111,10.645,9.133,10.645
				c3.787,0,8.488-2.455,14.541-8.619c-0.023,0.328-0.041,0.652-0.041,0.959c0,4.652,2.326,7.66,7.389,7.66
				c4.377,0,11.354-3.828,18.332-11.627c0.957,6.566,3.965,11.627,9.164,11.627c4.18,0,9.58-2.996,16.586-10.646
				c1.158,6.121,4.078,10.646,8.998,10.646c4.65,0,10.809-3.691,19.016-13.404c1.504-1.645,2.051-3.012,2.051-3.832
				c0-0.959-0.686-1.367-1.641-1.367c-0.684,0-1.641,0.408-2.326,1.094c-5.061,5.883-9.85,10.26-12.861,10.26
				c-2.049,0-3.691-2.871-4.104-10.945c6.156-8.344,12.586-21.34,17.238-34.337h15.324c3.01,0,5.746-2.462,5.746-4.239
				C297.356,83.833,296.806,83.285,295.165,83.285z M184.899,105.31c2.736-17.237,9.713-38.168,12.312-38.168
				c0.547,0,0.824,0.957,0.824,3.146c0,2.19-4.52,28.183-14.092,45.419C183.944,112.699,184.353,109.004,184.899,105.31z
				 M159.319,105.31c2.734-17.237,9.713-38.168,12.312-38.168c0.545,0,0.82,0.957,0.82,3.146c0,2.19-4.516,28.183-14.091,45.419
				C158.361,112.699,158.771,109.004,159.319,105.31z M220.378,84.925c2.33,0,4.221,1.891,4.221,4.222
				c0,2.332-1.891,4.223-4.221,4.223c-2.334,0-4.223-1.891-4.223-4.223C216.155,86.816,218.044,84.925,220.378,84.925z
				 M223.753,123.916c-6.566,7.662-11.902,11.217-13.955,11.217c-0.957,0-1.23-0.818-1.23-1.777c0-0.82,0.137-1.643,0.41-2.736
				c2.189-7.25,5.473-14.639,8.072-20.247c1.641-3.558,2.871-6.43,2.871-7.935c0-0.634-0.186-1.156-0.621-1.516
				c2.844-2.13,6.385-4.818,9.598-7.392C225.792,103.349,223.753,113.887,223.753,123.916z M246.601,67.142
				c0.545,0,0.82,0.957,0.82,3.146c0,0.958-0.82,6.02-2.461,12.997h-5.613C242.083,74.119,245.093,67.142,246.601,67.142z
				 M234.288,105.31c0.82-5.335,1.914-11.081,3.42-16.417h5.879c-2.324,8.757-5.744,18.88-10.258,26.953
				C233.464,112.834,233.739,109.141,234.288,105.31z M249.337,124.189c0,0.326,0.002,0.646,0.01,0.969
				c-4.619,5.244-8.729,9.018-11.775,9.018c-2.191,0-3.832-2.871-4.242-10.945c6.156-8.205,12.586-21.34,17.238-34.337h5.473
				C252.073,100.113,249.337,112.424,249.337,124.189z M259.048,115.707c0-7.113,2.055-18.331,4.379-26.814h5.885
				C266.985,97.512,263.563,107.636,259.048,115.707z M270.677,83.285h-5.607c2.734-9.166,5.744-16.143,7.25-16.143
				c0.547,0,0.82,0.957,0.82,3.146C273.14,71.246,272.319,76.445,270.677,83.285z"/>
		</g>
	</g>
</g>
</svg>
