<?xml version="1.0" encoding="utf-8"?>
<!-- Generator: Adobe Illustrator 15.0.0, SVG Export Plug-In . SVG Version: 6.00 Build 0)  -->
<!DOCTYPE svg PUBLIC "-//W3C//DTD SVG 1.1//EN" "http://www.w3.org/Graphics/SVG/1.1/DTD/svg11.dtd">
<svg version="1.1" id="track" xmlns="http://www.w3.org/2000/svg" xmlns:xlink="http://www.w3.org/1999/xlink" x="0px" y="0px"
	 width="640px" height="220px" viewBox="0 0 640 220" enable-background="new 0 0 640 220" xml:space="preserve">
<g>
	<g>
		<path fill="#F4F4F4" d="M155.355,135.316V84.684h24.266v7.574h-15.569v13.044h11.642v7.573h-11.642v22.441H155.355z"/>
		<path fill="#F4F4F4" d="M186.278,135.316V84.684h8.696v50.632H186.278L186.278,135.316z"/>
		<path fill="#F4F4F4" d="M219.027,97.167c-0.351-4.349-2.665-5.61-4.629-5.61c-2.805,0-4.348,1.823-4.348,4.979
			c0,8.626,17.672,12.765,17.672,26.51c0,8.345-5.61,12.974-13.745,12.974c-8.064,0-12.692-6.451-13.044-14.025l8.275-1.191
			c0.351,5.119,2.385,7.643,5.188,7.643c3.017,0,5.051-1.61,5.051-4.627c0-10.028-17.674-12.692-17.674-27.21
			c0-8.064,4.909-12.623,13.466-12.623c7.083,0,11.291,5.119,12.062,12.272L219.027,97.167z"/>
		<path fill="#F4F4F4" d="M234.311,135.316V84.684h8.696v20.618h9.257V84.684h8.696v50.632h-8.696v-22.44h-9.257v22.44H234.311
			L234.311,135.316z"/>
		<path fill="#F4F4F4" d="M354.567,109.65h14.236v25.667h-4.207l-1.613-3.787c-2.596,3.086-4.698,4.488-8.766,4.488
			c-6.873,0-11.643-4.908-11.643-12.974V96.956c0-7.153,4.209-12.974,12.764-12.974c8.697,0,13.045,6.312,13.045,13.886v3.226
			h-8.275c0-7.573-1.543-9.537-4.979-9.537c-2.104,0-3.855,1.262-3.855,5.54v26.019c0,3.225,1.052,5.327,4.066,5.327
			c3.508,0,4.77-1.963,4.77-7.012v-4.91h-5.541L354.567,109.65L354.567,109.65z"/>
		<path fill="#F4F4F4" d="M376.235,135.316V84.684h8.695v20.618h9.258V84.684h8.695v50.632h-8.695v-22.44h-9.258v22.44H376.235
			L376.235,135.316z"/>
		<path fill="#F4F4F4" d="M411.297,96.956c0-7.153,4.207-12.974,13.324-12.974c9.116,0,13.323,5.82,13.323,12.974v26.089
			c0,7.152-4.207,12.973-13.323,12.973c-9.117,0-13.324-5.819-13.324-12.973V96.956z M419.992,122.834
			c0,3.787,1.123,5.609,4.629,5.609s4.629-1.822,4.629-5.609V97.167c0-3.787-1.123-5.61-4.629-5.61s-4.629,1.823-4.629,5.61V122.834
			z"/>
		<path fill="#F4F4F4" d="M451.127,92.258h-8.416v-7.574h25.526v7.574h-8.415v43.059h-8.695V92.258z"/>
		<path fill="#F4F4F4" d="M475.949,135.316V84.684h8.695v50.632H475.949L475.949,135.316z"/>
	</g>
	<g>
		<path fill="#F4F4F4" d="M321.893,108.465l-11.188-4.541l1.2-2.777l16.024,6.783v4.14l-16.024,6.781l-1.2-2.776l11.188-4.539
			h-41.821v-3.071H321.893z"/>
	</g>
</g>
</svg>
