<?xml version="1.0" encoding="utf-8"?>
<!-- Generator: Adobe Illustrator 15.0.0, SVG Export Plug-In . SVG Version: 6.00 Build 0)  -->
<!DOCTYPE svg PUBLIC "-//W3C//DTD SVG 1.1//EN" "http://www.w3.org/Graphics/SVG/1.1/DTD/svg11.dtd">
<svg version="1.1" id="Layer_2" xmlns="http://www.w3.org/2000/svg" xmlns:xlink="http://www.w3.org/1999/xlink" x="0px" y="0px"
	 width="320px" height="220px" viewBox="0 0 320 220" enable-background="new 0 0 320 220" xml:space="preserve">
<g>
	<path fill="#FFFFFF" d="M81.405,82.767h3.525l-19.868,40.087h-3.525L81.405,82.767z"/>
	<path fill="#FFFFFF" d="M112.988,97.592c1.73-1.954,3.481-2.931,5.251-2.931c0.977,0,1.735,0.265,2.275,0.794
		c0.539,0.529,0.809,1.109,0.809,1.74c0,1.343-0.611,2.015-1.832,2.015c-0.672,0-1.252-0.417-1.74-1.252
		c-0.448-0.773-0.916-1.16-1.404-1.16c-0.774,0-1.629,0.53-2.565,1.588c1.058,1.669,1.588,3.44,1.588,5.312
		c0,2.442-0.875,4.6-2.626,6.473c-1.75,1.894-4.702,2.911-8.854,3.054c-4.315,0.143-6.473,1.018-6.473,2.625
		c0,0.754,0.488,1.282,1.465,1.588c0.957,0.326,2.972,0.569,6.045,0.732c3.358,0.163,5.943,0.473,7.755,0.932
		c1.812,0.457,3.256,1.379,4.335,2.764c1.079,1.384,1.618,3.031,1.618,4.945c0,2.688-1.099,4.854-3.297,6.504
		c-2.198,1.648-5.363,2.473-9.495,2.473c-3.786,0-6.819-0.732-9.099-2.198c-2.28-1.465-3.419-3.317-3.419-5.557
		c0-1.241,0.325-2.259,0.977-3.054c0.651-0.793,1.577-1.19,2.778-1.19c0.325,0,0.621,0.051,0.885,0.153
		c-1.262,1.384-1.893,2.85-1.893,4.396c0,1.791,0.84,3.271,2.519,4.442c1.679,1.17,4.188,1.755,7.526,1.755
		c2.972,0,5.287-0.595,6.946-1.785s2.488-2.713,2.488-4.565c0-2.035-0.743-3.47-2.229-4.305c-1.486-0.814-4.132-1.303-7.938-1.466
		c-4.376-0.183-7.216-0.724-8.519-1.618c-1.303-0.874-1.954-2.004-1.954-3.389c0-2.666,1.862-4.346,5.587-5.038
		c-1.934-1.14-3.389-2.442-4.366-3.908c-0.977-1.465-1.465-3.104-1.465-4.916c0-2.544,1.002-4.707,3.007-6.488
		c2.005-1.781,4.381-2.672,7.129-2.672C108.205,94.386,110.932,95.455,112.988,97.592z M99.249,104.248
		c0,2.626,0.539,4.549,1.618,5.771c1.079,1.222,2.453,1.833,4.122,1.833c1.546,0,2.875-0.605,3.984-1.817
		c1.109-1.21,1.664-3.312,1.664-6.305c0-3.012-0.591-5.088-1.771-6.229c-1.181-1.14-2.514-1.709-4-1.709
		c-1.873,0-3.277,0.702-4.213,2.106C99.717,99.302,99.249,101.419,99.249,104.248z"/>
	<path fill="#FFFFFF" d="M131.703,78.418v33.402c0,2.666,0.035,4.346,0.107,5.037c0.071,0.691,0.361,1.222,0.87,1.588
		c0.509,0.365,1.415,0.55,2.717,0.55h0.733v1.403h-13.373v-1.403h0.855c1.221,0,2.091-0.168,2.61-0.504
		c0.519-0.337,0.829-0.81,0.931-1.421c0.102-0.609,0.153-2.359,0.153-5.25V87.089c0-2.626-0.234-4.279-0.702-4.961
		c-0.469-0.682-1.608-1.023-3.419-1.023v-1.404c1.241,0,2.702-0.142,4.381-0.428c1.68-0.285,2.834-0.569,3.465-0.854L131.703,78.418
		L131.703,78.418z"/>
	<path fill="#FFFFFF" d="M138.803,107.851c0-3.827,1.282-7.027,3.847-9.603c2.564-2.575,5.719-3.862,9.465-3.862
		c3.765,0,6.93,1.293,9.496,3.877c2.563,2.585,3.847,5.781,3.847,9.587c0,4.212-1.304,7.526-3.908,9.938
		c-2.605,2.412-5.75,3.618-9.434,3.618c-3.685,0-6.824-1.227-9.419-3.68C140.101,115.275,138.803,111.982,138.803,107.851z
		 M143.871,108.003c0,4.438,0.722,7.546,2.168,9.328c1.445,1.78,3.47,2.672,6.076,2.672c2.666,0,4.707-0.892,6.122-2.672
		c1.414-1.781,2.122-4.89,2.122-9.328c0-4.396-0.702-7.531-2.106-9.404c-1.405-1.873-3.451-2.809-6.137-2.809
		c-2.667,0-4.707,0.931-6.122,2.793C144.578,100.447,143.871,103.587,143.871,108.003z"/>
	<path fill="#FFFFFF" d="M171.137,98.189v-1.244c3.035-0.595,4.553-2.292,4.553-5.093c0-0.986-0.289-1.479-0.867-1.479
		c-0.127,0-0.282,0.023-0.471,0.07c-0.359,0.109-0.672,0.164-0.938,0.164c-0.767,0-1.376-0.242-1.83-0.727
		c-0.454-0.485-0.681-1.033-0.681-1.644c0-0.61,0.229-1.153,0.691-1.631c0.463-0.477,1.061-0.716,1.797-0.716
		c1,0,1.873,0.469,2.615,1.408c0.743,0.938,1.115,2.199,1.115,3.779c0,1.815-0.521,3.36-1.561,4.635
		C174.52,96.988,173.045,97.813,171.137,98.189z"/>
	<path fill="#FFFFFF" d="M205.917,115.818h1.129c-0.183,3.48-1.894,5.223-5.129,5.223c-1.385,0-2.479-0.367-3.282-1.1
		c-0.805-0.732-1.328-1.821-1.572-3.268c-2.035,1.445-3.893,2.534-5.571,3.268c-1.679,0.731-3.181,1.1-4.503,1.1
		c-1.69,0-3.146-0.489-4.366-1.466c-1.222-0.978-1.832-2.271-1.832-3.878c0-2.096,1.022-3.928,3.067-5.496
		c2.047-1.567,4.871-3.094,8.474-4.58l4.731-1.923v-1.222c0-1.729-0.111-2.981-0.336-3.755c-0.225-0.773-0.805-1.465-1.74-2.076
		c-0.937-0.61-2.168-0.916-3.693-0.916c-3.055,0-4.753,1.018-5.1,3.053c-0.325,2.076-1.18,3.114-2.563,3.114
		c-1.241,0-1.862-0.59-1.862-1.771c0-1.16,0.824-2.407,2.474-3.74c1.647-1.333,4.213-2,7.692-2c2.586,0,4.59,0.408,6.017,1.221
		c1.424,0.814,2.366,1.741,2.823,2.779c0.459,1.038,0.688,2.625,0.688,4.763v10.106c0,2.361,0.122,3.878,0.366,4.551
		c0.243,0.67,0.772,1.006,1.588,1.006C204.757,118.812,205.591,117.814,205.917,115.818z M197.062,105.133l-3.328,1.344
		c-5.252,2.137-7.877,4.824-7.877,8.06c0,1.281,0.336,2.314,1.008,3.1c0.671,0.783,1.546,1.176,2.625,1.176
		c0.957,0,2.066-0.315,3.328-0.946c1.262-0.632,2.677-1.577,4.244-2.841V105.133z"/>
	<path fill="#FFFFFF" d="M218.587,78.418v33.402c0,2.666,0.035,4.346,0.106,5.037c0.07,0.691,0.361,1.222,0.871,1.588
		c0.508,0.365,1.414,0.55,2.717,0.55h0.732v1.403h-13.373v-1.403h0.854c1.222,0,2.092-0.168,2.61-0.504
		c0.52-0.337,0.828-0.81,0.932-1.421c0.102-0.609,0.152-2.359,0.152-5.25V87.089c0-2.626-0.234-4.279-0.703-4.961
		s-1.607-1.023-3.42-1.023v-1.404c1.242,0,2.703-0.142,4.383-0.428c1.679-0.285,2.834-0.569,3.465-0.854L218.587,78.418
		L218.587,78.418z"/>
	<path fill="#FFFFFF" d="M256.975,82.767h3.525l-19.868,40.087h-3.525L256.975,82.767z"/>
</g>
</svg>
