<?xml version="1.0" encoding="utf-8"?>
<!-- Generator: Adobe Illustrator 15.0.0, SVG Export Plug-In . SVG Version: 6.00 Build 0)  -->
<!DOCTYPE svg PUBLIC "-//W3C//DTD SVG 1.1//EN" "http://www.w3.org/Graphics/SVG/1.1/DTD/svg11.dtd">
<svg version="1.1" id="Layer_2_2_" xmlns="http://www.w3.org/2000/svg" xmlns:xlink="http://www.w3.org/1999/xlink" x="0px" y="0px"
	 width="320px" height="440px" viewBox="0 0 320 440" enable-background="new 0 0 320 440" xml:space="preserve">
<g>
	<g>
		<path fill="#4E4F51" d="M69.011,56.688h3.39c1.513,0,2.325,0.321,2.871,0.812c0.645,0.574,0.938,1.401,0.938,2.423
			c0,1.598-0.882,2.354-1.345,2.633c-0.742,0.448-1.555,0.49-2.353,0.52l-1.233,0.042v3.852h-2.268V56.688z M71.279,61.393
			c1.079,0,1.485,0,1.751-0.111c0.184-0.07,0.827-0.378,0.827-1.429c0-0.995-0.379-1.205-0.688-1.331
			c-0.363-0.141-0.531-0.141-1.892-0.141L71.279,61.393L71.279,61.393z"/>
		<path fill="#4E4F51" d="M77.739,60.315c0-1.051,0.183-2.06,0.896-2.844c0.645-0.714,1.609-0.979,2.576-0.979
			c1.052,0,2.019,0.252,2.703,0.995c0.575,0.616,0.896,1.525,0.896,3.18v2.493c0,1.443-0.237,2.367-0.882,3.068
			c-0.854,0.924-2.087,1.021-2.746,1.021c-1.008,0-2.661-0.364-3.181-2.101c-0.224-0.729-0.266-1.625-0.266-2.073v-2.761H77.739z
			 M80.035,63.537c0,1.079,0.21,1.849,1.219,1.849c1.22,0,1.22-1.134,1.22-1.849v-3.572c0-0.714,0-1.583-1.19-1.583
			c-1.247,0-1.247,1.176-1.247,1.583L80.035,63.537L80.035,63.537z"/>
		<path fill="#4E4F51" d="M91.454,59.446c-0.321-0.616-0.979-1.149-1.778-1.149c-1.177,0-1.205,0.883-1.205,0.995
			c0,0.729,0.672,1.022,1.303,1.247l1.304,0.477c0.616,0.225,1.345,0.645,1.751,1.205c0.126,0.168,0.574,0.841,0.574,1.808
			c0,0.462,0,1.835-1.457,2.717c-0.604,0.364-1.457,0.518-1.975,0.518c-1.809,0-2.873-0.434-3.797-2.087l1.75-1.163
			c0.379,0.869,1.065,1.401,1.947,1.401c0.49,0,1.373-0.224,1.373-1.163c0-0.771-0.42-0.938-1.961-1.541
			c-1.555-0.603-2.898-1.289-2.898-3.32c0-1.694,1.231-2.914,3.348-2.914c1.513,0,2.576,0.616,3.418,1.85L91.454,59.446z"/>
		<path fill="#4E4F51" d="M99.855,59.446c-0.322-0.616-0.98-1.149-1.779-1.149c-1.176,0-1.204,0.883-1.204,0.995
			c0,0.729,0.672,1.022,1.304,1.247l1.303,0.477c0.615,0.225,1.345,0.645,1.75,1.205c0.127,0.168,0.574,0.841,0.574,1.808
			c0,0.462,0,1.835-1.457,2.717c-0.603,0.364-1.457,0.518-1.975,0.518c-1.809,0-2.872-0.434-3.797-2.087l1.751-1.163
			c0.379,0.869,1.065,1.401,1.946,1.401c0.49,0,1.373-0.224,1.373-1.163c0-0.771-0.42-0.938-1.961-1.541
			c-1.555-0.603-2.898-1.289-2.898-3.32c0-1.694,1.232-2.914,3.348-2.914c1.514,0,2.577,0.616,3.418,1.85L99.855,59.446z"/>
		<path fill="#4E4F51" d="M103.297,56.688h6.905v1.877h-4.665v2.186h3.208v1.877h-3.181v2.423h4.959v1.919h-7.229V56.688H103.297z"
			/>
		<path fill="#4E4F51" d="M117.139,59.446c-0.321-0.616-0.979-1.149-1.778-1.149c-1.177,0-1.204,0.883-1.204,0.995
			c0,0.729,0.672,1.022,1.303,1.247l1.303,0.477c0.616,0.225,1.346,0.645,1.752,1.205c0.125,0.168,0.573,0.841,0.573,1.808
			c0,0.462,0,1.835-1.456,2.717c-0.604,0.364-1.457,0.518-1.976,0.518c-1.808,0-2.872-0.434-3.796-2.087l1.75-1.163
			c0.379,0.869,1.064,1.401,1.947,1.401c0.489,0,1.373-0.224,1.373-1.163c0-0.771-0.42-0.938-1.961-1.541
			c-1.556-0.603-2.899-1.289-2.899-3.32c0-1.694,1.231-2.914,3.348-2.914c1.513,0,2.577,0.616,3.418,1.85L117.139,59.446z"/>
		<path fill="#4E4F51" d="M125.54,59.446c-0.321-0.616-0.979-1.149-1.778-1.149c-1.177,0-1.205,0.883-1.205,0.995
			c0,0.729,0.672,1.022,1.304,1.247l1.303,0.477c0.616,0.225,1.345,0.645,1.751,1.205c0.126,0.168,0.574,0.841,0.574,1.808
			c0,0.462,0,1.835-1.457,2.717c-0.604,0.364-1.457,0.518-1.975,0.518c-1.809,0-2.873-0.434-3.797-2.087l1.75-1.163
			c0.379,0.869,1.065,1.401,1.947,1.401c0.49,0,1.373-0.224,1.373-1.163c0-0.771-0.42-0.938-1.961-1.541
			c-1.555-0.603-2.898-1.289-2.898-3.32c0-1.694,1.231-2.914,3.348-2.914c1.513,0,2.576,0.616,3.418,1.85L125.54,59.446z"/>
		<path fill="#4E4F51" d="M128.311,66.968v-0.911h1.205v-8.475h-1.205v-0.896h4.691v0.896h-1.218v8.447h1.218v0.938L128.311,66.968
			L128.311,66.968z"/>
		<path fill="#4E4F51" d="M137.051,66.968l-3.139-10.281h2.255l1.597,5.532c0.238,0.84,0.406,1.43,0.49,1.751h0.057
			c0.154-0.615,0.322-1.232,0.49-1.849l1.526-5.435h2.241l-3.067,10.281H137.051z"/>
		<path fill="#4E4F51" d="M143.91,56.688h6.906v1.877h-4.665v2.186h3.208v1.877h-3.18v2.423h4.959v1.919h-7.229L143.91,56.688
			L143.91,56.688z"/>
		<path fill="#4E4F51" d="M155.881,56.688h2.492c2.508,0,3.391,0.477,3.979,1.33c0.449,0.658,0.617,1.373,0.617,3.685l-0.017,1.751
			c0,1.163-0.278,2.396-1.414,2.97c-0.742,0.378-1.373,0.448-2.198,0.52c-0.295,0.027-1.767,0.027-3.461,0.027V56.688H155.881z
			 M158.178,65.133h0.645c0.91,0,1.834-0.168,1.834-2.143c0-0.351,0.029-0.911,0.029-1.261c0-1.233-0.029-2.088-0.379-2.592
			c-0.435-0.63-0.924-0.63-2.129-0.63V65.133L158.178,65.133z"/>
		<path fill="#4E4F51" d="M164.756,56.688h6.906v1.877h-4.666v2.186h3.209v1.877h-3.18v2.423h4.959v1.919h-7.229V56.688
			L164.756,56.688z"/>
		<path fill="#4E4F51" d="M180.617,56.688v1.877h-2.564v8.404h-2.354v-8.404h-2.619v-1.877H180.617z"/>
		<path fill="#4E4F51" d="M182.041,56.688h6.906v1.877h-4.664v2.186h3.207v1.877h-3.18v2.423h4.959v1.919h-7.229L182.041,56.688
			L182.041,56.688z"/>
		<path fill="#4E4F51" d="M193.096,66.968h-2.227V56.687h3.318c1.668,0,3.783,0.224,3.783,2.983c0,1.303-0.521,2.297-1.961,2.731
			l2.239,4.565h-2.45l-1.947-4.202h-0.756V66.968L193.096,66.968z M193.096,61.127c1.275,0,1.472,0,1.793-0.112
			c0.715-0.252,0.771-0.812,0.771-1.373c0-0.714-0.224-1.063-0.672-1.231c-0.351-0.126-0.632-0.126-1.892-0.126V61.127z"/>
		<path fill="#4E4F51" d="M199.871,56.688h3.025l1.219,4.286c0.125,0.463,0.182,0.616,0.293,1.079
			c0.057,0.21,0.268,1.106,0.309,1.289h0.07c0.154-0.854,0.309-1.499,0.561-2.409l1.205-4.244h3.039V66.97h-1.975v-5.532
			c0-0.729,0.055-1.947,0.098-2.928h-0.057l-2.129,8.46h-1.555l-2.187-8.46h-0.069c0.014,0.477,0.098,2.563,0.098,2.998v5.463
			h-1.945V56.688z"/>
		<path fill="#4E4F51" d="M211.021,66.968v-0.911h1.205v-8.475h-1.205v-0.896h4.693v0.896h-1.22v8.447h1.22v0.938L211.021,66.968
			L211.021,66.968z"/>
		<path fill="#4E4F51" d="M217.121,56.688h2.156l2.648,4.805c0.11,0.21,0.252,0.49,0.35,0.701c0.043,0.084,0.182,0.462,0.225,0.531
			h0.07l-0.057-1.036c-0.043-0.701-0.043-0.785-0.043-1.178v-3.823h2.073v10.281h-1.85l-2.729-4.986
			c-0.226-0.406-0.238-0.448-0.771-1.695h-0.07c0.016,0.294,0.07,1.597,0.07,1.863v4.818h-2.072V56.688L217.121,56.688z"/>
		<path fill="#4E4F51" d="M226.525,56.688h6.906v1.877h-4.664v2.186h3.207v1.877h-3.181v2.423h4.959v1.919h-7.229L226.525,56.688
			L226.525,56.688z"/>
		<path fill="#4E4F51" d="M237.58,66.968h-2.227V56.687h3.317c1.669,0,3.783,0.224,3.783,2.983c0,1.303-0.521,2.297-1.961,2.731
			l2.24,4.565h-2.451l-1.947-4.202h-0.756L237.58,66.968L237.58,66.968z M237.58,61.127c1.275,0,1.471,0,1.793-0.112
			c0.715-0.252,0.77-0.812,0.77-1.373c0-0.714-0.223-1.063-0.672-1.231c-0.35-0.126-0.631-0.126-1.891-0.126V61.127z"/>
		<path fill="#4E4F51" d="M249.041,59.446c-0.322-0.616-0.98-1.149-1.779-1.149c-1.176,0-1.205,0.883-1.205,0.995
			c0,0.729,0.672,1.022,1.304,1.247l1.303,0.477c0.617,0.225,1.347,0.645,1.752,1.205c0.125,0.168,0.574,0.841,0.574,1.808
			c0,0.462,0,1.835-1.457,2.717c-0.604,0.364-1.457,0.518-1.976,0.518c-1.809,0-2.873-0.434-3.797-2.087l1.75-1.163
			c0.379,0.869,1.066,1.401,1.947,1.401c0.49,0,1.373-0.224,1.373-1.163c0-0.771-0.42-0.938-1.961-1.541
			c-1.555-0.603-2.898-1.289-2.898-3.32c0-1.694,1.232-2.914,3.349-2.914c1.512,0,2.575,0.616,3.418,1.85L249.041,59.446z"/>
	</g>
	<g>
		<g>
			<path fill="#4E4F51" d="M147.855,263.361h1.529l1.287,4.5c0.121,0.429,0.209,0.944,0.375,1.54
				c0.021,0.064,0.076,0.242,0.164,0.242c0.221,0,0.297-0.583,0.352-0.805c0.145-0.561,0.154-0.627,0.275-1.033l1.287-4.444h1.553
				v7.306h-0.738v-6.8c0-0.099-0.055-0.164-0.143-0.164c-0.109,0-0.133,0.065-0.188,0.22c-0.033,0.078-0.133,0.463-0.176,0.594
				l-1.762,6.15h-0.891l-1.553-5.566c-0.055-0.197-0.274-1.078-0.33-1.254c-0.032-0.077-0.055-0.154-0.153-0.154
				c-0.121,0-0.153,0.066-0.153,0.176v6.799h-0.736V263.361L147.855,263.361z"/>
			<path fill="#4E4F51" d="M156.299,270.237h0.803v-6.445h-0.803v-0.431h2.377v0.431h-0.804v6.445h0.804v0.43h-2.377V270.237z"/>
			<path fill="#4E4F51" d="M161.619,263.361l1.914,4.632c0.176,0.43,0.418,1.145,0.594,1.573c0.077,0.188,0.145,0.43,0.254,0.43
				c0.032,0,0.088-0.056,0.088-0.166v-6.469h0.727v7.306h-1.331l-2.024-4.962c-0.23-0.571-0.253-0.627-0.462-1.178
				c-0.12-0.317-0.153-0.494-0.241-0.494c-0.056,0-0.088,0.056-0.088,0.099v6.535h-0.728v-7.306H161.619L161.619,263.361z"/>
			<path fill="#4E4F51" d="M167.374,263.361h4.61v0.64h-3.852v2.485h3.312v0.671h-3.312v2.85h3.971v0.66h-4.729V263.361z"/>
		</g>
		<g>
			<path fill="#4E4F51" d="M150.453,285.066h-0.771v-2.794l-2.685-4.512h0.849l1.936,3.355c0.121,0.209,0.165,0.396,0.298,0.396
				c0.108,0,0.241-0.375,0.483-0.793l1.684-2.959h0.848l-2.641,4.511V285.066L150.453,285.066z"/>
			<path fill="#4E4F51" d="M158.389,283.954c-0.494,1.111-1.386,1.377-2.057,1.377c-0.309,0-1.122,0-1.814-0.781
				c-0.693-0.781-0.825-2.024-0.825-2.86c0-0.825,0.021-1.815,0.462-2.763c0.242-0.506,0.847-1.319,2.068-1.319
				c0.824,0,1.484,0.297,1.957,0.989c0.463,0.684,0.672,1.806,0.672,2.884C158.852,282.603,158.665,283.351,158.389,283.954z
				 M156.277,278.224c-1.012,0-1.396,0.912-1.496,1.154c-0.319,0.781-0.319,1.793-0.319,2.18c0,0.55,0.033,1.496,0.386,2.199
				c0.353,0.683,0.869,0.957,1.396,0.957c0.672,0,1.167-0.385,1.453-1c0.385-0.805,0.385-1.629,0.385-2.233
				C158.082,280.412,157.917,278.224,156.277,278.224z"/>
			<path fill="#4E4F51" d="M161.268,277.761v5.228c0,1.506,1.199,1.705,1.541,1.705c1.1,0,1.771-0.683,1.771-1.815v-5.115h0.737
				v5.127c0,1.596-0.946,2.441-2.497,2.441c-1.476,0-2.321-1.013-2.321-2.421v-5.147h0.77V277.761z"/>
			<path fill="#4E4F51" d="M167.504,277.761h2.389c1.188,0,1.572,0.33,1.826,0.562c0.209,0.199,0.539,0.584,0.539,1.431
				c0,0.881-0.418,1.971-1.992,2.024l2.299,3.289h-0.924l-2.111-3.233h-1.266v3.233h-0.76V277.761L167.504,277.761z
				 M169.495,281.171c0.737,0,1.97,0,1.97-1.386c0-1.298-0.957-1.364-1.64-1.364h-1.562v2.75H169.495z"/>
			<path fill="#4E4F51" d="M177.337,279.456c-0.144-0.396-0.44-1.232-1.573-1.232c-0.309,0-1.33,0.121-1.33,1.255
				c0,0.791,0.759,1.12,1.121,1.274c0.287,0.121,0.771,0.297,1.057,0.418c1.066,0.451,1.64,0.902,1.64,2.113
				c0,0.66-0.341,1.287-0.76,1.596c-0.604,0.451-1.342,0.451-1.64,0.451c-1.198,0-1.914-0.771-2.344-1.707l0.66-0.318
				c0.242,0.728,0.727,1.068,0.881,1.156c0.406,0.23,0.803,0.24,1.057,0.24c0.527,0,1.419-0.285,1.419-1.385
				c0-0.54-0.253-0.99-0.781-1.244l-0.362-0.176c-0.451-0.23-0.936-0.396-1.396-0.605c-0.319-0.154-0.748-0.352-1.045-0.935
				c-0.145-0.298-0.198-0.649-0.198-0.869c0-1.078,0.692-1.882,2.103-1.882c0.924,0,1.594,0.354,2.178,1.508L177.337,279.456z"/>
		</g>
		<g>
			<path fill="#4E4F51" d="M151.85,298.356c-0.496,1.109-1.387,1.375-2.058,1.375c-0.31,0-1.122,0-1.815-0.781
				c-0.692-0.781-0.824-2.023-0.824-2.859c0-0.826,0.021-1.816,0.462-2.762c0.241-0.506,0.847-1.32,2.067-1.32
				c0.826,0,1.485,0.297,1.959,0.99c0.461,0.682,0.67,1.805,0.67,2.883C152.311,297.001,152.125,297.749,151.85,298.356z
				 M149.737,292.624c-1.013,0-1.396,0.912-1.496,1.154c-0.319,0.781-0.319,1.793-0.319,2.178c0,0.551,0.033,1.496,0.387,2.201
				c0.352,0.682,0.869,0.957,1.396,0.957c0.672,0,1.167-0.385,1.453-1.002c0.385-0.803,0.385-1.627,0.385-2.232
				C151.542,294.813,151.377,292.624,149.737,292.624z"/>
			<path fill="#4E4F51" d="M154.727,292.161v5.227c0,1.508,1.199,1.705,1.541,1.705c1.1,0,1.771-0.684,1.771-1.814v-5.115h0.737
				v5.127c0,1.594-0.946,2.441-2.497,2.441c-1.476,0-2.321-1.014-2.321-2.422v-5.146h0.77V292.161z"/>
			<path fill="#4E4F51" d="M160.965,292.161h2.387c1.188,0,1.574,0.33,1.826,0.561c0.209,0.199,0.539,0.584,0.539,1.432
				c0,0.881-0.418,1.969-1.99,2.023l2.299,3.289h-0.924l-2.112-3.232h-1.265v3.232h-0.76V292.161L160.965,292.161z M162.955,295.571
				c0.737,0,1.971,0,1.971-1.387c0-1.299-0.957-1.363-1.641-1.363h-1.562v2.75H162.955z"/>
			<path fill="#4E4F51" d="M170.797,293.856c-0.145-0.396-0.441-1.232-1.574-1.232c-0.309,0-1.33,0.121-1.33,1.254
				c0,0.793,0.759,1.123,1.121,1.277c0.287,0.121,0.771,0.297,1.057,0.418c1.066,0.451,1.64,0.9,1.64,2.111
				c0,0.66-0.341,1.287-0.76,1.596c-0.604,0.451-1.342,0.451-1.64,0.451c-1.198,0-1.914-0.771-2.344-1.705l0.66-0.318
				c0.242,0.725,0.727,1.066,0.881,1.154c0.406,0.23,0.803,0.242,1.057,0.242c0.527,0,1.419-0.285,1.419-1.387
				c0-0.539-0.253-0.99-0.781-1.244l-0.362-0.176c-0.451-0.23-0.936-0.395-1.396-0.604c-0.319-0.154-0.748-0.354-1.045-0.938
				c-0.145-0.297-0.198-0.646-0.198-0.869c0-1.076,0.692-1.881,2.103-1.881c0.924,0,1.594,0.354,2.178,1.508L170.797,293.856z"/>
		</g>
		<g>
			<path fill="#4E4F51" d="M150.453,313.866h-0.771v-2.795l-2.685-4.51h0.849l1.936,3.354c0.121,0.209,0.165,0.396,0.298,0.396
				c0.108,0,0.241-0.373,0.483-0.791l1.684-2.961h0.848l-2.641,4.512V313.866L150.453,313.866z"/>
			<path fill="#4E4F51" d="M158.389,312.755c-0.494,1.111-1.386,1.375-2.057,1.375c-0.309,0-1.122,0-1.814-0.781
				c-0.693-0.779-0.825-2.023-0.825-2.859c0-0.824,0.021-1.814,0.462-2.76c0.242-0.508,0.847-1.32,2.068-1.32
				c0.824,0,1.484,0.297,1.957,0.99c0.463,0.682,0.672,1.803,0.672,2.881C158.852,311.403,158.665,312.151,158.389,312.755z
				 M156.277,307.024c-1.012,0-1.396,0.914-1.496,1.154c-0.319,0.781-0.319,1.793-0.319,2.18c0,0.549,0.033,1.496,0.386,2.199
				c0.353,0.684,0.869,0.957,1.396,0.957c0.672,0,1.167-0.387,1.453-1.002c0.385-0.803,0.385-1.629,0.385-2.232
				C158.082,309.212,157.917,307.024,156.277,307.024z"/>
			<path fill="#4E4F51" d="M161.268,306.562v5.227c0,1.508,1.199,1.705,1.541,1.705c1.1,0,1.771-0.684,1.771-1.814v-5.115h0.737
				v5.127c0,1.594-0.946,2.441-2.497,2.441c-1.476,0-2.321-1.012-2.321-2.42v-5.148h0.77V306.562z"/>
			<path fill="#4E4F51" d="M167.504,306.562h2.389c1.188,0,1.572,0.33,1.826,0.562c0.209,0.197,0.539,0.582,0.539,1.43
				c0,0.881-0.418,1.971-1.992,2.023l2.299,3.291h-0.924l-2.111-3.234h-1.266v3.234h-0.76V306.562L167.504,306.562z
				 M169.495,309.972c0.737,0,1.97,0,1.97-1.387c0-1.299-0.957-1.363-1.64-1.363h-1.562v2.75H169.495L169.495,309.972z"/>
			<path fill="#4E4F51" d="M177.337,308.255c-0.144-0.395-0.44-1.23-1.573-1.23c-0.309,0-1.33,0.121-1.33,1.254
				c0,0.793,0.759,1.123,1.121,1.275c0.287,0.121,0.771,0.297,1.057,0.418c1.066,0.451,1.64,0.902,1.64,2.111
				c0,0.66-0.341,1.287-0.76,1.596c-0.604,0.451-1.342,0.451-1.64,0.451c-1.198,0-1.914-0.77-2.344-1.705l0.66-0.318
				c0.242,0.727,0.727,1.066,0.881,1.154c0.406,0.23,0.803,0.242,1.057,0.242c0.527,0,1.419-0.285,1.419-1.387
				c0-0.539-0.253-0.99-0.781-1.242l-0.362-0.176c-0.451-0.232-0.936-0.396-1.396-0.605c-0.319-0.152-0.748-0.352-1.045-0.936
				c-0.145-0.297-0.198-0.648-0.198-0.869c0-1.078,0.692-1.881,2.103-1.881c0.924,0,1.594,0.352,2.178,1.508L177.337,308.255z"/>
		</g>
		<g>
			<path fill="#4E4F51" d="M152.467,320.96v0.639h-2.344v6.668h-0.781v-6.668h-2.332v-0.639H152.467z"/>
			<path fill="#4E4F51" d="M153.977,320.96h0.77v3.158h3.202v-3.158h0.771v7.307h-0.771v-3.51h-3.202v3.51h-0.77V320.96z"/>
			<path fill="#4E4F51" d="M160.932,320.96h4.609v0.639h-3.852v2.486h3.312v0.672h-3.312v2.85h3.972v0.66h-4.729V320.96z"/>
			<path fill="#4E4F51" d="M167.051,327.837h0.803v-6.447h-0.803v-0.43h2.375v0.43h-0.803v6.447h0.803v0.43h-2.375V327.837z"/>
			<path fill="#4E4F51" d="M171.088,320.96h2.389c1.188,0,1.572,0.33,1.826,0.562c0.209,0.197,0.539,0.584,0.539,1.432
				c0,0.879-0.418,1.969-1.992,2.021l2.299,3.291h-0.924l-2.111-3.234h-1.266v3.234h-0.76V320.96L171.088,320.96z M173.079,324.372
				c0.737,0,1.97,0,1.97-1.387c0-1.299-0.957-1.365-1.64-1.365h-1.562v2.752H173.079z"/>
			<path fill="#4E4F51" d="M180.92,322.655c-0.144-0.396-0.439-1.232-1.572-1.232c-0.31,0-1.332,0.121-1.332,1.254
				c0,0.793,0.76,1.123,1.123,1.277c0.285,0.121,0.77,0.297,1.056,0.418c1.067,0.451,1.64,0.902,1.64,2.111
				c0,0.66-0.341,1.287-0.76,1.596c-0.604,0.451-1.342,0.451-1.639,0.451c-1.199,0-1.914-0.771-2.344-1.705l0.659-0.32
				c0.242,0.729,0.728,1.068,0.88,1.156c0.407,0.23,0.805,0.242,1.057,0.242c0.529,0,1.42-0.287,1.42-1.387
				c0-0.539-0.254-0.99-0.781-1.242l-0.361-0.178c-0.451-0.23-0.937-0.396-1.397-0.604c-0.319-0.154-0.748-0.354-1.046-0.936
				c-0.144-0.299-0.197-0.65-0.197-0.869c0-1.078,0.693-1.883,2.102-1.883c0.924,0,1.596,0.354,2.178,1.508L180.92,322.655z"/>
		</g>
	</g>
	<g>
		<g>
			<path fill="#4E4F51" d="M151.361,201.893h0.77v3.158h3.202v-3.158h0.771v7.305h-0.771v-3.509h-3.202v3.509h-0.77V201.893z"/>
			<path fill="#4E4F51" d="M157.78,208.769h0.803v-6.447h-0.803v-0.429h2.376v0.429h-0.803v6.447h0.803v0.429h-2.376V208.769z"/>
			<path fill="#4E4F51" d="M165.053,203.586c-0.145-0.396-0.44-1.231-1.574-1.231c-0.309,0-1.33,0.121-1.33,1.254
				c0,0.792,0.759,1.122,1.121,1.276c0.287,0.12,0.771,0.297,1.057,0.418c1.066,0.45,1.641,0.901,1.641,2.111
				c0,0.66-0.342,1.287-0.761,1.596c-0.604,0.45-1.342,0.45-1.639,0.45c-1.199,0-1.914-0.77-2.345-1.706l0.66-0.318
				c0.242,0.726,0.728,1.066,0.881,1.154c0.406,0.231,0.804,0.242,1.057,0.242c0.527,0,1.419-0.286,1.419-1.386
				c0-0.539-0.253-0.99-0.781-1.243l-0.362-0.176c-0.451-0.231-0.936-0.396-1.396-0.605c-0.318-0.153-0.748-0.352-1.045-0.935
				c-0.145-0.297-0.198-0.649-0.198-0.869c0-1.078,0.692-1.881,2.103-1.881c0.924,0,1.595,0.352,2.178,1.507L165.053,203.586z"/>
		</g>
		<g>
			<path fill="#4E4F51" d="M151.361,216.292h0.77v3.158h3.202v-3.158h0.771v7.307h-0.771v-3.51h-3.202v3.51h-0.77V216.292z"/>
			<path fill="#4E4F51" d="M158.316,216.292h4.609v0.64h-3.851v2.485h3.312v0.672h-3.312v2.85h3.972v0.66h-4.73V216.292z"/>
			<path fill="#4E4F51" d="M164.753,216.292h2.388c1.188,0,1.574,0.33,1.826,0.562c0.209,0.198,0.539,0.583,0.539,1.431
				c0,0.88-0.418,1.969-1.99,2.023l2.299,3.29h-0.924l-2.112-3.234h-1.265v3.234h-0.761V216.292L164.753,216.292z M166.744,219.703
				c0.736,0,1.971,0,1.971-1.386c0-1.299-0.957-1.365-1.641-1.365h-1.562v2.751H166.744z"/>
			<path fill="#4E4F51" d="M174.586,217.987c-0.144-0.396-0.439-1.232-1.572-1.232c-0.31,0-1.332,0.121-1.332,1.255
				c0,0.792,0.76,1.121,1.123,1.275c0.285,0.121,0.77,0.297,1.056,0.418c1.067,0.451,1.64,0.902,1.64,2.112
				c0,0.66-0.341,1.287-0.76,1.596c-0.604,0.451-1.342,0.451-1.639,0.451c-1.199,0-1.914-0.771-2.344-1.706l0.659-0.319
				c0.242,0.728,0.728,1.068,0.88,1.156c0.407,0.23,0.805,0.241,1.057,0.241c0.529,0,1.42-0.286,1.42-1.386
				c0-0.539-0.254-0.99-0.781-1.243l-0.361-0.177c-0.451-0.23-0.937-0.396-1.397-0.604c-0.319-0.154-0.748-0.353-1.046-0.935
				c-0.144-0.299-0.197-0.65-0.197-0.869c0-1.078,0.693-1.882,2.102-1.882c0.924,0,1.596,0.353,2.178,1.507L174.586,217.987z"/>
		</g>
		<g>
			<path fill="#4E4F51" d="M150.701,237.568h0.803v-6.446h-0.803v-0.43h2.376v0.43h-0.803v6.446h0.803v0.429h-2.376V237.568z"/>
			<path fill="#4E4F51" d="M159.721,230.692v0.639h-2.343v6.666h-0.78v-6.666h-2.334v-0.639H159.721z"/>
			<path fill="#4E4F51" d="M164.487,232.388c-0.144-0.396-0.44-1.23-1.573-1.23c-0.309,0-1.331,0.119-1.331,1.254
				c0,0.791,0.759,1.121,1.122,1.274c0.286,0.121,0.77,0.297,1.057,0.418c1.066,0.451,1.64,0.901,1.64,2.112
				c0,0.66-0.341,1.287-0.761,1.596c-0.604,0.451-1.342,0.451-1.639,0.451c-1.199,0-1.914-0.771-2.344-1.706l0.66-0.317
				c0.242,0.727,0.727,1.066,0.881,1.154c0.406,0.23,0.803,0.241,1.057,0.241c0.527,0,1.418-0.285,1.418-1.386
				c0-0.539-0.252-0.989-0.781-1.244l-0.361-0.176c-0.451-0.229-0.936-0.396-1.396-0.604c-0.32-0.153-0.748-0.353-1.045-0.935
				c-0.145-0.299-0.199-0.649-0.199-0.869c0-1.078,0.693-1.883,2.103-1.883c0.924,0,1.595,0.354,2.179,1.508L164.487,232.388z"/>
		</g>
	</g>
	<g>
		<g>
			<path fill="#4E4F51" d="M150.232,105.206h1.529l1.287,4.5c0.12,0.43,0.209,0.946,0.373,1.54c0.021,0.066,0.077,0.242,0.165,0.242
				c0.22,0,0.298-0.583,0.353-0.803c0.144-0.562,0.154-0.627,0.275-1.034l1.286-4.445h1.552v7.306h-0.736v-6.799
				c0-0.1-0.057-0.165-0.145-0.165c-0.109,0-0.132,0.065-0.187,0.22c-0.033,0.077-0.132,0.462-0.177,0.594l-1.76,6.15h-0.892
				l-1.552-5.567c-0.055-0.198-0.275-1.078-0.33-1.254c-0.033-0.077-0.055-0.154-0.154-0.154c-0.121,0-0.152,0.066-0.152,0.177
				v6.799h-0.738v-7.306H150.232z"/>
			<path fill="#4E4F51" d="M161.969,112.511h-0.771v-2.794l-2.686-4.512h0.849l1.937,3.355c0.12,0.209,0.164,0.396,0.297,0.396
				c0.109,0,0.241-0.374,0.483-0.792l1.685-2.959h0.847l-2.64,4.512V112.511L161.969,112.511z"/>
		</g>
		<g>
			<path fill="#4E4F51" d="M152.829,126.911h-0.771v-2.794l-2.686-4.511h0.848l1.937,3.355c0.121,0.209,0.165,0.396,0.298,0.396
				c0.109,0,0.241-0.374,0.482-0.792l1.685-2.959h0.847l-2.64,4.511V126.911L152.829,126.911z"/>
			<path fill="#4E4F51" d="M160.766,125.8c-0.496,1.11-1.387,1.375-2.058,1.375c-0.31,0-1.122,0-1.815-0.781
				c-0.692-0.781-0.824-2.024-0.824-2.86c0-0.824,0.021-1.814,0.462-2.761c0.241-0.506,0.847-1.32,2.067-1.32
				c0.826,0,1.485,0.298,1.959,0.99c0.461,0.683,0.67,1.804,0.67,2.882C161.227,124.447,161.041,125.195,160.766,125.8z
				 M158.653,120.069c-1.013,0-1.396,0.913-1.496,1.155c-0.319,0.781-0.319,1.793-0.319,2.179c0,0.55,0.033,1.496,0.387,2.2
				c0.352,0.682,0.869,0.957,1.396,0.957c0.672,0,1.167-0.385,1.453-1.001c0.385-0.803,0.385-1.628,0.385-2.233
				C160.458,122.258,160.293,120.069,158.653,120.069z"/>
			<path fill="#4E4F51" d="M163.643,119.606v5.226c0,1.508,1.199,1.705,1.541,1.705c1.101,0,1.771-0.682,1.771-1.814v-5.116h0.737
				v5.127c0,1.595-0.946,2.442-2.497,2.442c-1.476,0-2.321-1.013-2.321-2.42v-5.149H163.643z"/>
			<path fill="#4E4F51" d="M169.881,119.606h2.387c1.188,0,1.574,0.33,1.826,0.562c0.209,0.197,0.539,0.583,0.539,1.43
				c0,0.88-0.418,1.969-1.99,2.023l2.299,3.29h-0.924l-2.112-3.233h-1.265v3.233h-0.76V119.606L169.881,119.606z M171.871,123.017
				c0.737,0,1.971,0,1.971-1.386c0-1.299-0.957-1.364-1.641-1.364h-1.562v2.75H171.871z"/>
		</g>
		<g>
			<path fill="#4E4F51" d="M154.225,140.2c-0.494,1.111-1.385,1.375-2.057,1.375c-0.309,0-1.121,0-1.814-0.78
				c-0.693-0.781-0.825-2.024-0.825-2.86c0-0.825,0.021-1.815,0.462-2.761c0.242-0.506,0.847-1.32,2.068-1.32
				c0.824,0,1.484,0.297,1.957,0.99c0.463,0.682,0.672,1.804,0.672,2.882C154.688,138.847,154.501,139.595,154.225,140.2z
				 M152.113,134.469c-1.012,0-1.396,0.913-1.496,1.154c-0.318,0.781-0.318,1.794-0.318,2.18c0,0.55,0.032,1.496,0.385,2.2
				c0.353,0.682,0.869,0.957,1.396,0.957c0.672,0,1.167-0.386,1.453-1.001c0.385-0.804,0.385-1.629,0.385-2.233
				C153.918,136.658,153.753,134.469,152.113,134.469z"/>
			<path fill="#4E4F51" d="M157.102,134.007v5.226c0,1.507,1.199,1.705,1.541,1.705c1.101,0,1.771-0.682,1.771-1.815v-5.115h0.737
				v5.127c0,1.595-0.946,2.441-2.497,2.441c-1.476,0-2.321-1.012-2.321-2.42v-5.148H157.102z"/>
			<path fill="#4E4F51" d="M163.34,134.007h2.389c1.188,0,1.572,0.33,1.826,0.561c0.209,0.198,0.539,0.583,0.539,1.43
				c0,0.881-0.418,1.97-1.992,2.024l2.3,3.29h-0.925l-2.111-3.234H164.1v3.234h-0.76V134.007L163.34,134.007z M165.331,137.417
				c0.737,0,1.97,0,1.97-1.387c0-1.298-0.957-1.363-1.64-1.363H164.1v2.75H165.331z"/>
		</g>
		<g>
			<path fill="#4E4F51" d="M152.829,155.712h-0.771v-2.795l-2.686-4.512h0.848l1.937,3.355c0.121,0.209,0.165,0.396,0.298,0.396
				c0.109,0,0.241-0.374,0.482-0.792l1.685-2.959h0.847l-2.64,4.512V155.712L152.829,155.712z"/>
			<path fill="#4E4F51" d="M160.766,154.6c-0.496,1.111-1.387,1.375-2.058,1.375c-0.31,0-1.122,0-1.815-0.781
				c-0.692-0.781-0.824-2.023-0.824-2.859c0-0.825,0.021-1.815,0.462-2.762c0.241-0.506,0.847-1.319,2.067-1.319
				c0.826,0,1.485,0.297,1.959,0.989c0.461,0.683,0.67,1.805,0.67,2.883C161.227,153.247,161.041,153.995,160.766,154.6z
				 M158.653,148.869c-1.013,0-1.396,0.913-1.496,1.155c-0.319,0.781-0.319,1.793-0.319,2.179c0,0.551,0.033,1.496,0.387,2.2
				c0.352,0.683,0.869,0.957,1.396,0.957c0.672,0,1.167-0.385,1.453-1.001c0.385-0.803,0.385-1.628,0.385-2.232
				C160.458,151.058,160.293,148.869,158.653,148.869z"/>
			<path fill="#4E4F51" d="M163.643,148.406v5.227c0,1.507,1.199,1.705,1.541,1.705c1.101,0,1.771-0.683,1.771-1.815v-5.116h0.737
				v5.127c0,1.596-0.946,2.442-2.497,2.442c-1.476,0-2.321-1.012-2.321-2.42v-5.149H163.643L163.643,148.406z"/>
			<path fill="#4E4F51" d="M169.881,148.406h2.387c1.188,0,1.574,0.33,1.826,0.562c0.209,0.197,0.539,0.583,0.539,1.43
				c0,0.88-0.418,1.97-1.99,2.024l2.299,3.29h-0.924l-2.112-3.234h-1.265v3.234h-0.76V148.406L169.881,148.406z M171.871,151.817
				c0.737,0,1.971,0,1.971-1.386c0-1.298-0.957-1.364-1.641-1.364h-1.562v2.75H171.871z"/>
		</g>
		<g>
			<path fill="#4E4F51" d="M154.842,162.806v0.638h-2.343v6.667h-0.78v-6.667h-2.334v-0.638H154.842z"/>
			<path fill="#4E4F51" d="M156.352,162.806h0.771v3.158h3.202v-3.158h0.77v7.305h-0.77v-3.509h-3.202v3.509h-0.771V162.806z"/>
			<path fill="#4E4F51" d="M163.307,162.806h4.61v0.638h-3.851v2.486h3.312v0.671h-3.312v2.849h3.971v0.66h-4.73V162.806z"/>
			<path fill="#4E4F51" d="M169.426,169.682h0.803v-6.447h-0.803v-0.429h2.377v0.429h-0.804v6.447h0.804v0.429h-2.377V169.682z"/>
			<path fill="#4E4F51" d="M173.465,162.806h2.387c1.188,0,1.574,0.33,1.826,0.561c0.209,0.198,0.539,0.583,0.539,1.431
				c0,0.88-0.418,1.969-1.99,2.023l2.299,3.29h-0.924l-2.112-3.233h-1.265v3.233h-0.76V162.806L173.465,162.806z M175.455,166.217
				c0.737,0,1.971,0,1.971-1.387c0-1.298-0.957-1.363-1.641-1.363h-1.562v2.75H175.455z"/>
		</g>
	</g>
	<g>
		<path fill="#4E4F51" d="M81.306,372.946h3.39c1.513,0,2.324,0.32,2.871,0.811c0.645,0.574,0.938,1.4,0.938,2.424
			c0,1.598-0.882,2.355-1.345,2.635c-0.742,0.447-1.555,0.488-2.353,0.518l-1.233,0.043v3.852h-2.269L81.306,372.946L81.306,372.946
			z M83.574,377.653c1.079,0,1.485,0,1.751-0.111c0.184-0.07,0.827-0.379,0.827-1.43c0-0.994-0.379-1.205-0.687-1.33
			c-0.364-0.141-0.532-0.141-1.893-0.141L83.574,377.653L83.574,377.653z"/>
		<path fill="#4E4F51" d="M90.034,376.573c0-1.049,0.183-2.061,0.896-2.842c0.646-0.717,1.61-0.98,2.578-0.98
			c1.051,0,2.018,0.252,2.702,0.994c0.575,0.615,0.896,1.525,0.896,3.18v2.492c0,1.443-0.236,2.367-0.881,3.068
			c-0.854,0.924-2.088,1.021-2.746,1.021c-1.008,0-2.661-0.365-3.18-2.102c-0.225-0.729-0.267-1.625-0.267-2.072v-2.76H90.034z
			 M92.33,379.796c0,1.078,0.21,1.85,1.219,1.85c1.219,0,1.219-1.135,1.219-1.85v-3.572c0-0.715,0-1.582-1.189-1.582
			c-1.247,0-1.247,1.176-1.247,1.582L92.33,379.796L92.33,379.796z"/>
		<path fill="#4E4F51" d="M103.749,375.706c-0.321-0.617-0.979-1.148-1.778-1.148c-1.177,0-1.205,0.883-1.205,0.994
			c0,0.729,0.672,1.021,1.304,1.246l1.303,0.477c0.616,0.225,1.345,0.645,1.751,1.205c0.126,0.168,0.574,0.84,0.574,1.807
			c0,0.463,0,1.836-1.457,2.719c-0.604,0.363-1.457,0.52-1.975,0.52c-1.809,0-2.873-0.436-3.797-2.09l1.75-1.16
			c0.379,0.867,1.065,1.398,1.947,1.398c0.49,0,1.373-0.223,1.373-1.162c0-0.77-0.42-0.938-1.961-1.541
			c-1.555-0.602-2.898-1.289-2.898-3.318c0-1.695,1.231-2.914,3.348-2.914c1.513,0,2.576,0.617,3.418,1.85L103.749,375.706z"/>
		<path fill="#4E4F51" d="M112.15,375.706c-0.322-0.617-0.98-1.148-1.779-1.148c-1.176,0-1.204,0.883-1.204,0.994
			c0,0.729,0.673,1.021,1.304,1.246l1.303,0.477c0.615,0.225,1.345,0.645,1.75,1.205c0.127,0.168,0.574,0.84,0.574,1.807
			c0,0.463,0,1.836-1.457,2.719c-0.603,0.363-1.457,0.52-1.975,0.52c-1.808,0-2.872-0.436-3.796-2.09l1.75-1.16
			c0.379,0.867,1.065,1.398,1.947,1.398c0.489,0,1.372-0.223,1.372-1.162c0-0.77-0.42-0.938-1.961-1.541
			c-1.555-0.602-2.898-1.289-2.898-3.318c0-1.695,1.232-2.914,3.348-2.914c1.514,0,2.578,0.617,3.418,1.85L112.15,375.706z"/>
		<path fill="#4E4F51" d="M115.592,372.946h6.905v1.877h-4.665v2.186h3.208v1.877h-3.18v2.424h4.959v1.918h-7.229v-10.281H115.592z"
			/>
		<path fill="#4E4F51" d="M129.434,375.706c-0.321-0.617-0.979-1.148-1.778-1.148c-1.177,0-1.204,0.883-1.204,0.994
			c0,0.729,0.672,1.021,1.303,1.246l1.303,0.477c0.617,0.225,1.346,0.645,1.752,1.205c0.125,0.168,0.574,0.84,0.574,1.807
			c0,0.463,0,1.836-1.457,2.719c-0.604,0.363-1.457,0.52-1.976,0.52c-1.808,0-2.872-0.436-3.797-2.09l1.751-1.16
			c0.379,0.867,1.064,1.398,1.947,1.398c0.49,0,1.373-0.223,1.373-1.162c0-0.77-0.42-0.938-1.961-1.541
			c-1.556-0.602-2.899-1.289-2.899-3.318c0-1.695,1.231-2.914,3.348-2.914c1.513,0,2.577,0.617,3.419,1.85L129.434,375.706z"/>
		<path fill="#4E4F51" d="M137.835,375.706c-0.321-0.617-0.979-1.148-1.778-1.148c-1.176,0-1.205,0.883-1.205,0.994
			c0,0.729,0.672,1.021,1.304,1.246l1.303,0.477c0.616,0.225,1.345,0.645,1.751,1.205c0.126,0.168,0.574,0.84,0.574,1.807
			c0,0.463,0,1.836-1.457,2.719c-0.604,0.363-1.457,0.52-1.975,0.52c-1.809,0-2.873-0.436-3.797-2.09l1.75-1.16
			c0.379,0.867,1.065,1.398,1.947,1.398c0.49,0,1.373-0.223,1.373-1.162c0-0.77-0.42-0.938-1.961-1.541
			c-1.555-0.602-2.898-1.289-2.898-3.318c0-1.695,1.231-2.914,3.348-2.914c1.513,0,2.576,0.617,3.418,1.85L137.835,375.706z"/>
		<path fill="#4E4F51" d="M140.605,383.228v-0.91h1.205v-8.475h-1.205v-0.896h4.691v0.896h-1.218v8.447h1.218v0.938H140.605
			L140.605,383.228z"/>
		<path fill="#4E4F51" d="M149.346,383.228l-3.139-10.281h2.255l1.597,5.533c0.238,0.84,0.406,1.43,0.49,1.752h0.057
			c0.154-0.617,0.322-1.234,0.49-1.85l1.526-5.436h2.241l-3.066,10.279h-2.451V383.228z"/>
		<path fill="#4E4F51" d="M156.204,372.946h6.907v1.877h-4.666v2.186h3.208v1.877h-3.181v2.424h4.959v1.918h-7.229L156.204,372.946
			L156.204,372.946z"/>
		<path fill="#4E4F51" d="M168.371,372.946h3.391c1.512,0,2.324,0.32,2.871,0.811c0.646,0.574,0.938,1.4,0.938,2.424
			c0,1.598-0.882,2.355-1.345,2.635c-0.741,0.447-1.555,0.488-2.354,0.518l-1.232,0.043v3.852h-2.27V372.946L168.371,372.946z
			 M170.641,377.653c1.078,0,1.483,0,1.75-0.111c0.184-0.07,0.828-0.379,0.828-1.43c0-0.994-0.379-1.205-0.688-1.33
			c-0.363-0.141-0.531-0.141-1.892-0.141v3.012H170.641z"/>
		<path fill="#4E4F51" d="M179.361,383.228h-2.227v-10.281h3.319c1.666,0,3.781,0.225,3.781,2.984c0,1.303-0.519,2.297-1.961,2.73
			l2.241,4.566h-2.451l-1.946-4.201h-0.758L179.361,383.228L179.361,383.228z M179.361,377.386c1.275,0,1.471,0,1.793-0.111
			c0.715-0.252,0.771-0.812,0.771-1.373c0-0.713-0.226-1.064-0.673-1.232c-0.352-0.125-0.631-0.125-1.893-0.125L179.361,377.386
			L179.361,377.386z"/>
		<path fill="#4E4F51" d="M185.877,376.573c0-1.049,0.182-2.061,0.896-2.842c0.645-0.717,1.611-0.98,2.578-0.98
			c1.051,0,2.018,0.252,2.703,0.994c0.573,0.615,0.896,1.525,0.896,3.18v2.492c0,1.443-0.238,2.367-0.883,3.068
			c-0.854,0.924-2.087,1.021-2.746,1.021c-1.009,0-2.66-0.365-3.181-2.102c-0.223-0.729-0.266-1.625-0.266-2.072v-2.76H185.877z
			 M188.174,379.796c0,1.078,0.211,1.85,1.219,1.85c1.22,0,1.22-1.135,1.22-1.85v-3.572c0-0.715,0-1.582-1.188-1.582
			c-1.248,0-1.248,1.176-1.248,1.582v3.572H188.174z"/>
		<path fill="#4E4F51" d="M194.814,372.946h2.156l2.647,4.805c0.11,0.209,0.252,0.49,0.351,0.701
			c0.043,0.084,0.182,0.461,0.225,0.531h0.07l-0.058-1.037c-0.043-0.699-0.043-0.783-0.043-1.178v-3.822h2.074v10.279h-1.851
			l-2.729-4.984c-0.226-0.406-0.238-0.449-0.771-1.695h-0.07c0.014,0.295,0.07,1.598,0.07,1.863v4.816h-2.072V372.946
			L194.814,372.946z"/>
		<path fill="#4E4F51" d="M204.113,376.573c0-1.049,0.182-2.061,0.896-2.842c0.645-0.717,1.61-0.98,2.577-0.98
			c1.052,0,2.019,0.252,2.703,0.994c0.574,0.615,0.896,1.525,0.896,3.18v2.492c0,1.443-0.237,2.367-0.883,3.068
			c-0.854,0.924-2.086,1.021-2.746,1.021c-1.008,0-2.66-0.365-3.18-2.102c-0.223-0.729-0.266-1.625-0.266-2.072v-2.76H204.113z
			 M206.41,379.796c0,1.078,0.211,1.85,1.219,1.85c1.219,0,1.219-1.135,1.219-1.85v-3.572c0-0.715,0-1.582-1.188-1.582
			c-1.248,0-1.248,1.176-1.248,1.582L206.41,379.796L206.41,379.796z"/>
		<path fill="#4E4F51" d="M213.012,372.946h2.34v6.777c0,0.617,0,1.893,1.388,1.893c0.435,0,1.44,0,1.44-1.877v-6.793h2.285v6.807
			c0,0.617-0.016,2.104-1.066,2.957c-0.713,0.574-1.596,0.783-2.534,0.783c-1.078,0-2.185-0.268-2.813-0.854
			c-0.994-0.938-1.037-2.115-1.037-3.039v-6.654H213.012z"/>
		<path fill="#4E4F51" d="M222.477,372.946h2.156l2.647,4.805c0.11,0.209,0.252,0.49,0.351,0.701
			c0.043,0.084,0.182,0.461,0.225,0.531h0.07l-0.058-1.037c-0.043-0.699-0.043-0.783-0.043-1.178v-3.822h2.074v10.279h-1.851
			l-2.729-4.984c-0.226-0.406-0.238-0.449-0.771-1.695h-0.07c0.014,0.295,0.07,1.598,0.07,1.863v4.816h-2.072V372.946
			L222.477,372.946z"/>
		<path fill="#4E4F51" d="M236.744,375.706c-0.322-0.617-0.98-1.148-1.779-1.148c-1.176,0-1.203,0.883-1.203,0.994
			c0,0.729,0.672,1.021,1.303,1.246l1.304,0.477c0.614,0.225,1.344,0.645,1.75,1.205c0.127,0.168,0.574,0.84,0.574,1.807
			c0,0.463,0,1.836-1.457,2.719c-0.603,0.363-1.457,0.52-1.976,0.52c-1.807,0-2.871-0.436-3.797-2.09l1.752-1.16
			c0.379,0.867,1.064,1.398,1.947,1.398c0.49,0,1.373-0.223,1.373-1.162c0-0.77-0.42-0.938-1.961-1.541
			c-1.555-0.602-2.9-1.289-2.9-3.318c0-1.695,1.232-2.914,3.348-2.914c1.515,0,2.578,0.617,3.418,1.85L236.744,375.706z"/>
	</g>
</g>
<g id="Layer_3">
	<g opacity="0.45">
		<circle fill="none" stroke="#4E4F51" cx="160" cy="271.088" r="81.079"/>
		<circle fill="none" stroke="#4E4F51" cx="160" cy="168.912" r="81.079"/>
	</g>
</g>
</svg>
