<?xml version="1.0" encoding="utf-8"?>
<!-- Generator: Adobe Illustrator 15.0.0, SVG Export Plug-In . SVG Version: 6.00 Build 0)  -->
<!DOCTYPE svg PUBLIC "-//W3C//DTD SVG 1.1//EN" "http://www.w3.org/Graphics/SVG/1.1/DTD/svg11.dtd">
<svg version="1.1" id="track" xmlns="http://www.w3.org/2000/svg" xmlns:xlink="http://www.w3.org/1999/xlink" x="0px" y="0px"
	 width="320px" height="220px" viewBox="0 0 320 220" enable-background="new 0 0 320 220" xml:space="preserve">
<g>
	<path d="M71.321,48.462c0.61-1.422,1.503-2.951,2.678-4.59h2.491l-0.707,1.298c-0.974,1.785-1.648,3.655-2.028,5.609
		c-0.246,1.283-0.369,2.681-0.369,4.195c0,2.365,0.344,4.54,1.03,6.524c0.401,1.175,1.112,2.682,2.134,4.521h-2.447l-0.822-1.124
		c-0.533-0.68-1.102-1.692-1.704-3.037c-1.074-2.403-1.609-4.768-1.609-7.093C69.967,52.65,70.417,50.549,71.321,48.462z"/>
	<path d="M84.268,44.15h4.039l6.044,17.083H90.48l-1.128-3.512h-6.291l-1.158,3.512H78.17L84.268,44.15z M84.032,54.778h4.375
		l-2.158-6.722L84.032,54.778z"/>
	<path d="M105.267,49.325c0.827,0.685,1.241,1.818,1.241,3.402v8.507h-3.386V53.55c0-0.665-0.088-1.175-0.265-1.53
		c-0.322-0.649-0.937-0.975-1.841-0.975c-1.112,0-1.875,0.476-2.289,1.426c-0.215,0.502-0.322,1.144-0.322,1.924v6.838h-3.303
		v-12.61h3.199v1.844c0.423-0.649,0.822-1.116,1.199-1.402c0.678-0.51,1.535-0.765,2.574-0.765
		C103.376,48.3,104.439,48.642,105.267,49.325z"/>
	<path d="M114.4,48.462c0.902,2.087,1.354,4.188,1.354,6.306c0,2.326-0.535,4.689-1.607,7.093c-0.603,1.344-1.168,2.356-1.7,3.037
		l-0.821,1.124h-2.44c1.016-1.839,1.725-3.346,2.125-4.521c0.685-1.985,1.026-4.16,1.026-6.524c0-1.515-0.123-2.913-0.368-4.195
		c-0.379-1.955-1.052-3.825-2.021-5.609l-0.704-1.298h2.487C112.9,45.511,113.791,47.04,114.4,48.462z"/>
	<path d="M37.25,64.628h4.039l6.044,17.083h-3.871l-1.127-3.512h-6.291l-1.157,3.512h-3.734L37.25,64.628z M37.016,75.257h4.375
		l-2.158-6.723L37.016,75.257z"/>
	<path d="M58.524,69.804c0.827,0.684,1.241,1.817,1.241,3.401v8.507H56.38v-7.684c0-0.665-0.088-1.174-0.265-1.53
		c-0.322-0.648-0.936-0.974-1.841-0.974c-1.112,0-1.875,0.475-2.289,1.425c-0.215,0.502-0.322,1.145-0.322,1.924v6.838h-3.304
		V69.102h3.199v1.843c0.423-0.649,0.823-1.116,1.2-1.402c0.677-0.51,1.534-0.765,2.573-0.765
		C56.635,68.777,57.697,69.12,58.524,69.804z"/>
	<path d="M64.958,67.572h-3.35v-3.048h3.35V67.572z M61.608,69.079h3.35v12.633h-3.35V69.079z"/>
	<path d="M82.645,69.125c0.54,0.217,1.031,0.596,1.472,1.137c0.355,0.439,0.595,0.98,0.719,1.623
		c0.077,0.425,0.116,1.047,0.116,1.865l-0.022,7.962h-3.386v-8.043c0-0.479-0.076-0.873-0.23-1.182
		c-0.294-0.587-0.835-0.881-1.623-0.881c-0.911,0-1.541,0.379-1.889,1.136c-0.179,0.402-0.268,0.885-0.268,1.449v7.521h-3.326
		v-7.521c0-0.749-0.077-1.294-0.231-1.634c-0.277-0.61-0.822-0.916-1.634-0.916c-0.942,0-1.576,0.306-1.9,0.916
		c-0.178,0.348-0.267,0.866-0.267,1.553v7.603h-3.351V69.104h3.21v1.843c0.41-0.657,0.796-1.124,1.159-1.402
		c0.642-0.493,1.472-0.741,2.492-0.741c0.966,0,1.746,0.212,2.341,0.637c0.479,0.394,0.842,0.9,1.09,1.519
		c0.434-0.741,0.97-1.287,1.61-1.634c0.681-0.348,1.438-0.521,2.271-0.521C81.556,68.802,82.104,68.909,82.645,69.125z"/>
	<path d="M91.861,74.028c0.614-0.077,1.055-0.174,1.319-0.29c0.475-0.201,0.712-0.514,0.712-0.938c0-0.519-0.183-0.875-0.546-1.072
		c-0.364-0.197-0.899-0.295-1.604-0.295c-0.791,0-1.352,0.192-1.681,0.58c-0.234,0.286-0.393,0.672-0.47,1.158h-3.188
		c0.07-1.104,0.381-2.012,0.932-2.724c0.877-1.112,2.383-1.669,4.518-1.669c1.389,0,2.622,0.274,3.701,0.823
		c1.079,0.548,1.617,1.584,1.617,3.105v5.795c0,0.402,0.009,0.89,0.023,1.46c0.022,0.434,0.088,0.727,0.196,0.882
		c0.107,0.154,0.271,0.281,0.486,0.382v0.486h-3.593c-0.101-0.255-0.17-0.493-0.209-0.719c-0.039-0.224-0.069-0.479-0.093-0.765
		c-0.458,0.495-0.987,0.916-1.585,1.263c-0.716,0.41-1.523,0.614-2.425,0.614c-1.15,0-2.102-0.327-2.852-0.979
		c-0.75-0.651-1.125-1.577-1.125-2.774c0-1.553,0.604-2.678,1.811-3.373c0.662-0.378,1.635-0.649,2.919-0.812L91.861,74.028z
		 M93.881,75.569c-0.212,0.131-0.425,0.237-0.641,0.319c-0.215,0.081-0.511,0.155-0.887,0.226l-0.752,0.139
		c-0.705,0.124-1.211,0.274-1.52,0.452c-0.52,0.302-0.779,0.77-0.779,1.402c0,0.563,0.158,0.972,0.477,1.223
		c0.319,0.251,0.704,0.377,1.159,0.377c0.723,0,1.387-0.209,1.995-0.626c0.607-0.417,0.924-1.178,0.946-2.282L93.881,75.569
		L93.881,75.569z"/>
	<path d="M97.606,71.548v-2.354h1.762V65.67h3.27v3.523h2.052v2.354h-2.052v6.676c0,0.518,0.064,0.84,0.196,0.968
		c0.132,0.127,0.533,0.191,1.205,0.191c0.102,0,0.207-0.002,0.319-0.007c0.111-0.004,0.222-0.009,0.33-0.017v2.468l-1.564,0.059
		c-1.562,0.054-2.627-0.217-3.198-0.812c-0.371-0.379-0.558-0.962-0.558-1.75v-7.776L97.606,71.548L97.606,71.548z"/>
	<path d="M114.068,69.335c0.881,0.396,1.608,1.019,2.183,1.869c0.519,0.75,0.854,1.621,1.008,2.612
		c0.089,0.581,0.125,1.416,0.107,2.507h-9.2c0.052,1.268,0.491,2.156,1.32,2.666c0.505,0.317,1.112,0.476,1.821,0.476
		c0.753,0,1.363-0.193,1.835-0.58c0.256-0.208,0.481-0.498,0.68-0.869h3.372c-0.089,0.75-0.497,1.511-1.225,2.283
		c-1.133,1.229-2.717,1.843-4.753,1.843c-1.682,0-3.164-0.519-4.449-1.555c-1.286-1.035-1.929-2.722-1.929-5.058
		c0-2.188,0.58-3.867,1.74-5.034c1.16-1.168,2.666-1.752,4.519-1.752C112.196,68.743,113.188,68.94,114.068,69.335z M109.127,72.188
		c-0.467,0.48-0.76,1.133-0.88,1.955h5.69c-0.062-0.876-0.354-1.542-0.88-1.996s-1.181-0.681-1.959-0.681
		C110.251,71.467,109.595,71.707,109.127,72.188z"/>
	<path d="M125.355,69.282c0.596,0.336,1.078,0.802,1.449,1.396v-6.027h3.35v17.061h-3.211v-1.75c-0.471,0.75-1.008,1.295-1.61,1.635
		c-0.602,0.34-1.353,0.51-2.249,0.51c-1.476,0-2.718-0.597-3.726-1.791c-1.009-1.194-1.513-2.726-1.513-4.596
		c0-2.156,0.496-3.853,1.488-5.088c0.993-1.236,2.319-1.854,3.981-1.854C124.081,68.777,124.762,68.946,125.355,69.282z
		 M126.167,78.281c0.487-0.695,0.73-1.595,0.73-2.7c0-1.545-0.392-2.649-1.171-3.314c-0.479-0.402-1.035-0.604-1.669-0.604
		c-0.966,0-1.675,0.365-2.127,1.096c-0.451,0.729-0.679,1.636-0.679,2.718c0,1.167,0.229,2.1,0.689,2.799
		c0.46,0.7,1.157,1.049,2.092,1.049C124.971,79.324,125.682,78.977,126.167,78.281z"/>
	<path d="M147.938,64.999c1.198,0.396,2.169,1.117,2.911,2.167c0.596,0.851,1.001,1.771,1.218,2.759
		c0.217,0.988,0.325,1.932,0.325,2.827c0,2.271-0.457,4.195-1.369,5.772c-1.237,2.125-3.147,3.187-5.729,3.187h-7.365V64.628h7.365
		C146.354,64.645,147.234,64.768,147.938,64.999z M141.394,67.596v11.149h3.297c1.687,0,2.863-0.831,3.528-2.492
		c0.363-0.911,0.546-1.996,0.546-3.257c0-1.737-0.272-3.072-0.818-4.004c-0.546-0.931-1.631-1.396-3.256-1.396H141.394z"/>
	<path d="M162.263,69.335c0.881,0.396,1.608,1.019,2.184,1.869c0.518,0.75,0.854,1.621,1.007,2.612
		c0.089,0.581,0.125,1.416,0.108,2.507h-9.201c0.051,1.268,0.491,2.156,1.321,2.666c0.504,0.317,1.11,0.476,1.82,0.476
		c0.752,0,1.362-0.193,1.834-0.58c0.256-0.208,0.483-0.498,0.681-0.869h3.372c-0.09,0.75-0.497,1.511-1.226,2.283
		c-1.133,1.229-2.717,1.843-4.753,1.843c-1.681,0-3.164-0.519-4.449-1.555c-1.285-1.035-1.928-2.722-1.928-5.058
		c0-2.188,0.58-3.867,1.74-5.034c1.16-1.168,2.666-1.752,4.518-1.752C160.392,68.743,161.381,68.94,162.263,69.335z M157.32,72.188
		c-0.467,0.48-0.76,1.133-0.88,1.955h5.689c-0.06-0.876-0.354-1.542-0.88-1.996s-1.18-0.681-1.959-0.681
		C158.444,71.467,157.787,71.707,157.32,72.188z"/>
	<path d="M169.393,77.68c0.068,0.587,0.223,1.004,0.453,1.251c0.412,0.439,1.174,0.661,2.282,0.661c0.651,0,1.17-0.097,1.556-0.29
		c0.385-0.193,0.576-0.483,0.576-0.869c0-0.371-0.154-0.653-0.466-0.847c-0.312-0.192-1.461-0.524-3.455-0.996
		c-1.437-0.355-2.446-0.801-3.034-1.333c-0.586-0.525-0.881-1.283-0.881-2.271c0-1.167,0.459-2.169,1.377-3.008
		c0.916-0.838,2.207-1.257,3.875-1.257c1.577,0,2.865,0.314,3.859,0.943c0.994,0.63,1.564,1.718,1.714,3.264h-3.304
		c-0.047-0.426-0.166-0.762-0.359-1.009c-0.363-0.447-0.982-0.672-1.859-0.672c-0.722,0-1.231,0.112-1.539,0.336
		c-0.308,0.225-0.459,0.487-0.459,0.788c0,0.378,0.162,0.653,0.488,0.823c0.323,0.178,1.475,0.483,3.447,0.916
		c1.314,0.309,2.303,0.776,2.959,1.402c0.648,0.634,0.975,1.426,0.975,2.376c0,1.252-0.468,2.272-1.397,3.064
		c-0.935,0.792-2.375,1.188-4.326,1.188c-1.987,0-3.459-0.419-4.406-1.257c-0.948-0.839-1.424-1.907-1.424-3.205h3.349V77.68z"/>
	<path d="M186.398,73.61c-0.062-0.471-0.222-0.896-0.478-1.275c-0.371-0.51-0.946-0.765-1.729-0.765
		c-1.114,0-1.877,0.552-2.289,1.657c-0.217,0.586-0.324,1.364-0.324,2.335c0,0.925,0.107,1.668,0.324,2.23
		c0.396,1.052,1.14,1.576,2.231,1.576c0.772,0,1.322-0.208,1.647-0.625c0.322-0.417,0.521-0.958,0.593-1.623h3.372
		c-0.077,1.005-0.438,1.955-1.09,2.853c-1.037,1.444-2.572,2.167-4.604,2.167c-2.034,0-3.53-0.604-4.489-1.809
		s-1.438-2.768-1.438-4.688c0-2.167,0.528-3.854,1.589-5.06c1.061-1.205,2.521-1.808,4.387-1.808c1.586,0,2.883,0.356,3.894,1.066
		c1.01,0.711,1.606,1.967,1.793,3.767h-3.388V73.61z"/>
	<path d="M197.725,68.783c0.043,0.004,0.139,0.01,0.283,0.019v3.384c-0.207-0.023-0.395-0.039-0.557-0.046
		c-0.162-0.007-0.294-0.013-0.396-0.013c-1.328,0-2.222,0.434-2.677,1.299c-0.255,0.486-0.383,1.235-0.383,2.248v6.038h-3.326
		V69.079h3.151v2.202c0.511-0.842,0.955-1.417,1.334-1.727c0.617-0.519,1.421-0.777,2.41-0.777
		C197.631,68.777,197.684,68.78,197.725,68.783z"/>
	<path d="M202.609,67.572h-3.35v-3.048h3.35V67.572z M199.26,69.079h3.35v12.633h-3.35V69.079z"/>
	<path d="M214.852,70.436c1.028,1.089,1.545,2.688,1.545,4.798c0,2.225-0.504,3.921-1.51,5.088c-1.009,1.167-2.306,1.75-3.893,1.75
		c-1.012,0-1.852-0.251-2.521-0.753c-0.365-0.278-0.723-0.684-1.072-1.217v6.583h-3.268V69.079h3.162v1.866
		c0.357-0.548,0.739-0.98,1.145-1.298c0.738-0.564,1.617-0.846,2.638-0.846C212.562,68.802,213.82,69.347,214.852,70.436z
		 M212.316,72.812c-0.448-0.75-1.178-1.125-2.185-1.125c-1.212,0-2.041,0.567-2.493,1.704c-0.234,0.603-0.354,1.368-0.354,2.295
		c0,1.468,0.396,2.5,1.183,3.095c0.47,0.348,1.021,0.521,1.661,0.521c0.932,0,1.641-0.355,2.128-1.066
		c0.486-0.711,0.729-1.657,0.729-2.839C212.99,74.423,212.766,73.561,212.316,72.812z"/>
	<path d="M216.305,71.548v-2.354h1.762V65.67h3.271v3.523h2.054v2.354h-2.054v6.676c0,0.518,0.063,0.84,0.197,0.968
		c0.131,0.127,0.53,0.191,1.204,0.191c0.102,0,0.207-0.002,0.316-0.007c0.112-0.004,0.225-0.009,0.332-0.017v2.468l-1.563,0.059
		c-1.562,0.054-2.628-0.217-3.198-0.812c-0.371-0.379-0.559-0.962-0.559-1.75v-7.776L216.305,71.548L216.305,71.548z"/>
	<path d="M228.143,67.572h-3.352v-3.048h3.352V67.572z M224.793,69.079h3.35v12.633h-3.35V69.079z"/>
	<path d="M240.684,80.166c-1.065,1.316-2.688,1.975-4.855,1.975c-2.172,0-3.79-0.658-4.855-1.975
		c-1.064-1.315-1.601-2.9-1.601-4.754c0-1.821,0.532-3.399,1.601-4.735c1.066-1.336,2.687-2.003,4.855-2.003s3.79,0.668,4.855,2.003
		c1.063,1.335,1.6,2.914,1.6,4.735C242.281,77.267,241.748,78.851,240.684,80.166z M238.04,78.342
		c0.519-0.688,0.776-1.663,0.776-2.929c0-1.265-0.26-2.238-0.776-2.922c-0.519-0.683-1.261-1.023-2.226-1.023
		c-0.967,0-1.711,0.342-2.231,1.023c-0.521,0.683-0.782,1.657-0.782,2.922c0,1.267,0.262,2.242,0.782,2.929
		c0.521,0.686,1.267,1.029,2.231,1.029C236.777,79.371,237.521,79.027,238.04,78.342z"/>
	<path d="M253.639,69.804c0.828,0.684,1.24,1.817,1.24,3.401v8.507h-3.384v-7.684c0-0.665-0.088-1.174-0.265-1.53
		c-0.322-0.648-0.938-0.974-1.842-0.974c-1.111,0-1.875,0.475-2.289,1.425c-0.216,0.502-0.322,1.145-0.322,1.924v6.838h-3.303
		V69.102h3.198v1.843c0.423-0.649,0.821-1.116,1.198-1.402c0.679-0.51,1.535-0.765,2.572-0.765
		C251.748,68.777,252.811,69.12,253.639,69.804z"/>
	<path d="M64.835,100.645c-1.065,1.315-2.686,1.975-4.855,1.975s-3.79-0.658-4.856-1.975c-1.065-1.316-1.599-2.9-1.599-4.753
		c0-1.822,0.532-3.4,1.599-4.736c1.067-1.336,2.687-2.003,4.856-2.003s3.79,0.668,4.855,2.003c1.066,1.335,1.601,2.914,1.601,4.736
		C66.435,97.744,65.901,99.328,64.835,100.645z M62.192,98.819c0.518-0.687,0.776-1.663,0.776-2.928c0-1.266-0.26-2.239-0.776-2.922
		c-0.517-0.684-1.26-1.024-2.226-1.024c-0.967,0-1.709,0.342-2.23,1.024c-0.521,0.682-0.783,1.656-0.783,2.922
		s0.263,2.242,0.783,2.928c0.521,0.688,1.265,1.029,2.23,1.029C60.932,99.849,61.676,99.505,62.192,98.819z"/>
	<path d="M72.768,84.95c0.17,0.012,0.4,0.029,0.694,0.052v2.689c-0.186-0.023-0.496-0.041-0.934-0.052
		c-0.437-0.012-0.737,0.085-0.903,0.29c-0.167,0.205-0.249,0.431-0.249,0.678c0,0.248,0,0.603,0,1.066h2.167v2.329h-2.167v10.188
		h-3.279V92.002h-1.854v-2.329h1.809V88.86c0-1.352,0.229-2.283,0.685-2.793c0.478-0.756,1.633-1.134,3.464-1.134
		C72.408,84.934,72.599,84.938,72.768,84.95z"/>
	<path d="M91.551,85.106h5.137v17.083h-3.326V90.636c0-0.332,0.003-0.799,0.011-1.396c0.008-0.597,0.013-1.061,0.013-1.385
		l-3.237,14.337H86.68l-3.217-14.338c0,0.325,0.005,0.787,0.013,1.385c0.008,0.598,0.012,1.064,0.012,1.396v11.555H80.16V85.106
		h5.194l3.108,13.433L91.551,85.106z"/>
	<path d="M105.719,89.262c0.042,0.004,0.137,0.01,0.283,0.018v3.384c-0.209-0.022-0.395-0.039-0.557-0.046
		c-0.162-0.007-0.294-0.012-0.395-0.012c-1.329,0-2.222,0.433-2.678,1.298c-0.255,0.487-0.383,1.236-0.383,2.248v6.039h-3.326
		V89.558h3.152v2.202c0.51-0.843,0.954-1.417,1.333-1.728c0.618-0.518,1.422-0.776,2.411-0.776
		C105.623,89.255,105.676,89.259,105.719,89.262z"/>
	<path d="M104.58,98.726h3.513v3.465h-3.513V98.726z"/>
	<path d="M127.337,85.106h5.138v17.083h-3.326V90.636c0-0.332,0.004-0.799,0.012-1.396c0.007-0.599,0.012-1.061,0.012-1.385
		l-3.236,14.337h-3.47l-3.215-14.337c0,0.325,0.004,0.787,0.013,1.385c0.007,0.599,0.011,1.064,0.011,1.396v11.555h-3.326V85.106
		h5.194l3.109,13.433L127.337,85.106z"/>
	<path d="M139.642,94.507c0.615-0.077,1.055-0.175,1.318-0.29c0.476-0.201,0.712-0.515,0.712-0.939c0-0.518-0.182-0.875-0.546-1.072
		c-0.363-0.196-0.897-0.295-1.604-0.295c-0.791,0-1.353,0.193-1.68,0.58c-0.235,0.286-0.394,0.672-0.472,1.159h-3.187
		c0.068-1.104,0.38-2.012,0.931-2.724c0.877-1.112,2.383-1.669,4.518-1.669c1.389,0,2.622,0.273,3.7,0.822
		c1.079,0.548,1.618,1.584,1.618,3.106v5.795c0,0.402,0.008,0.888,0.023,1.46c0.022,0.433,0.089,0.727,0.196,0.881
		c0.107,0.154,0.271,0.282,0.486,0.383v0.486h-3.593c-0.102-0.255-0.17-0.494-0.209-0.719c-0.038-0.225-0.069-0.479-0.093-0.766
		c-0.458,0.494-0.987,0.915-1.585,1.265c-0.716,0.408-1.523,0.613-2.426,0.613c-1.149,0-2.101-0.326-2.851-0.979
		s-1.125-1.578-1.125-2.776c0-1.553,0.604-2.678,1.81-3.373c0.662-0.378,1.636-0.648,2.919-0.811L139.642,94.507z M141.66,96.048
		c-0.211,0.131-0.425,0.236-0.64,0.318c-0.216,0.081-0.512,0.156-0.888,0.227l-0.753,0.139c-0.703,0.124-1.211,0.273-1.518,0.452
		c-0.521,0.301-0.78,0.769-0.78,1.401c0,0.564,0.158,0.973,0.478,1.224c0.316,0.251,0.704,0.377,1.159,0.377
		c0.722,0,1.387-0.209,1.993-0.626c0.608-0.417,0.925-1.178,0.947-2.283L141.66,96.048L141.66,96.048z"/>
	<path d="M157.367,90.913c1.03,1.089,1.546,2.689,1.546,4.798c0,2.226-0.504,3.922-1.511,5.089c-1.007,1.167-2.304,1.75-3.891,1.75
		c-1.012,0-1.852-0.251-2.521-0.755c-0.365-0.276-0.723-0.684-1.073-1.217v6.583h-3.268V89.558h3.163v1.866
		c0.357-0.549,0.739-0.981,1.144-1.299c0.738-0.563,1.617-0.846,2.637-0.846C155.079,89.279,156.337,89.824,157.367,90.913z
		 M154.832,93.289c-0.447-0.75-1.177-1.125-2.184-1.125c-1.21,0-2.041,0.568-2.494,1.704c-0.234,0.604-0.351,1.368-0.351,2.295
		c0,1.469,0.394,2.5,1.182,3.096c0.468,0.348,1.022,0.521,1.662,0.521c0.93,0,1.638-0.354,2.126-1.067
		c0.488-0.711,0.731-1.656,0.731-2.839C155.506,94.9,155.281,94.038,154.832,93.289z"/>
	<path d="M162.646,98.157c0.069,0.587,0.222,1.004,0.453,1.252c0.412,0.439,1.174,0.66,2.282,0.66c0.651,0,1.171-0.096,1.556-0.289
		c0.385-0.193,0.576-0.482,0.576-0.87c0-0.371-0.156-0.652-0.465-0.846c-0.311-0.193-1.462-0.525-3.456-0.997
		c-1.436-0.355-2.446-0.8-3.032-1.333c-0.587-0.525-0.881-1.283-0.881-2.271c0-1.167,0.459-2.169,1.375-3.008
		c0.918-0.838,2.209-1.257,3.875-1.257c1.578,0,2.865,0.315,3.859,0.944c0.995,0.63,1.566,1.717,1.714,3.263h-3.304
		c-0.047-0.425-0.166-0.761-0.359-1.008c-0.363-0.448-0.982-0.672-1.859-0.672c-0.722,0-1.232,0.111-1.539,0.336
		c-0.308,0.224-0.459,0.487-0.459,0.788c0,0.378,0.162,0.652,0.488,0.823c0.323,0.178,1.475,0.482,3.447,0.915
		c1.314,0.31,2.303,0.776,2.959,1.402c0.648,0.634,0.975,1.426,0.975,2.376c0,1.252-0.467,2.274-1.397,3.066
		c-0.937,0.792-2.375,1.188-4.326,1.188c-1.989,0-3.459-0.419-4.405-1.258c-0.949-0.838-1.424-1.906-1.424-3.204H162.646
		L162.646,98.157z"/>
	<path d="M94.402,114.766h18.069v2.524H94.402V114.766z"/>
	<path d="M125.893,105.584v3.025h-5.111v14.059h-3.593v-14.059h-5.135v-3.025H125.893z"/>
	<path d="M135.937,110.105c0.635,0.271,1.156,0.685,1.563,1.241c0.347,0.473,0.558,0.959,0.634,1.456
		c0.077,0.499,0.116,1.312,0.116,2.442v7.423h-3.373v-7.69c0-0.683-0.114-1.23-0.346-1.648c-0.299-0.587-0.867-0.883-1.703-0.883
		c-0.865,0-1.522,0.293-1.973,0.878c-0.449,0.584-0.672,1.417-0.672,2.5v6.847h-3.305v-17.026h3.305v6.025
		c0.477-0.731,1.026-1.245,1.653-1.534c0.627-0.29,1.287-0.436,1.98-0.436C134.598,109.7,135.303,109.834,135.937,110.105z"/>
	<path d="M148.486,110.291c0.881,0.396,1.609,1.02,2.184,1.869c0.518,0.75,0.854,1.621,1.007,2.611
		c0.089,0.58,0.125,1.416,0.108,2.506h-9.201c0.052,1.27,0.491,2.156,1.321,2.666c0.504,0.317,1.111,0.477,1.821,0.477
		c0.752,0,1.362-0.191,1.834-0.578c0.256-0.208,0.482-0.498,0.68-0.869h3.372c-0.089,0.75-0.497,1.512-1.225,2.281
		c-1.133,1.229-2.717,1.846-4.753,1.846c-1.682,0-3.164-0.52-4.449-1.557c-1.285-1.035-1.929-2.723-1.929-5.059
		c0-2.188,0.58-3.866,1.74-5.034c1.16-1.167,2.666-1.751,4.519-1.751C146.615,109.7,147.605,109.897,148.486,110.291z
		 M143.545,113.146c-0.467,0.479-0.76,1.133-0.88,1.955h5.69c-0.061-0.877-0.354-1.543-0.88-1.996
		c-0.526-0.455-1.181-0.682-1.959-0.682C144.669,112.424,144.013,112.663,143.545,113.146z"/>
	<path d="M170.02,107.405c0.521,0.728,0.783,1.596,0.783,2.607c0,1.042-0.265,1.882-0.791,2.515
		c-0.295,0.354-0.729,0.681-1.304,0.974c0.872,0.317,1.528,0.819,1.976,1.508c0.441,0.688,0.664,1.521,0.664,2.505
		c0,1.012-0.252,1.92-0.762,2.723c-0.32,0.533-0.727,0.981-1.21,1.345c-0.545,0.418-1.188,0.703-1.931,0.858
		c-0.74,0.153-1.547,0.23-2.413,0.23h-7.697v-17.086h8.256C167.676,105.616,169.15,106.223,170.02,107.405z M160.744,108.553v3.767
		h4.15c0.742,0,1.346-0.141,1.809-0.424c0.462-0.281,0.693-0.781,0.693-1.5c0-0.796-0.308-1.321-0.918-1.576
		c-0.527-0.178-1.201-0.267-2.021-0.267H160.744z M160.744,115.146v4.557h4.146c0.74,0,1.316-0.102,1.729-0.303
		c0.748-0.371,1.122-1.082,1.122-2.133c0-0.889-0.362-1.498-1.088-1.832c-0.405-0.186-0.975-0.281-1.707-0.289H160.744z"/>
	<path d="M183.508,121.123c-1.066,1.314-2.688,1.975-4.857,1.975c-2.172,0-3.787-0.658-4.854-1.975c-1.064-1.314-1.6-2.9-1.6-4.753
		c0-1.822,0.531-3.399,1.6-4.736c1.068-1.336,2.688-2.005,4.854-2.005c2.174,0,3.791,0.669,4.857,2.005
		c1.064,1.337,1.598,2.914,1.598,4.736C185.105,118.223,184.572,119.809,183.508,121.123z M180.863,119.298
		c0.52-0.688,0.777-1.662,0.777-2.928c0-1.267-0.262-2.24-0.777-2.925c-0.518-0.682-1.26-1.021-2.225-1.021
		c-0.969,0-1.712,0.342-2.231,1.021c-0.521,0.685-0.782,1.658-0.782,2.925c0,1.266,0.262,2.239,0.782,2.928
		c0.521,0.687,1.267,1.03,2.231,1.03C179.602,120.328,180.346,119.984,180.863,119.298z"/>
	<path d="M197.176,121.123c-1.064,1.314-2.686,1.975-4.854,1.975c-2.174,0-3.79-0.658-4.856-1.975c-1.063-1.314-1.6-2.9-1.6-4.753
		c0-1.822,0.53-3.399,1.6-4.736c1.069-1.336,2.687-2.005,4.856-2.005s3.789,0.669,4.854,2.005c1.065,1.337,1.602,2.914,1.602,4.736
		C198.773,118.223,198.241,119.809,197.176,121.123z M194.533,119.298c0.518-0.688,0.775-1.662,0.775-2.928
		c0-1.267-0.259-2.24-0.775-2.925c-0.52-0.682-1.26-1.021-2.227-1.021c-0.966,0-1.709,0.342-2.23,1.021
		c-0.521,0.685-0.782,1.658-0.782,2.925c0,1.266,0.261,2.239,0.782,2.928c0.521,0.687,1.266,1.03,2.23,1.03
		C193.27,120.328,194.016,119.984,194.533,119.298z"/>
	<path d="M199.934,105.644h3.244v9.215l4.166-4.766h4.106l-4.526,4.706l4.702,7.868h-4.021l-3.062-5.396l-1.365,1.422v3.978h-3.246
		v-17.026L199.934,105.644L199.934,105.644z"/>
	<path d="M214.323,118.636c0.069,0.587,0.222,1.005,0.454,1.253c0.412,0.439,1.173,0.659,2.283,0.659c0.648,0,1.17-0.097,1.555-0.29
		c0.384-0.191,0.576-0.482,0.576-0.869c0-0.369-0.155-0.652-0.465-0.846c-0.312-0.193-1.461-0.525-3.455-0.999
		c-1.438-0.354-2.447-0.799-3.035-1.332c-0.586-0.524-0.881-1.282-0.881-2.271c0-1.166,0.459-2.17,1.377-3.008
		c0.918-0.838,2.209-1.258,3.873-1.258c1.58,0,2.867,0.313,3.86,0.943c0.994,0.63,1.565,1.718,1.716,3.264h-3.307
		c-0.046-0.426-0.166-0.762-0.357-1.01c-0.363-0.446-0.983-0.672-1.859-0.672c-0.721,0-1.232,0.111-1.539,0.336
		c-0.307,0.227-0.46,0.486-0.46,0.788c0,0.379,0.163,0.653,0.487,0.823c0.326,0.178,1.477,0.482,3.449,0.916
		c1.313,0.31,2.303,0.775,2.959,1.401c0.647,0.634,0.975,1.425,0.975,2.376c0,1.251-0.467,2.271-1.399,3.062
		c-0.935,0.794-2.375,1.188-4.325,1.188c-1.99,0-3.459-0.419-4.408-1.259c-0.945-0.838-1.422-1.904-1.422-3.203L214.323,118.636
		L214.323,118.636z"/>
	<path d="M44.777,126.062v3.024h-5.11v14.06h-3.594v-14.06h-5.134v-3.024H44.777z"/>
	<path d="M50.677,130.771c0.881,0.396,1.607,1.019,2.183,1.869c0.518,0.75,0.854,1.62,1.007,2.609
		c0.089,0.58,0.125,1.416,0.108,2.508h-9.2c0.051,1.268,0.491,2.156,1.32,2.666c0.505,0.316,1.111,0.477,1.82,0.477
		c0.753,0,1.364-0.192,1.835-0.58c0.256-0.209,0.482-0.497,0.681-0.868h3.372c-0.09,0.75-0.497,1.51-1.226,2.282
		c-1.132,1.229-2.716,1.843-4.753,1.843c-1.681,0-3.164-0.519-4.449-1.556c-1.286-1.035-1.928-2.722-1.928-5.058
		c0-2.188,0.58-3.866,1.74-5.034c1.16-1.166,2.666-1.75,4.518-1.75C48.805,130.18,49.795,130.375,50.677,130.771z M45.734,133.623
		c-0.467,0.479-0.76,1.134-0.88,1.955h5.689c-0.061-0.877-0.354-1.541-0.88-1.996c-0.525-0.453-1.18-0.682-1.959-0.682
		C46.858,132.902,46.201,133.143,45.734,133.623z"/>
	<path d="M70.434,130.561c0.54,0.217,1.03,0.597,1.472,1.138c0.355,0.438,0.595,0.979,0.719,1.622
		c0.077,0.425,0.116,1.048,0.116,1.865l-0.022,7.963h-3.386v-8.043c0-0.479-0.077-0.873-0.23-1.184
		c-0.294-0.588-0.835-0.881-1.623-0.881c-0.911,0-1.541,0.379-1.89,1.136c-0.178,0.401-0.267,0.886-0.267,1.448v7.521h-3.326v-7.521
		c0-0.75-0.077-1.295-0.231-1.635c-0.277-0.609-0.822-0.914-1.635-0.914c-0.941,0-1.575,0.305-1.899,0.914
		c-0.178,0.348-0.268,0.863-0.268,1.555v7.604h-3.35V130.54h3.21v1.844c0.41-0.657,0.796-1.125,1.159-1.401
		c0.642-0.496,1.472-0.74,2.492-0.74c0.966,0,1.746,0.213,2.341,0.637c0.479,0.395,0.842,0.898,1.09,1.52
		c0.433-0.741,0.97-1.287,1.61-1.635c0.681-0.348,1.438-0.521,2.271-0.521C69.345,130.236,69.893,130.346,70.434,130.561z"/>
	<path d="M84.524,131.871c1.031,1.09,1.546,2.688,1.546,4.799c0,2.227-0.504,3.922-1.511,5.089c-1.007,1.167-2.305,1.75-3.891,1.75
		c-1.012,0-1.852-0.251-2.521-0.755c-0.365-0.275-0.723-0.686-1.072-1.217v6.582h-3.269v-17.604h3.164v1.865
		c0.356-0.55,0.737-0.98,1.143-1.3c0.739-0.562,1.617-0.847,2.637-0.847C82.236,130.236,83.494,130.781,84.524,131.871z
		 M81.99,134.246c-0.449-0.75-1.177-1.125-2.185-1.125c-1.21,0-2.041,0.566-2.493,1.705c-0.234,0.604-0.353,1.365-0.353,2.295
		c0,1.467,0.395,2.498,1.183,3.094c0.468,0.348,1.021,0.521,1.663,0.521c0.929,0,1.638-0.354,2.125-1.065
		c0.487-0.711,0.731-1.655,0.731-2.84C82.663,135.857,82.438,134.996,81.99,134.246z"/>
	<path d="M97.877,141.602c-1.065,1.316-2.686,1.976-4.855,1.976s-3.79-0.658-4.856-1.976c-1.065-1.313-1.599-2.899-1.599-4.752
		c0-1.822,0.532-3.399,1.599-4.735c1.067-1.337,2.687-2.005,4.856-2.005s3.79,0.668,4.855,2.005
		c1.066,1.336,1.601,2.913,1.601,4.735C99.477,138.701,98.943,140.287,97.877,141.602z M95.234,139.775
		c0.518-0.687,0.776-1.66,0.776-2.928c0-1.267-0.26-2.238-0.776-2.923c-0.518-0.684-1.26-1.022-2.226-1.022
		c-0.967,0-1.709,0.342-2.23,1.022c-0.521,0.685-0.783,1.656-0.783,2.923c0,1.268,0.263,2.241,0.783,2.928
		c0.521,0.688,1.265,1.031,2.23,1.031C93.974,140.807,94.718,140.463,95.234,139.775z"/>
	<path d="M107.03,130.219c0.043,0.004,0.138,0.01,0.284,0.018v3.386c-0.209-0.021-0.395-0.039-0.557-0.047
		c-0.162-0.009-0.294-0.013-0.395-0.013c-1.329,0-2.222,0.435-2.678,1.299c-0.255,0.486-0.382,1.236-0.382,2.248v6.039h-3.326
		v-12.633h3.151v2.201c0.511-0.844,0.954-1.418,1.333-1.729c0.617-0.52,1.422-0.775,2.41-0.775
		C106.936,130.213,106.988,130.215,107.03,130.219z"/>
	<path d="M113.424,135.463c0.613-0.077,1.055-0.174,1.318-0.289c0.476-0.201,0.712-0.514,0.712-0.939
		c0-0.518-0.182-0.875-0.546-1.069c-0.364-0.196-0.898-0.297-1.604-0.297c-0.791,0-1.353,0.192-1.682,0.58
		c-0.233,0.284-0.392,0.672-0.47,1.157h-3.188c0.069-1.104,0.381-2.013,0.932-2.724c0.877-1.112,2.382-1.669,4.517-1.669
		c1.39,0,2.622,0.271,3.701,0.822c1.079,0.549,1.618,1.584,1.618,3.105v5.795c0,0.399,0.008,0.889,0.022,1.459
		c0.022,0.436,0.089,0.729,0.196,0.881c0.108,0.154,0.271,0.283,0.487,0.385v0.484h-3.593c-0.102-0.254-0.17-0.494-0.209-0.719
		c-0.039-0.226-0.069-0.479-0.094-0.767c-0.458,0.493-0.986,0.916-1.585,1.266c-0.716,0.408-1.522,0.613-2.425,0.613
		c-1.149,0-2.101-0.326-2.851-0.979c-0.75-0.652-1.125-1.578-1.125-2.774c0-1.554,0.604-2.679,1.81-3.371
		c0.662-0.379,1.635-0.649,2.919-0.812L113.424,135.463z M115.442,137.004c-0.212,0.133-0.425,0.238-0.641,0.318
		c-0.216,0.08-0.512,0.156-0.888,0.228l-0.752,0.14c-0.705,0.123-1.211,0.273-1.519,0.451c-0.521,0.303-0.78,0.771-0.78,1.402
		c0,0.562,0.159,0.973,0.478,1.223c0.317,0.252,0.703,0.377,1.158,0.377c0.724,0,1.388-0.209,1.995-0.625
		c0.608-0.418,0.924-1.18,0.947-2.283L115.442,137.004L115.442,137.004z"/>
	<path d="M126.857,130.219c0.043,0.004,0.138,0.01,0.284,0.018v3.386c-0.209-0.021-0.395-0.039-0.558-0.047
		c-0.162-0.009-0.293-0.013-0.394-0.013c-1.329,0-2.222,0.435-2.678,1.299c-0.255,0.486-0.383,1.236-0.383,2.248v6.039h-3.325
		v-12.633h3.151v2.201c0.511-0.844,0.954-1.418,1.333-1.729c0.617-0.52,1.421-0.775,2.41-0.775
		C126.764,130.213,126.815,130.215,126.857,130.219z"/>
	<path d="M129.719,145.568l0.417,0.023c0.323,0.016,0.634,0.004,0.927-0.033c0.294-0.039,0.541-0.129,0.742-0.269
		c0.192-0.131,0.373-0.405,0.539-0.822c0.166-0.417,0.236-0.672,0.215-0.766l-4.644-13.188h3.674l2.76,9.317l2.606-9.317h3.513
		l-4.331,12.424c-0.837,2.396-1.499,3.881-1.986,4.457c-0.487,0.575-1.462,0.863-2.924,0.863c-0.294,0-0.529-0.002-0.707-0.007
		c-0.179-0.004-0.445-0.019-0.801-0.041L129.719,145.568L129.719,145.568z"/>
	<path d="M157.666,126.504c0.629,0.271,1.162,0.669,1.601,1.193c0.36,0.434,0.646,0.91,0.857,1.438
		c0.211,0.525,0.316,1.124,0.316,1.797c0,0.812-0.205,1.607-0.614,2.396c-0.409,0.782-1.086,1.338-2.027,1.662
		c0.787,0.315,1.347,0.768,1.675,1.352c0.328,0.583,0.493,1.474,0.493,2.671v1.147c0,0.778,0.03,1.31,0.094,1.588
		c0.094,0.438,0.312,0.765,0.66,0.974v0.43h-3.941c-0.108-0.379-0.186-0.685-0.231-0.916c-0.093-0.479-0.144-0.969-0.15-1.473
		l-0.022-1.588c-0.016-1.089-0.203-1.814-0.564-2.179s-1.039-0.545-2.033-0.545h-3.486v6.696h-3.488v-17.082h8.172
		C156.14,126.086,157.037,126.234,157.666,126.504z M150.288,129.031v4.59h3.842c0.764,0,1.336-0.092,1.718-0.275
		c0.675-0.326,1.013-0.969,1.013-1.926c0-1.035-0.327-1.73-0.979-2.088c-0.366-0.198-0.917-0.301-1.65-0.301H150.288z"/>
	<path d="M170.561,130.771c0.881,0.396,1.608,1.019,2.186,1.869c0.518,0.75,0.854,1.62,1.006,2.609
		c0.089,0.58,0.125,1.416,0.107,2.508h-9.199c0.051,1.268,0.49,2.156,1.32,2.666c0.504,0.316,1.111,0.477,1.82,0.477
		c0.752,0,1.363-0.192,1.834-0.58c0.256-0.209,0.482-0.497,0.68-0.868h3.373c-0.09,0.75-0.498,1.51-1.227,2.282
		c-1.132,1.229-2.716,1.843-4.753,1.843c-1.681,0-3.164-0.519-4.449-1.556c-1.284-1.035-1.928-2.722-1.928-5.058
		c0-2.188,0.58-3.866,1.739-5.034c1.16-1.166,2.666-1.75,4.519-1.75C168.689,130.18,169.682,130.375,170.561,130.771z
		 M165.62,133.623c-0.468,0.479-0.761,1.134-0.88,1.955h5.689c-0.062-0.877-0.354-1.541-0.88-1.996
		c-0.526-0.453-1.182-0.682-1.959-0.682C166.744,132.902,166.087,133.143,165.62,133.623z"/>
	<path d="M177.848,139.115c0.07,0.586,0.223,1.004,0.455,1.252c0.412,0.439,1.173,0.658,2.283,0.658c0.648,0,1.17-0.096,1.555-0.289
		c0.384-0.191,0.576-0.482,0.576-0.869c0-0.369-0.155-0.65-0.465-0.846c-0.312-0.193-1.461-0.525-3.455-0.998
		c-1.438-0.354-2.447-0.799-3.035-1.332c-0.586-0.523-0.881-1.281-0.881-2.271c0-1.164,0.459-2.168,1.377-3.006
		c0.918-0.84,2.209-1.258,3.873-1.258c1.58,0,2.867,0.312,3.859,0.943c0.995,0.629,1.566,1.717,1.717,3.264H182.4
		c-0.046-0.426-0.166-0.762-0.357-1.01c-0.363-0.447-0.983-0.672-1.859-0.672c-0.721,0-1.232,0.11-1.539,0.336
		c-0.307,0.225-0.46,0.485-0.46,0.787c0,0.379,0.163,0.653,0.487,0.823c0.326,0.179,1.477,0.481,3.448,0.916
		c1.314,0.31,2.304,0.774,2.96,1.402c0.647,0.633,0.975,1.424,0.975,2.375c0,1.252-0.467,2.271-1.399,3.063
		c-0.935,0.793-2.375,1.188-4.325,1.188c-1.99,0-3.459-0.421-4.408-1.259c-0.945-0.838-1.422-1.905-1.422-3.205h3.351
		L177.848,139.115L177.848,139.115z"/>
	<path d="M190.094,129.008h-3.35v-3.049h3.35V129.008z M186.744,130.516h3.35v12.633h-3.35V130.516z"/>
	<path d="M198.855,130.717c0.596,0.338,1.078,0.803,1.449,1.396v-6.027h3.35v17.062h-3.211v-1.75
		c-0.471,0.748-1.008,1.293-1.61,1.634c-0.603,0.34-1.353,0.512-2.248,0.512c-1.476,0-2.718-0.599-3.728-1.791
		c-1.008-1.192-1.512-2.728-1.512-4.596c0-2.156,0.495-3.853,1.487-5.089c0.992-1.235,2.319-1.854,3.979-1.854
		C197.582,130.213,198.262,130.381,198.855,130.717z M199.668,139.717c0.486-0.695,0.73-1.596,0.73-2.699
		c0-1.547-0.392-2.649-1.172-3.313c-0.479-0.401-1.035-0.604-1.668-0.604c-0.968,0-1.677,0.363-2.127,1.099
		c-0.453,0.729-0.681,1.635-0.681,2.717c0,1.168,0.229,2.101,0.688,2.799c0.461,0.699,1.158,1.05,2.094,1.05
		S199.182,140.412,199.668,139.717z"/>
	<path d="M213.887,130.771c0.881,0.396,1.609,1.019,2.187,1.869c0.517,0.75,0.854,1.62,1.006,2.609
		c0.089,0.58,0.125,1.416,0.106,2.508h-9.199c0.052,1.268,0.49,2.156,1.32,2.666c0.504,0.316,1.11,0.477,1.82,0.477
		c0.752,0,1.363-0.192,1.834-0.58c0.256-0.209,0.482-0.497,0.68-0.868h3.373c-0.09,0.75-0.498,1.51-1.226,2.282
		c-1.132,1.229-2.716,1.843-4.753,1.843c-1.682,0-3.164-0.519-4.449-1.556c-1.285-1.035-1.928-2.722-1.928-5.058
		c0-2.188,0.58-3.866,1.74-5.034c1.16-1.166,2.666-1.75,4.518-1.75C212.016,130.18,213.006,130.375,213.887,130.771z
		 M208.945,133.623c-0.467,0.479-0.76,1.134-0.881,1.955h5.688c-0.06-0.877-0.354-1.541-0.88-1.996
		c-0.523-0.453-1.18-0.682-1.959-0.682C210.068,132.902,209.412,133.143,208.945,133.623z"/>
	<path d="M228.207,131.24c0.827,0.685,1.24,1.816,1.24,3.4v8.506h-3.385v-7.685c0-0.664-0.088-1.174-0.265-1.528
		c-0.321-0.648-0.938-0.976-1.843-0.976c-1.109,0-1.875,0.478-2.29,1.427c-0.214,0.502-0.319,1.145-0.319,1.924v6.838h-3.306
		v-12.607h3.199v1.844c0.423-0.648,0.821-1.117,1.198-1.402c0.679-0.511,1.535-0.768,2.572-0.768
		C226.316,130.213,227.38,130.555,228.207,131.24z"/>
	<path d="M238.893,135.045c-0.062-0.471-0.222-0.896-0.477-1.273c-0.372-0.51-0.947-0.766-1.73-0.766
		c-1.113,0-1.877,0.553-2.289,1.658c-0.217,0.584-0.323,1.361-0.323,2.334c0,0.926,0.106,1.67,0.323,2.23
		c0.396,1.053,1.141,1.576,2.23,1.576c0.773,0,1.324-0.209,1.648-0.627c0.324-0.417,0.521-0.957,0.594-1.623h3.372
		c-0.077,1.006-0.438,1.955-1.091,2.854c-1.037,1.443-2.571,2.168-4.605,2.168c-2.033,0-3.529-0.604-4.488-1.811
		c-0.959-1.205-1.438-2.771-1.438-4.688c0-2.168,0.527-3.854,1.589-5.061c1.062-1.205,2.521-1.81,4.387-1.81
		c1.587,0,2.884,0.354,3.894,1.065s1.606,1.968,1.793,3.769h-3.387v0.003H238.893z"/>
	<path d="M251.764,130.771c0.881,0.396,1.609,1.019,2.187,1.869c0.518,0.75,0.854,1.62,1.006,2.609
		c0.089,0.58,0.125,1.416,0.106,2.508h-9.199c0.052,1.268,0.49,2.156,1.32,2.666c0.504,0.316,1.11,0.477,1.82,0.477
		c0.752,0,1.363-0.192,1.834-0.58c0.256-0.209,0.482-0.497,0.68-0.868h3.373c-0.09,0.75-0.498,1.51-1.226,2.282
		c-1.132,1.229-2.716,1.843-4.753,1.843c-1.682,0-3.164-0.519-4.449-1.556c-1.285-1.035-1.928-2.722-1.928-5.058
		c0-2.188,0.58-3.866,1.74-5.034c1.16-1.166,2.666-1.75,4.518-1.75C249.893,130.18,250.883,130.375,251.764,130.771z
		 M246.822,133.623c-0.467,0.479-0.76,1.134-0.881,1.955h5.69c-0.062-0.877-0.354-1.541-0.882-1.996
		c-0.523-0.453-1.18-0.682-1.959-0.682C247.945,132.902,247.289,133.143,246.822,133.623z"/>
	<path d="M261.505,126.062h3.57v14.014h8.53v3.07h-12.104L261.505,126.062L261.505,126.062z"/>
	<path d="M272.915,132.982v-2.354h1.763v-3.521h3.271v3.521H280v2.354h-2.052v6.678c0,0.52,0.063,0.84,0.194,0.967
		s0.533,0.191,1.205,0.191c0.104,0,0.207-0.002,0.318-0.006s0.223-0.011,0.331-0.019v2.47l-1.565,0.059
		c-1.561,0.053-2.627-0.217-3.195-0.812c-0.371-0.378-0.559-0.963-0.559-1.75v-7.775L272.915,132.982L272.915,132.982z"/>
	<path d="M287.523,130.717c0.595,0.338,1.078,0.803,1.449,1.396v-6.027h3.35v17.062h-3.211v-1.75
		c-0.473,0.748-1.008,1.293-1.611,1.634c-0.604,0.34-1.352,0.512-2.248,0.512c-1.477,0-2.718-0.599-3.727-1.791
		c-1.008-1.192-1.512-2.728-1.512-4.596c0-2.156,0.496-3.853,1.486-5.089c0.992-1.235,2.318-1.854,3.979-1.854
		C286.249,130.213,286.93,130.381,287.523,130.717z M288.335,139.717c0.485-0.695,0.729-1.596,0.729-2.699
		c0-1.547-0.392-2.649-1.17-3.313c-0.479-0.401-1.035-0.604-1.67-0.604c-0.966,0-1.675,0.363-2.127,1.099
		c-0.451,0.729-0.68,1.635-0.68,2.717c0,1.168,0.229,2.101,0.688,2.799c0.461,0.699,1.156,1.05,2.094,1.05
		C287.136,140.764,287.85,140.412,288.335,139.717z"/>
	<path d="M294.199,139.682h3.512v3.467h-3.512V139.682z"/>
	<path d="M54.509,146.541h3.741l6.782,11.912v-11.912h3.326v17.084h-3.569l-6.955-12.121v12.121h-3.325V146.541L54.509,146.541z"/>
	<path d="M78.812,151.248c0.881,0.396,1.607,1.02,2.183,1.869c0.519,0.75,0.854,1.621,1.007,2.609
		c0.09,0.58,0.125,1.416,0.108,2.508h-9.2c0.051,1.27,0.491,2.156,1.32,2.666c0.505,0.316,1.112,0.477,1.821,0.477
		c0.753,0,1.363-0.191,1.835-0.579c0.256-0.208,0.481-0.498,0.68-0.868h3.372c-0.089,0.75-0.497,1.51-1.226,2.281
		c-1.132,1.229-2.716,1.844-4.753,1.844c-1.681,0-3.164-0.518-4.448-1.555c-1.286-1.037-1.929-2.725-1.929-5.061
		c0-2.188,0.58-3.863,1.74-5.031c1.16-1.168,2.666-1.752,4.519-1.752C76.939,150.658,77.932,150.854,78.812,151.248z M73.87,154.104
		c-0.467,0.479-0.76,1.133-0.88,1.955h5.69c-0.062-0.877-0.354-1.543-0.88-1.996c-0.526-0.455-1.181-0.682-1.959-0.682
		C74.994,153.381,74.337,153.621,73.87,154.104z"/>
	<path d="M89.289,150.994h3.35l1.924,9.099l1.972-9.099h3.441l-3.663,12.633h-3.396l-1.981-9.201l-2.006,9.201H85.5l-3.547-12.633
		H85.5l1.97,9.062L89.289,150.994z"/>
	<path d="M115.711,146.541h4.045l-5.714,10.68v6.404h-3.569v-6.404l-5.91-10.68h4.207l3.546,7.439L115.711,146.541z"/>
	<path d="M128.409,162.08c-1.065,1.314-2.686,1.975-4.855,1.975c-2.169,0-3.79-0.658-4.856-1.975
		c-1.066-1.314-1.599-2.9-1.599-4.754c0-1.822,0.531-3.399,1.599-4.735c1.067-1.337,2.687-2.005,4.856-2.005
		c2.169,0,3.79,0.668,4.855,2.005c1.065,1.336,1.6,2.913,1.6,4.735C130.009,159.18,129.475,160.766,128.409,162.08z
		 M125.767,160.254c0.518-0.688,0.775-1.661,0.775-2.928c0-1.268-0.259-2.238-0.775-2.922c-0.519-0.686-1.261-1.023-2.227-1.023
		s-1.709,0.342-2.229,1.023c-0.521,0.684-0.783,1.654-0.783,2.922c0,1.267,0.262,2.24,0.783,2.928s1.265,1.031,2.229,1.031
		S125.249,160.941,125.767,160.254z"/>
	<path d="M137.562,150.697c0.042,0.004,0.137,0.01,0.283,0.02v3.385c-0.208-0.021-0.395-0.039-0.557-0.047
		c-0.162-0.01-0.294-0.014-0.395-0.014c-1.329,0-2.223,0.436-2.677,1.3c-0.256,0.485-0.384,1.235-0.384,2.249v6.037h-3.325v-12.633
		h3.151v2.201c0.51-0.844,0.954-1.418,1.333-1.729c0.618-0.519,1.421-0.775,2.41-0.775
		C137.469,150.691,137.52,150.693,137.562,150.697z"/>
	<path d="M138.75,146.602h3.245v9.215l4.166-4.766h4.107l-4.527,4.706l4.703,7.868h-4.021l-3.062-5.396l-1.368,1.422v3.978h-3.245
		L138.75,146.602L138.75,146.602z"/>
	<path d="M158.391,148.328c1.376-1.405,3.126-2.107,5.251-2.107c2.844,0,4.922,0.941,6.236,2.827c0.727,1.06,1.116,2.12,1.17,3.188
		h-3.57c-0.227-0.817-0.519-1.438-0.873-1.854c-0.637-0.741-1.578-1.112-2.826-1.112c-1.271,0-2.274,0.521-3.01,1.569
		c-0.734,1.048-1.103,2.528-1.103,4.444s0.389,3.354,1.162,4.305c0.774,0.955,1.76,1.434,2.953,1.434
		c1.225,0,2.157-0.41,2.801-1.229c0.354-0.439,0.649-1.104,0.886-1.98h3.545c-0.307,1.861-1.086,3.377-2.346,4.543
		c-1.258,1.166-2.868,1.75-4.833,1.75c-2.431,0-4.342-0.787-5.731-2.362c-1.393-1.584-2.087-3.757-2.087-6.515
		C156.017,152.242,156.809,149.941,158.391,148.328z"/>
	<path d="M175.75,149.486h-3.35v-3.049h3.35V149.486z M172.4,150.994h3.35v12.633h-3.35V150.994z"/>
	<path d="M176.273,153.461v-2.354h1.762v-3.521h3.27v3.521h2.051v2.354h-2.051v6.678c0,0.519,0.064,0.84,0.196,0.967
		s0.533,0.191,1.205,0.191c0.101,0,0.207-0.002,0.317-0.006c0.113-0.004,0.224-0.01,0.332-0.02v2.471l-1.565,0.058
		c-1.562,0.054-2.627-0.216-3.198-0.812c-0.371-0.381-0.557-0.965-0.557-1.75v-7.777H176.273L176.273,153.461z"/>
	<path d="M185.547,166.047l0.417,0.023c0.324,0.016,0.634,0.004,0.927-0.033c0.295-0.039,0.541-0.129,0.742-0.27
		c0.193-0.132,0.373-0.404,0.539-0.82c0.166-0.418,0.237-0.674,0.215-0.768l-4.643-13.188h3.674l2.76,9.316l2.606-9.316h3.512
		l-4.331,12.424c-0.837,2.396-1.498,3.881-1.986,4.457c-0.484,0.576-1.461,0.861-2.924,0.861c-0.293,0-0.529-0.002-0.707-0.006
		c-0.179-0.004-0.443-0.019-0.801-0.041V166.047L185.547,166.047z"/>
</g>
</svg>
