<?xml version="1.0" encoding="utf-8"?>
<!-- Generator: Adobe Illustrator 15.0.0, SVG Export Plug-In . SVG Version: 6.00 Build 0)  -->
<!DOCTYPE svg PUBLIC "-//W3C//DTD SVG 1.1//EN" "http://www.w3.org/Graphics/SVG/1.1/DTD/svg11.dtd">
<svg version="1.1" id="track" xmlns="http://www.w3.org/2000/svg" xmlns:xlink="http://www.w3.org/1999/xlink" x="0px" y="0px"
	 width="320px" height="440px" viewBox="0 0 320 440" enable-background="new 0 0 320 440" xml:space="preserve">
<g>
	<path fill="#FFFFCC" d="M140.757,147.157h8.84l20.912-58.145h-0.17l-40.974,59.334l1.19-59.334H130.3l-20.656,58.145h9.691
		l-0.34,1.19H99.188l0.34-1.19h8.84l20.827-58.145h-9.776l0.341-1.19h18.191l-1.021,47.179h0.17l32.559-47.179h17.596l-0.34,1.19
		h-8.756l-20.826,58.145h9.69l-0.342,1.19h-26.267L140.757,147.157z"/>
	<path fill="#FFFFCC" d="M173.902,147.157h7.311l42.674-60.695h1.954l1.531,60.695h9.18l-0.34,1.19h-26.183l0.341-1.19h9.267
		l-0.511-23.802h-19.552l-16.661,23.802h8.586l-0.34,1.19h-17.597L173.902,147.157z M218.786,96.323h-0.17l-18.191,25.842h18.701
		L218.786,96.323z"/>
	<path fill="#FFFFCC" d="M84.743,157.013h-9.775l0.51-1.19h20.656c7.99,0,17.937,3.4,17.937,13.176
		c0,12.24-17.511,14.451-20.741,14.706l-0.17,0.255c3.57,0.51,12.496,2.381,12.496,10.541c0,5.695-2.126,10.371-2.126,15.981
		c0,3.146,1.956,5.185,4.505,5.185c0.851,0,2.041-0.254,2.466-0.424l0.341,1.104c-0.511,0.255-2.466,0.511-4.166,0.511
		c-6.035,0-10.626-2.466-10.626-9.182c0-1.699,0.511-4.59,1.021-7.65c0.425-2.975,0.935-6.121,0.935-8.246
		c0-4.165-2.04-7.564-11.731-7.564h-3.484l-11.137,30.941h9.776l-0.425,1.19H54.821l0.424-1.19h8.756L84.743,157.013z
		 M83.128,183.024h5.695c4.506,0,8.246-0.935,10.115-2.125c3.146-2.039,7.141-6.12,7.141-14.451c0-6.375-4.42-9.436-10.03-9.436
		h-3.57L83.128,183.024z"/>
	<path fill="#FFFFCC" d="M116.433,215.157h8.755l20.912-58.144h-9.775l0.34-1.19h26.353l-0.341,1.19h-8.926l-20.826,58.144h9.69
		l-0.34,1.19h-26.183L116.433,215.157z"/>
	<path fill="#FFFFCC" d="M148.915,215.157h7.311l42.672-60.694h1.955l1.53,60.694h9.181l-0.34,1.19h-26.183l0.34-1.19h9.267
		l-0.51-23.802h-19.552l-16.662,23.802h8.587l-0.341,1.19h-17.596L148.915,215.157z M193.798,164.323h-0.17l-18.19,25.841h18.701
		L193.798,164.323z"/>
	<path fill="#FFFFCC" d="M115.408,283.156h8.841l20.912-58.145h-0.171l-40.974,59.336l1.191-59.337h-0.256l-20.656,58.146h9.69
		l-0.34,1.191H73.84l0.34-1.191h8.841l20.826-58.146h-9.775l0.34-1.188h18.191l-1.02,47.18h0.17l32.558-47.18h17.597l-0.34,1.188
		h-8.756l-20.827,58.146h9.69l-0.34,1.191h-26.268L115.408,283.156z"/>
	<path fill="#FFFFCC" d="M192.928,222.717c14.791,0,19.807,13.346,19.807,24.652c0,18.361-17.852,38.168-36.808,38.168
		c-11.392,0-19.382-8.586-19.382-24.396C156.545,241.588,175.927,222.717,192.928,222.717z M176.438,284.348
		c20.062,0,29.496-33.492,29.496-46.5c0-8.84-4.164-13.94-13.176-13.94c-19.042,0-29.753,32.219-29.753,47.01
		C163.005,278.057,165.727,284.348,176.438,284.348z"/>
	<path fill="#FFFFCC" d="M239.762,225.012h-9.775l0.34-1.188h26.352l-0.34,1.188h-8.926l-20.826,58.146h19.893
		c8.926,0,15.556-11.984,17.512-15.472h1.189l-5.951,16.662h-49.474l0.341-1.191h8.84L239.762,225.012z"/>
	<path fill="#FFFFCC" d="M118.874,321.234h-0.596l-10.711,29.922h9.691l-0.34,1.19H90.821l0.34-1.19h8.756l20.827-58.145h-9.69
		l0.34-1.189h26.097l-0.34,1.189h-8.756l-9.69,27.032h0.68l34.684-26.862v-0.171h-9.437l0.341-1.188h17.595l-0.34,1.188h-5.865
		l-31.453,24.398l17.512,33.746h8.076l-0.341,1.19h-25.842l0.34-1.19h9.181L118.874,321.234z"/>
	<path fill="#FFFFCC" d="M195.158,290.717c14.791,0,19.807,13.347,19.807,24.652c0,18.361-17.852,38.168-36.808,38.168
		c-11.392,0-19.382-8.586-19.382-24.396C158.775,309.588,178.157,290.717,195.158,290.717z M178.667,352.348
		c20.062,0,29.497-33.491,29.497-46.5c0-8.84-4.165-13.938-13.176-13.938c-19.043,0-29.754,32.217-29.754,47.008
		C165.234,346.057,167.956,352.348,178.667,352.348z"/>
</g>
</svg>
