<?xml version="1.0" encoding="utf-8"?>
<!-- Generator: Adobe Illustrator 15.0.0, SVG Export Plug-In . SVG Version: 6.00 Build 0)  -->
<!DOCTYPE svg PUBLIC "-//W3C//DTD SVG 1.1//EN" "http://www.w3.org/Graphics/SVG/1.1/DTD/svg11.dtd">
<svg version="1.1" id="track" xmlns="http://www.w3.org/2000/svg" xmlns:xlink="http://www.w3.org/1999/xlink" x="0px" y="0px"
	 width="320px" height="220px" viewBox="0 0 320 220" enable-background="new 0 0 320 220" xml:space="preserve">
<path fill="#EF7F2F" d="M209.829,82.722h-99.658c-1.254,0-2.271,1.017-2.271,2.271v50.055c0,1.254,1.017,2.271,2.271,2.271h99.658
	c1.255,0,2.271-1.017,2.271-2.271V84.993C212.1,83.738,211.084,82.722,209.829,82.722 M192.386,112.697h-54.563l11.668,7.028
	c1.525,0.763,1.688,1.416,1.688,2.942c0,1.471-0.6,2.233-1.744,2.233c-0.708,0-1.525-0.327-2.179-0.654L127.07,112.37
	c-1.198-0.6-1.471-1.308-1.471-2.343c0-1.035,0.272-1.743,1.471-2.343l20.349-11.986c0.545-0.272,1.362-0.599,2.016-0.599
	c1.145,0,1.744,0.871,1.744,2.233c0,1.635-0.217,2.343-1.58,2.997l-11.655,6.974h54.442c1.471,0,2.016,1.198,2.016,2.669
	C194.401,111.444,193.856,112.697,192.386,112.697"/>
<path fill="#78C04F" d="M209.829,149.897h-99.658c-1.254,0-2.271,1.017-2.271,2.271v50.057c0,1.253,1.017,2.27,2.271,2.27h99.658
	c1.255,0,2.271-1.017,2.271-2.27v-50.057C212.1,150.914,211.084,149.897,209.829,149.897 M192.386,179.873h-54.563l11.668,7.028
	c1.525,0.763,1.688,1.417,1.688,2.942c0,1.47-0.6,2.233-1.744,2.233c-0.708,0-1.525-0.327-2.179-0.653l-20.186-11.879
	c-1.198-0.599-1.471-1.307-1.471-2.341c0-1.036,0.272-1.744,1.471-2.344l20.349-11.987c0.545-0.271,1.362-0.599,2.016-0.599
	c1.145,0,1.744,0.871,1.744,2.235c0,1.633-0.217,2.342-1.58,2.996l-11.655,6.974h54.442c1.471,0,2.016,1.198,2.016,2.67
	C194.401,178.62,193.856,179.873,192.386,179.873"/>
<path fill="#B04197" d="M209.829,16.135h-99.657c-1.255,0-2.271,1.017-2.271,2.27V68.46c0,1.255,1.017,2.271,2.271,2.271h99.657
	c1.255,0,2.271-1.016,2.271-2.271V18.405C212.1,17.151,211.084,16.135,209.829,16.135 M192.386,46.11h-54.563l11.668,7.027
	c1.525,0.764,1.688,1.417,1.688,2.942c0,1.471-0.599,2.233-1.743,2.233c-0.709,0-1.526-0.327-2.18-0.654l-20.187-11.877
	c-1.197-0.599-1.47-1.308-1.47-2.342c0-1.036,0.272-1.744,1.47-2.343l20.35-11.986c0.545-0.272,1.362-0.599,2.017-0.599
	c1.145,0,1.743,0.872,1.743,2.234c0,1.634-0.217,2.342-1.58,2.997l-11.655,6.972h54.442c1.471,0,2.017,1.199,2.017,2.67
	C194.402,44.857,193.856,46.11,192.386,46.11"/>
<g>
	<path fill="#EF7F2F" d="M37.695,137.318h54.597V82.722H37.695V137.318z M76.965,117.764c1.16,1.161,0.688,2.58-0.473,3.739
		c-1.161,1.161-2.622,1.677-3.783,0.516l-7.737-7.736l-7.738,7.736c-1.161,1.161-2.579,0.689-3.74-0.472s-1.676-2.622-0.516-3.783
		l7.737-7.736l-7.694-7.695c-1.16-1.16-0.645-2.622,0.516-3.783c1.16-1.16,2.58-1.633,3.74-0.473l7.695,7.695l7.78-7.781
		c1.16-1.16,2.579-0.602,3.74,0.559c1.161,1.161,1.677,2.537,0.516,3.697l-7.781,7.781L76.965,117.764z"/>
	<path fill="#B04197" d="M37.695,70.731h54.597V16.135H37.695V70.731z M76.965,51.177c1.16,1.161,0.688,2.579-0.473,3.74
		c-1.161,1.16-2.622,1.675-3.783,0.516l-7.737-7.738l-7.738,7.738c-1.16,1.16-2.579,0.688-3.74-0.474
		c-1.16-1.161-1.676-2.622-0.516-3.782l7.737-7.737l-7.694-7.695c-1.16-1.16-0.645-2.622,0.516-3.781
		c1.16-1.161,2.58-1.634,3.74-0.473l7.695,7.694l7.779-7.78c1.161-1.161,2.58-0.602,3.741,0.559c1.16,1.16,1.677,2.535,0.516,3.695
		l-7.781,7.781L76.965,51.177z"/>
	<path fill="#78C04F" d="M37.695,204.494h54.597v-54.596H37.695V204.494z M76.965,184.94c1.16,1.159,0.688,2.578-0.473,3.739
		c-1.161,1.16-2.622,1.676-3.783,0.516l-7.737-7.737l-7.738,7.737c-1.161,1.16-2.579,0.688-3.74-0.474
		c-1.161-1.16-1.676-2.622-0.516-3.781l7.737-7.737l-7.694-7.695c-1.16-1.159-0.645-2.622,0.516-3.781
		c1.16-1.161,2.58-1.635,3.74-0.474l7.695,7.695l7.78-7.781c1.16-1.16,2.579-0.602,3.74,0.56c1.161,1.159,1.677,2.536,0.516,3.696
		l-7.781,7.78L76.965,184.94z"/>
</g>
<g>
	<g>
		<path fill="#79C156" d="M249.657,182.901c-0.668,0-1.248,0.579-1.248,1.267c0,0.687,0.58,1.248,1.248,1.248
			c0.688,0,1.266-0.562,1.266-1.248C250.923,183.48,250.346,182.901,249.657,182.901"/>
		<path fill="#79C156" d="M267.273,182.901c-0.669,0-1.248,0.579-1.248,1.267c0,0.687,0.579,1.248,1.248,1.248
			c0.688,0,1.268-0.562,1.268-1.248C268.541,183.48,267.962,182.901,267.273,182.901"/>
		<path fill="#79C156" d="M250.581,166.611h15.592c0.71,0,1-0.579,1-1.289s-0.29-1.315-1-1.315h-15.592
			c-0.71,0-0.974,0.605-0.974,1.315S249.871,166.611,250.581,166.611"/>
		<path fill="#79C156" d="M258.171,146.826c-16.046,0-29.052,13.006-29.052,29.051c0,16.044,13.006,29.051,29.052,29.051
			c16.045,0,29.051-13.007,29.051-29.051C287.222,159.832,274.216,146.826,258.171,146.826 M272.903,186.818
			c0,1.477-1.028,2.045-2.386,2.156v0.691c0,1.225-0.997,1.678-2.224,1.678c-1.226,0-2.269-0.453-2.269-1.678v-0.67h-15.101v0.67
			c0,1.225-1,1.678-2.224,1.678c-1.225,0-2.27-0.453-2.27-1.678v-0.67h-0.007c-1.672,0-2.988-0.506-2.988-2.178v-22.58
			c0-1.621,1.316-2.179,2.988-2.179h23.542c1.621,0,2.937,0.558,2.937,2.179V186.818z"/>
		<path fill="#79C156" d="M268.909,168.344h-21.441c-1.166,0-2.083,0.388-2.083,1.519v8.879c0,1.165,0.917,1.519,2.083,1.519h21.441
			c1.13,0,2.047-0.354,2.047-1.519v-8.879C270.956,168.731,270.039,168.344,268.909,168.344"/>
	</g>
	<g>
		<path fill="#ED7E3A" d="M264.447,111.631c-0.661,0-1.233,0.571-1.233,1.252c0,0.679,0.572,1.233,1.233,1.233
			c0.68,0,1.251-0.555,1.251-1.233C265.698,112.202,265.127,111.631,264.447,111.631"/>
		<path fill="#ED7E3A" d="M251.595,111.631c-0.662,0-1.234,0.571-1.234,1.252c0,0.679,0.572,1.233,1.234,1.233
			c0.679,0,1.251-0.555,1.251-1.233C252.846,112.202,252.273,111.631,251.595,111.631"/>
		<path fill="#ED7E3A" d="M253.965,95.421h-4.694c-0.985,0-1.763,0.328-1.763,1.284v9.633c0,0.987,0.777,1.286,1.763,1.286h4.694
			c0.958,0,1.734-0.299,1.734-1.286v-9.633C255.699,95.749,254.923,95.421,253.965,95.421"/>
		<path fill="#ED7E3A" d="M268.998,96.705c0-0.956-0.777-1.284-1.733-1.284h-4.695c-0.986,0-1.764,0.328-1.764,1.284v9.633
			c0,0.987,0.777,1.286,1.764,1.286h4.695c0.956,0,1.733-0.299,1.733-1.286V96.705z"/>
		<path fill="#ED7E3A" d="M258.172,80.95c-16.046,0-29.052,13.006-29.052,29.05c0,16.045,13.006,29.051,29.052,29.051
			c16.045,0,29.051-13.006,29.051-29.051C287.223,93.956,274.217,80.95,258.172,80.95 M267.891,128.334h-19.281
			c-0.339,0-0.465-0.302-0.465-0.67c0-0.37,0.126-0.685,0.465-0.685h19.281c0.339,0,0.478,0.314,0.478,0.685
			C268.368,128.032,268.229,128.334,267.891,128.334 M265.797,124.111c0.338,0,0.476,0.315,0.476,0.686
			c0,0.369-0.138,0.67-0.476,0.67h-15.094c-0.338,0-0.462-0.301-0.462-0.67c0-0.37,0.124-0.686,0.462-0.686H265.797z
			 M251.716,121.847c0-0.37,0.138-0.685,0.507-0.685h12.055c0.37,0,0.52,0.314,0.52,0.685c0,0.369-0.149,0.67-0.52,0.67h-12.055
			C251.854,122.517,251.716,122.216,251.716,121.847 M271.475,128.291c0.131,0.244,0.395,0.732,0.395,0.958
			c0,0.395-0.338,0.545-0.752,0.545c-0.619,0-0.808-0.132-1.032-0.545l-4.586-9.532h-14.654l-4.587,9.532
			c-0.226,0.413-0.413,0.545-1.033,0.545c-0.413,0-0.751-0.15-0.751-0.545c0-0.226,0.263-0.714,0.395-0.958l4.153-8.574h-1.371
			c-1.652,0-2.954-0.501-2.954-2.152l-0.426-11.96l0.86-11.092c0-1.603,8.394-4.307,13.041-4.307c4.65,0,13.04,2.704,13.04,4.307
			l0.86,11.092l-0.426,11.96c0,1.651-1.302,2.152-2.904,2.152h-1.421L271.475,128.291z"/>
	</g>
	<g>
		<path fill="#B24397" d="M269.059,42.938l-0.874-11.432c0-0.962-0.781-1.293-1.742-1.293h-16.512c-0.991,0-1.773,0.331-1.773,1.293
			l-0.874,11.432c0,0.992,0.782,1.293,1.774,1.293h18.258C268.277,44.23,269.059,43.93,269.059,42.938"/>
		<path fill="#B24397" d="M268.798,48.776c0-0.684-0.575-1.258-1.259-1.258c-0.664,0-1.241,0.574-1.241,1.258
			s0.577,1.239,1.241,1.239C268.223,50.016,268.798,49.46,268.798,48.776"/>
		<path fill="#B24397" d="M258.172,14.382c-16.044,0-29.052,13.007-29.052,29.051c0,16.045,13.008,29.051,29.052,29.051
			c16.045,0,29.051-13.006,29.051-29.051C287.223,27.389,274.217,14.382,258.172,14.382 M271.55,63.399
			c0.131,0.245,0.396,0.735,0.396,0.962c0,0.397-0.34,0.548-0.756,0.548c-0.622,0-0.812-0.133-1.038-0.548l-4.611-9.585h-14.737
			l-4.611,9.585c-0.227,0.415-0.416,0.548-1.039,0.548c-0.416,0-0.755-0.15-0.755-0.548c0-0.227,0.264-0.717,0.397-0.962
			l4.175-8.623h-0.504c-1.662,0-4.638-1.947-4.638-4.804c0-1.947,1.885-21.416,1.885-21.416c0-1.611,1.31-2.165,2.971-2.165h6.743
			l-2.217-1.441c-0.312-0.155-0.383-0.34-0.383-0.608c0-0.268,0.07-0.451,0.383-0.607l4.778-3.107
			c0.089-0.044,0.202-0.094,0.316-0.124c0.052-0.021,0.111-0.031,0.178-0.031c0.005,0,0.011,0,0.015,0s0.009,0,0.015,0
			c0.062,0,0.12,0.01,0.169,0.03c0.112,0.031,0.223,0.081,0.311,0.125l5.03,3.107c0.311,0.156,0.368,0.34,0.368,0.607
			c0,0.269-0.058,0.453-0.368,0.608l-2.335,1.441h6.023c1.61,0,2.919,0.554,2.919,2.165c0,0,1.886,19.447,1.886,21.416
			c0,2.835-2.976,4.804-4.585,4.804h-0.557L271.55,63.399z"/>
		<path fill="#B24397" d="M248.5,47.519c-0.664,0-1.239,0.574-1.239,1.258s0.575,1.241,1.239,1.241c0.685,0,1.259-0.558,1.259-1.241
			S249.185,47.519,248.5,47.519"/>
		<polygon fill="#B24397" points="259.193,26.392 262.369,24.343 258.498,21.861 254.848,24.343 257.843,26.392 		"/>
	</g>
</g>
</svg>
