<?xml version="1.0" encoding="utf-8"?>
<!-- Generator: Adobe Illustrator 15.0.0, SVG Export Plug-In . SVG Version: 6.00 Build 0)  -->
<!DOCTYPE svg PUBLIC "-//W3C//DTD SVG 1.1//EN" "http://www.w3.org/Graphics/SVG/1.1/DTD/svg11.dtd">
<svg version="1.1" id="track" xmlns="http://www.w3.org/2000/svg" xmlns:xlink="http://www.w3.org/1999/xlink" x="0px" y="0px"
	 width="320px" height="220px" viewBox="0 0 320 220" enable-background="new 0 0 320 220" xml:space="preserve">
<g>
	<g enable-background="new">
		<path d="M82.311,195.956H79.41v-0.373c0.494-0.024,0.855-0.12,0.855-0.253c0-0.072-0.024-0.156-0.061-0.266l-0.469-1.215h-2.239
			l-0.361,0.891c-0.072,0.217-0.108,0.361-0.108,0.457c0,0.24,0.445,0.361,0.915,0.386v0.373h-2.504v-0.373
			c0.277-0.012,0.505-0.084,0.674-0.217c0.181-0.134,0.325-0.313,0.421-0.554c0.337-0.782,0.71-1.613,1.108-2.59l1.083-2.611h0.433
			l2.179,5.346c0.06,0.156,0.157,0.301,0.313,0.421c0.145,0.108,0.361,0.193,0.662,0.205V195.956z M79.566,193.403l-0.939-2.396
			l-0.963,2.396H79.566z"/>
		<path d="M89.56,190.069c-0.289,0.036-0.578,0.084-0.794,0.204c-0.229,0.156-0.289,0.59-0.289,1.216v4.526h-0.47l-4.105-5.057
			v3.105c0,0.723,0.097,1.084,0.301,1.252c0.192,0.156,0.65,0.24,0.891,0.266v0.373h-2.745v-0.373
			c0.277-0.023,0.602-0.084,0.807-0.217c0.217-0.169,0.289-0.458,0.289-1.252v-2.963c0-0.264-0.097-0.577-0.277-0.709
			c-0.229-0.217-0.626-0.35-0.927-0.373v-0.374h2.022l3.756,4.659v-2.805c0-0.724-0.108-1.097-0.289-1.229
			c-0.253-0.156-0.614-0.229-0.879-0.253v-0.373h2.709V190.069z"/>
		<path d="M98.521,195.956h-5.562v-0.373c0.193,0,0.578-0.048,0.674-0.097c0.205-0.084,0.265-0.229,0.265-0.445v-4.37
			c0-0.204-0.048-0.35-0.265-0.444c-0.168-0.072-0.506-0.133-0.674-0.156v-0.374h5.189v1.565h-0.385
			c-0.06-0.218-0.192-0.457-0.409-0.699c-0.409-0.506-0.59-0.457-1.288-0.457H95.03v2.433h0.626c0.241,0,0.421-0.024,0.53-0.062
			c0.337-0.131,0.53-0.578,0.566-0.963h0.385v2.444h-0.385c-0.024-0.289-0.145-0.663-0.265-0.782
			c-0.193-0.229-0.421-0.277-0.831-0.277H95.03v1.807c0,0.746,0.072,0.831,1.132,0.831h0.301c0.542,0,0.903-0.049,1.06-0.205
			c0.289-0.289,0.686-0.987,0.758-1.276h0.374L98.521,195.956z"/>
		<path d="M102.218,195.956H99.28v-0.373c0.313,0,0.53-0.024,0.687-0.108c0.145-0.071,0.216-0.205,0.216-0.408v-4.396
			c0-0.204-0.048-0.372-0.265-0.47c-0.192-0.084-0.434-0.12-0.602-0.132v-0.374h3.094c2.107,0,3.455,1.145,3.455,3.117
			C105.866,194.957,104,195.956,102.218,195.956z M102.098,190.117c-0.229,0-0.662,0.012-0.783,0.023v4.684
			c0,0.542,0.313,0.711,1.011,0.711c1.625,0,2.275-1.048,2.275-2.673C104.602,191.236,103.675,190.117,102.098,190.117z"/>
		<path d="M106.591,195.956v-0.373c0,0,0.638-0.062,0.698-0.084c0.205-0.062,0.301-0.192,0.301-0.422v-4.418
			c0-0.205-0.036-0.338-0.301-0.435c-0.168-0.071-0.53-0.133-0.698-0.155v-0.374h3.118v0.374c-0.193,0.012-0.494,0.048-0.698,0.106
			c-0.241,0.072-0.301,0.241-0.301,0.435v4.419c0,0.191,0.084,0.349,0.301,0.434c0.121,0.049,0.505,0.12,0.698,0.12v0.373H106.591z"
			/>
		<path d="M116.067,191.453h-0.385c-0.06-0.204-0.156-0.518-0.349-0.782c-0.18-0.265-0.421-0.493-0.626-0.528
			c-0.192-0.024-0.53-0.037-0.782-0.037h-0.265v4.889c0,0.191,0.072,0.361,0.289,0.457c0.121,0.023,0.59,0.133,0.783,0.133v0.373
			h-3.275v-0.373c0.205,0,0.65-0.048,0.783-0.097c0.205-0.072,0.301-0.218,0.301-0.457v-4.925h-0.277c-0.192,0-0.505,0-0.771,0.037
			c-0.205,0.022-0.445,0.265-0.638,0.528c-0.181,0.265-0.277,0.591-0.337,0.782h-0.385v-1.758h5.935L116.067,191.453
			L116.067,191.453z"/>
		<path d="M122.931,192.838c0,1.975-1.445,3.274-3.202,3.274c-1.83,0-3.215-1.36-3.215-3.274c0-2.011,1.493-3.287,3.215-3.287
			C121.535,189.551,122.931,190.876,122.931,192.838z M121.679,192.838c0-1.722-0.59-2.841-1.95-2.841
			c-1.457,0-1.951,1.252-1.951,2.841c0,1.625,0.518,2.817,1.951,2.817C121.101,195.655,121.679,194.487,121.679,192.838z"/>
		<path d="M130.386,195.956h-1.806c-0.807-1.19-1.336-1.892-2.119-2.829h-0.674v1.914c0,0.253,0.048,0.387,0.313,0.458
			c0.132,0.048,0.325,0.072,0.602,0.084v0.373h-2.938v-0.373c0.265-0.024,0.481-0.036,0.638-0.097
			c0.156-0.072,0.253-0.204,0.253-0.445v-4.395c0-0.205-0.036-0.373-0.265-0.457c-0.156-0.049-0.445-0.108-0.626-0.12v-0.374h3.203
			c1.095,0,2.227,0.422,2.227,1.492c0,0.951-0.638,1.422-1.625,1.687l0.807,1.035l0.807,0.963c0.494,0.614,0.771,0.699,1.204,0.711
			L130.386,195.956L130.386,195.956z M126.581,190.117h-0.794v2.564h0.614c0.421,0,0.794-0.062,1.083-0.326
			c0.277-0.264,0.421-0.625,0.421-1.06C127.906,190.538,127.424,190.117,126.581,190.117z"/>
		<path d="M130.616,195.956v-0.373c0,0,0.638-0.062,0.698-0.084c0.205-0.062,0.301-0.192,0.301-0.422v-4.418
			c0-0.205-0.036-0.338-0.301-0.435c-0.168-0.071-0.53-0.133-0.698-0.155v-0.374h3.118v0.374c-0.192,0.012-0.494,0.048-0.698,0.106
			c-0.241,0.072-0.301,0.241-0.301,0.435v4.419c0,0.191,0.084,0.349,0.301,0.434c0.12,0.049,0.506,0.12,0.698,0.12v0.373H130.616z"
			/>
		<path d="M140.767,195.956h-2.901v-0.373c0.494-0.024,0.855-0.12,0.855-0.253c0-0.072-0.024-0.156-0.061-0.266l-0.469-1.215h-2.239
			l-0.361,0.891c-0.072,0.217-0.108,0.361-0.108,0.457c0,0.24,0.445,0.361,0.915,0.386v0.373h-2.504v-0.373
			c0.277-0.012,0.505-0.084,0.674-0.217c0.181-0.134,0.325-0.313,0.421-0.554c0.337-0.782,0.71-1.613,1.108-2.59l1.083-2.611h0.433
			l2.179,5.346c0.06,0.156,0.157,0.301,0.313,0.421c0.145,0.108,0.361,0.193,0.662,0.205V195.956z M138.022,193.403l-0.939-2.396
			l-0.963,2.396H138.022z"/>
		<path d="M146.343,195.956h-5.333v-0.373l0.421-0.036c0.289-0.048,0.47-0.156,0.47-0.506v-4.357c0-0.276-0.097-0.435-0.566-0.541
			c-0.133-0.037-0.241-0.072-0.325-0.072v-0.374h2.938v0.374c-0.181,0.012-0.337,0.035-0.47,0.072
			c-0.289,0.07-0.445,0.215-0.445,0.504v4.082c0,0.746,0.06,0.83,1.083,0.83c0.446,0,1.023-0.047,1.204-0.239
			c0.241-0.241,0.698-0.987,0.807-1.276h0.361L146.343,195.956z"/>
		<path d="M155.423,191.453h-0.385c-0.06-0.204-0.156-0.518-0.349-0.782c-0.18-0.265-0.421-0.493-0.626-0.528
			c-0.192-0.024-0.53-0.037-0.782-0.037h-0.265v4.889c0,0.191,0.072,0.361,0.289,0.457c0.121,0.023,0.59,0.133,0.783,0.133v0.373
			h-3.275v-0.373c0.205,0,0.65-0.048,0.783-0.097c0.205-0.072,0.301-0.218,0.301-0.457v-4.925h-0.277c-0.192,0-0.505,0-0.771,0.037
			c-0.205,0.022-0.445,0.265-0.638,0.528c-0.181,0.265-0.277,0.591-0.337,0.782h-0.385v-1.758h5.935L155.423,191.453
			L155.423,191.453z"/>
		<path d="M160.156,195.956v-0.373l0.325-0.024c0.421-0.035,0.565-0.168,0.565-0.492v-2.131h-3.07v2.082
			c0,0.229,0.072,0.41,0.41,0.494c0.12,0.035,0.265,0.061,0.457,0.071v0.373h-2.889v-0.373l0.325-0.024
			c0.433-0.035,0.566-0.168,0.566-0.492v-4.396c0-0.241-0.157-0.397-0.361-0.481c-0.157-0.071-0.349-0.107-0.53-0.119v-0.374h2.889
			v0.374c-0.192,0.012-0.361,0.035-0.493,0.072c-0.253,0.07-0.374,0.216-0.374,0.48v1.854h3.07v-1.805
			c0-0.218-0.12-0.351-0.289-0.445c-0.168-0.098-0.385-0.146-0.602-0.156v-0.374h2.889v0.374c-0.216,0.012-0.385,0.035-0.528,0.084
			c-0.229,0.072-0.35,0.217-0.35,0.47v4.394c0,0.218,0.061,0.375,0.337,0.471c0.134,0.049,0.302,0.085,0.541,0.097v0.373h-2.888
			V195.956z"/>
		<path d="M169.501,195.956h-5.562v-0.373c0.191,0,0.578-0.048,0.674-0.097c0.205-0.084,0.265-0.229,0.265-0.445v-4.37
			c0-0.204-0.048-0.35-0.265-0.444c-0.168-0.072-0.506-0.133-0.674-0.156v-0.374h5.188v1.565h-0.386
			c-0.06-0.218-0.191-0.457-0.408-0.699c-0.41-0.506-0.59-0.457-1.289-0.457h-1.035v2.433h0.626c0.241,0,0.422-0.024,0.53-0.062
			c0.337-0.131,0.528-0.578,0.565-0.963h0.386v2.444h-0.386c-0.024-0.289-0.146-0.663-0.266-0.782
			c-0.193-0.229-0.422-0.277-0.831-0.277h-0.626v1.807c0,0.746,0.072,0.831,1.133,0.831h0.301c0.541,0,0.902-0.049,1.06-0.205
			c0.289-0.289,0.687-0.987,0.758-1.276h0.374L169.501,195.956z"/>
		<path d="M178.545,195.956h-3.07v-0.373c0.252-0.012,0.445-0.036,0.613-0.071c0.289-0.072,0.434-0.218,0.434-0.494v-4.334h-0.071
			l-2.275,5.177h-0.349l-0.663-1.625l-1.456-3.563h-0.061v3.479c0,1.083,0.084,1.19,0.674,1.349
			c0.218,0.061,0.351,0.084,0.422,0.084v0.373h-2.696v-0.373c0.507-0.035,0.902-0.107,1.022-0.59
			c0.049-0.169,0.062-0.458,0.062-0.855v-3.082c0-0.396-0.121-0.638-0.325-0.781c-0.193-0.146-0.445-0.192-0.724-0.204v-0.374h2.396
			l1.866,4.587l1.673-3.756c0.121-0.277,0.217-0.746,0.229-0.831h2.288v0.374c-0.289,0.022-0.506,0.06-0.649,0.132
			c-0.169,0.072-0.254,0.205-0.254,0.422v4.395c0,0.205,0.062,0.361,0.302,0.457c0.133,0.049,0.338,0.098,0.614,0.108
			L178.545,195.956L178.545,195.956z"/>
		<path d="M184.952,195.956h-5.562v-0.373c0.191,0,0.577-0.048,0.674-0.097c0.205-0.084,0.266-0.229,0.266-0.445v-4.37
			c0-0.204-0.048-0.35-0.266-0.444c-0.168-0.072-0.506-0.133-0.674-0.156v-0.374h5.188v1.565h-0.385
			c-0.062-0.218-0.192-0.457-0.409-0.699c-0.409-0.506-0.591-0.457-1.288-0.457h-1.035v2.433h0.625c0.241,0,0.422-0.024,0.53-0.062
			c0.337-0.131,0.53-0.578,0.565-0.963h0.385v2.444h-0.385c-0.023-0.289-0.146-0.663-0.265-0.782
			c-0.192-0.229-0.422-0.277-0.832-0.277h-0.625v1.807c0,0.746,0.072,0.831,1.131,0.831h0.302c0.543,0,0.902-0.049,1.061-0.205
			c0.289-0.289,0.686-0.987,0.758-1.276h0.373L184.952,195.956z"/>
	</g>
	<g enable-background="new    ">
		<path d="M192.878,191.789l-0.63,2.952c-0.111,0.528-0.348,0.962-0.707,1.298s-0.729,0.504-1.111,0.504
			c-0.209,0-0.363-0.04-0.462-0.119c-0.099-0.08-0.147-0.181-0.147-0.303c0-0.104,0.031-0.191,0.093-0.271
			c0.062-0.078,0.151-0.117,0.271-0.117c0.072,0,0.139,0.017,0.193,0.051c0.057,0.033,0.105,0.074,0.146,0.125
			c0.035,0.04,0.072,0.095,0.113,0.164c0.043,0.068,0.078,0.129,0.109,0.179c0.184-0.014,0.34-0.138,0.47-0.372
			c0.13-0.232,0.243-0.566,0.339-1.001l0.658-3.088h-0.699l0.076-0.325h0.688l0.054-0.242c0.058-0.276,0.146-0.524,0.271-0.746
			c0.123-0.222,0.265-0.41,0.422-0.563c0.154-0.151,0.33-0.272,0.527-0.358c0.196-0.086,0.385-0.131,0.566-0.131
			c0.209,0,0.363,0.04,0.463,0.12s0.148,0.181,0.148,0.302c0,0.104-0.029,0.193-0.088,0.271c-0.06,0.079-0.15,0.118-0.275,0.118
			c-0.074,0-0.139-0.017-0.193-0.048c-0.054-0.032-0.104-0.075-0.146-0.127c-0.049-0.061-0.086-0.116-0.114-0.168
			c-0.029-0.054-0.063-0.111-0.106-0.176c-0.166,0.008-0.312,0.115-0.438,0.324c-0.128,0.209-0.241,0.559-0.343,1.045l-0.08,0.378
			h0.902l-0.076,0.326L192.878,191.789L192.878,191.789z"/>
		<path d="M197.209,192.752c0,0.281-0.048,0.562-0.143,0.844c-0.096,0.282-0.234,0.529-0.416,0.741
			c-0.184,0.22-0.404,0.396-0.662,0.527c-0.26,0.133-0.559,0.198-0.899,0.198c-0.396,0-0.717-0.127-0.964-0.383
			c-0.246-0.256-0.369-0.599-0.369-1.031c0-0.315,0.053-0.611,0.157-0.887c0.104-0.274,0.245-0.516,0.422-0.723
			c0.179-0.208,0.399-0.376,0.663-0.503c0.264-0.128,0.549-0.19,0.855-0.19c0.424,0,0.756,0.129,0.996,0.387
			C197.09,191.992,197.209,192.332,197.209,192.752z M196.48,192.615c0-0.339-0.062-0.594-0.183-0.762
			c-0.12-0.17-0.293-0.254-0.521-0.254c-0.197,0-0.385,0.061-0.56,0.182c-0.175,0.122-0.325,0.32-0.452,0.595
			c-0.098,0.207-0.17,0.438-0.215,0.692s-0.068,0.488-0.068,0.703c0,0.342,0.061,0.6,0.179,0.774
			c0.116,0.175,0.296,0.263,0.534,0.263c0.212,0,0.4-0.066,0.564-0.199c0.164-0.135,0.297-0.305,0.4-0.51
			c0.102-0.199,0.181-0.43,0.234-0.688C196.449,193.154,196.48,192.889,196.48,192.615z"/>
		<path d="M200.859,191.928c0,0.067-0.01,0.142-0.029,0.221c-0.02,0.08-0.046,0.146-0.082,0.199
			c-0.043,0.063-0.09,0.112-0.141,0.147c-0.051,0.034-0.125,0.052-0.222,0.052c-0.128,0-0.225-0.031-0.288-0.097
			c-0.064-0.065-0.097-0.136-0.097-0.215c0-0.073,0.019-0.156,0.054-0.248c0.035-0.093,0.071-0.185,0.11-0.272
			c-0.029,0-0.076,0.008-0.142,0.022s-0.146,0.046-0.237,0.091c-0.093,0.045-0.197,0.113-0.315,0.204
			c-0.117,0.091-0.242,0.211-0.376,0.36l-0.575,2.562h-0.668l0.521-2.318c0.013-0.058,0.029-0.144,0.052-0.259
			c0.022-0.114,0.034-0.198,0.034-0.254c0-0.134-0.021-0.223-0.066-0.269c-0.047-0.045-0.138-0.067-0.271-0.067
			c-0.053,0-0.119,0.009-0.201,0.026c-0.08,0.018-0.145,0.033-0.189,0.045l0.056-0.229c0.187-0.084,0.35-0.146,0.491-0.187
			c0.145-0.04,0.268-0.061,0.369-0.061c0.19,0,0.326,0.051,0.407,0.154s0.122,0.26,0.122,0.468h0.021
			c0.283-0.245,0.498-0.418,0.645-0.516c0.146-0.099,0.301-0.146,0.459-0.146c0.077,0,0.15,0.008,0.223,0.027
			c0.071,0.02,0.133,0.051,0.183,0.098c0.053,0.049,0.092,0.106,0.116,0.172C200.848,191.709,200.859,191.805,200.859,191.928z"/>
	</g>
	<g enable-background="new    ">
		<path d="M210.439,191.453h-0.385c-0.062-0.204-0.156-0.518-0.351-0.782c-0.181-0.265-0.421-0.493-0.625-0.528
			c-0.192-0.024-0.53-0.037-0.783-0.037h-0.265v4.889c0,0.191,0.072,0.361,0.289,0.457c0.119,0.023,0.59,0.133,0.781,0.133v0.373
			h-3.273v-0.373c0.204,0,0.65-0.048,0.781-0.097c0.205-0.072,0.302-0.218,0.302-0.457v-4.925h-0.276c-0.191,0-0.505,0-0.771,0.037
			c-0.204,0.022-0.444,0.265-0.639,0.528c-0.18,0.265-0.275,0.591-0.336,0.782h-0.386v-1.758h5.935v1.758H210.439z"/>
		<path d="M217.1,190.273c-0.217,0.133-0.289,0.457-0.289,1.07v2.577c0,1.433-1.047,2.19-2.455,2.19
			c-0.808,0-1.553-0.217-1.986-0.555c-0.409-0.336-0.626-0.781-0.626-1.252v-3.636c0-0.217-0.062-0.337-0.277-0.458
			c-0.155-0.07-0.444-0.132-0.602-0.144v-0.374h2.901v0.374c-0.192,0.022-0.506,0.06-0.627,0.106
			c-0.217,0.072-0.277,0.254-0.277,0.446v3.335c0,0.337,0.062,0.734,0.302,1.047c0.241,0.325,0.627,0.555,1.36,0.555
			c1.013,0,1.771-0.603,1.771-1.59v-2.563c0-0.65-0.096-0.964-0.289-1.097c-0.239-0.145-0.698-0.217-0.892-0.239v-0.374h2.781v0.374
			C217.727,190.094,217.316,190.129,217.1,190.273z"/>
		<path d="M226.758,195.956h-3.07v-0.373c0.254-0.012,0.445-0.036,0.614-0.071c0.289-0.072,0.435-0.218,0.435-0.494v-4.334h-0.072
			l-2.275,5.177h-0.349l-0.663-1.625l-1.456-3.563h-0.062v3.479c0,1.083,0.084,1.19,0.675,1.349c0.217,0.061,0.35,0.084,0.422,0.084
			v0.373h-2.697v-0.373c0.507-0.035,0.903-0.107,1.023-0.59c0.049-0.169,0.061-0.458,0.061-0.855v-3.082
			c0-0.396-0.12-0.638-0.325-0.781c-0.191-0.146-0.445-0.192-0.723-0.204v-0.374h2.396l1.867,4.587l1.672-3.756
			c0.121-0.277,0.217-0.746,0.229-0.831h2.288v0.374c-0.289,0.022-0.506,0.06-0.65,0.132c-0.168,0.072-0.252,0.205-0.252,0.422
			v4.395c0,0.205,0.059,0.361,0.301,0.457c0.133,0.049,0.336,0.098,0.613,0.108v0.371H226.758z"/>
		<path d="M227.639,195.583c0.182-0.012,0.351-0.024,0.482-0.062c0.252-0.06,0.421-0.191,0.421-0.48v-4.37
			c0-0.241-0.12-0.372-0.301-0.47c-0.169-0.084-0.386-0.12-0.565-0.132v-0.374h3.202c0.866,0,1.999,0.324,1.999,1.373
			c0,0.854-0.771,1.336-1.65,1.517v0.036c0.855,0.098,2.012,0.518,2.012,1.639c0,1.118-1.18,1.696-2.312,1.696h-3.287V195.583z
			 M230.264,192.439c1.047,0,1.36-0.506,1.36-1.287c0-0.688-0.325-1.047-1.19-1.047c-0.266,0-0.65,0.022-0.76,0.035v2.299H230.264z
			 M230.48,192.862c-0.397,0-0.674,0.012-0.808,0.012v2.119c0,0.373,0.325,0.554,0.902,0.554c0.928,0,1.385-0.457,1.385-1.445
			C231.961,193.367,231.48,192.862,230.48,192.862z"/>
		<path d="M239.439,195.956h-5.334v-0.373l0.422-0.036c0.289-0.048,0.47-0.156,0.47-0.506v-4.357c0-0.276-0.097-0.435-0.565-0.541
			c-0.133-0.037-0.24-0.072-0.324-0.072v-0.374h2.938v0.374c-0.182,0.012-0.337,0.035-0.47,0.072
			c-0.289,0.07-0.445,0.215-0.445,0.504v4.082c0,0.746,0.062,0.83,1.084,0.83c0.445,0,1.022-0.047,1.203-0.239
			c0.241-0.241,0.699-0.987,0.808-1.276h0.36L239.439,195.956z"/>
		<path d="M246.689,195.956h-1.808c-0.807-1.19-1.336-1.892-2.118-2.829h-0.675v1.914c0,0.253,0.05,0.387,0.312,0.458
			c0.134,0.048,0.326,0.072,0.604,0.084v0.373h-2.938v-0.373c0.265-0.024,0.48-0.036,0.638-0.097
			c0.155-0.072,0.253-0.204,0.253-0.445v-4.395c0-0.205-0.036-0.373-0.266-0.457c-0.155-0.049-0.444-0.108-0.625-0.12v-0.374h3.201
			c1.096,0,2.229,0.422,2.229,1.492c0,0.951-0.639,1.422-1.626,1.687l0.807,1.035l0.808,0.963c0.494,0.614,0.771,0.699,1.205,0.711
			V195.956L246.689,195.956z M242.885,190.117h-0.795v2.564h0.614c0.421,0,0.794-0.062,1.083-0.326
			c0.277-0.264,0.422-0.625,0.422-1.06C244.209,190.538,243.727,190.117,242.885,190.117z"/>
	</g>
</g>
<text transform="matrix(1 0 0 1 149.5796 21.7109)" font-family="'GeorgiaPro-Regular'" font-size="7">Nº 1.5</text>
<g>
	<path fill="#070707" d="M112.727,102.25h-1.079v2.941c0,0.309,0.084,0.574,0.393,0.701c0.168,0.056,0.7,0.11,1.008,0.125v0.49
		h-4.16v-0.49c0.224-0.015,0.742-0.069,0.911-0.125c0.294-0.127,0.392-0.394,0.392-0.701v-7.003c0-0.309-0.084-0.603-0.392-0.729
		c-0.322-0.099-0.714-0.154-0.967-0.168v-0.49h4.44c1.737,0,3.04,0.896,3.04,2.395C116.313,101.298,114.52,102.25,112.727,102.25z
		 M112.601,97.361h-0.953v4.286h0.687c2.017,0,2.283-1.429,2.283-2.114C114.618,98.454,114.198,97.361,112.601,97.361z"/>
	<path fill="#070707" d="M122.934,106.747c-2.704,0-4.665-2.144-4.665-5.085c0-3.096,2.143-5.085,4.665-5.085
		c2.577,0,4.665,1.989,4.665,5.085C127.598,104.785,125.441,106.747,122.934,106.747z M122.934,97.18
		c-2.199,0-3.012,2.185-3.012,4.482c0,2.535,0.966,4.468,3.012,4.468c2.073,0,3.012-1.961,3.012-4.468
		C125.945,98.973,124.895,97.18,122.934,97.18z"/>
	<path fill="#070707" d="M133.139,106.705c-0.925,0-1.821-0.322-2.423-0.688l-0.294,0.49h-0.546l-0.098-3.32h0.546
		c0.435,1.541,1.275,2.929,2.942,2.929c1.289,0,1.835-0.687,1.835-1.709c0-0.771-0.462-1.499-1.303-1.849
		c-0.812-0.322-1.247-0.448-2.017-0.799c-1.079-0.49-1.737-1.261-1.737-2.535c0-1.499,1.345-2.634,2.941-2.634
		c0.896,0,1.569,0.309,2.171,0.673l0.28-0.462h0.546l0.056,3.222h-0.561c-0.406-1.485-0.938-2.844-2.577-2.844
		c-0.869,0-1.569,0.63-1.569,1.442c0,0.841,0.392,1.359,1.148,1.723c0.672,0.322,1.289,0.505,1.905,0.785
		c1.134,0.49,2.059,1.106,2.059,2.619C136.444,105.486,135.029,106.705,133.139,106.705z"/>
	<path fill="#070707" d="M146.685,99.434c-0.154-0.616-0.896-1.961-1.499-2.045c-0.336-0.042-0.784-0.056-1.121-0.056h-0.406v7.761
		c0,0.309,0.112,0.561,0.434,0.715c0.168,0.068,0.883,0.194,1.135,0.209v0.49h-4.581v-0.49c0.252-0.015,0.925-0.084,1.121-0.153
		c0.336-0.126,0.435-0.394,0.435-0.7v-7.83h-0.393c-0.252,0-0.798,0.014-1.134,0.056c-0.603,0.084-1.331,1.429-1.485,2.045h-0.49
		v-2.633h8.46v2.633L146.685,99.434L146.685,99.434z"/>
	<path fill="#070707" d="M159.073,106.747c-2.704,0-4.665-2.144-4.665-5.085c0-3.096,2.143-5.085,4.665-5.085
		c2.577,0,4.665,1.989,4.665,5.085C163.736,104.785,161.58,106.747,159.073,106.747z M159.073,97.18
		c-2.199,0-3.012,2.185-3.012,4.482c0,2.535,0.966,4.468,3.012,4.468c2.073,0,3.011-1.961,3.011-4.468
		C162.084,98.973,161.033,97.18,159.073,97.18z"/>
	<path fill="#070707" d="M172.863,99.224c-0.153-0.616-0.868-1.751-1.471-1.821c-0.336-0.042-0.715-0.056-1.162-0.056h-1.625v3.894
		h1.104c0.854,0,1.106-0.252,1.274-0.434c0.183-0.196,0.336-0.631,0.393-1.148h0.52v3.81h-0.52c-0.025-0.406-0.21-1.009-0.393-1.231
		c-0.168-0.196-0.405-0.435-1.274-0.435h-1.104v3.334c0,0.309,0.099,0.545,0.393,0.699c0.154,0.07,0.756,0.168,0.967,0.184v0.49
		h-4.203v-0.49c0.225-0.016,0.827-0.058,0.995-0.112c0.294-0.126,0.392-0.378,0.392-0.687v-7.004c0-0.308-0.084-0.546-0.392-0.687
		c-0.237-0.111-0.771-0.224-0.995-0.237v-0.49h7.606v2.423L172.863,99.224L172.863,99.224z"/>
	<path fill="#070707" d="M183.006,99.224c-0.154-0.616-0.869-1.751-1.471-1.821c-0.337-0.042-0.715-0.056-1.163-0.056h-1.625v3.894
		h1.106c0.854,0,1.105-0.252,1.273-0.434c0.184-0.196,0.336-0.631,0.393-1.148h0.52v3.81h-0.52
		c-0.026-0.406-0.209-1.009-0.393-1.231c-0.168-0.196-0.404-0.435-1.273-0.435h-1.106v3.334c0,0.309,0.099,0.545,0.394,0.699
		c0.153,0.07,0.756,0.168,0.967,0.184v0.49h-4.203v-0.49c0.226-0.016,0.826-0.058,0.994-0.112c0.295-0.126,0.394-0.378,0.394-0.687
		v-7.004c0-0.308-0.084-0.546-0.394-0.687c-0.236-0.111-0.771-0.224-0.994-0.237v-0.49h7.605v2.423L183.006,99.224L183.006,99.224z"
		/>
	<path fill="#070707" d="M186.023,106.51v-0.49c0.252-0.016,0.84-0.058,1.021-0.112c0.336-0.126,0.436-0.364,0.436-0.673v-7.031
		c0-0.309-0.084-0.532-0.436-0.673c-0.253-0.098-0.771-0.224-1.021-0.237v-0.49h4.371v0.49c-0.254,0.014-0.771,0.084-1.022,0.168
		c-0.351,0.111-0.435,0.364-0.435,0.672v7.018c0,0.309,0.11,0.532,0.435,0.687c0.168,0.07,0.771,0.168,1.022,0.184v0.49h-4.371
		V106.51z"/>
	<path fill="#070707" d="M197.023,106.732c-2.324,0-4.412-1.877-4.412-4.986c0-3.096,2.031-5.155,4.623-5.155
		c1.021,0,1.779,0.28,2.41,0.673l0.277-0.462h0.549l0.068,3.459h-0.574c-0.309-1.471-1.021-3.096-2.646-3.096
		c-1.82,0-3.067,1.611-3.067,4.482c0,2.453,1.331,4.314,3.278,4.314c1.513,0,2.408-0.98,2.856-2.156l0.505,0.252
		C200.105,105.99,198.79,106.732,197.023,106.732z"/>
	<path fill="#070707" d="M210.984,106.51h-8.055v-0.49c0.225-0.016,0.825-0.084,0.993-0.142c0.294-0.14,0.394-0.378,0.394-0.687
		v-6.976c0-0.308-0.084-0.546-0.394-0.687c-0.237-0.111-0.771-0.224-0.993-0.237v-0.49h7.508v2.339h-0.504
		c-0.168-0.616-0.869-1.667-1.457-1.737c-0.336-0.042-0.729-0.056-1.178-0.056h-1.525v3.852h1.093c0.841,0,1.022-0.224,1.19-0.434
		c0.194-0.238,0.351-0.784,0.404-1.148h0.505v3.796h-0.505c-0.025-0.405-0.236-1.022-0.404-1.231
		c-0.168-0.196-0.352-0.421-1.19-0.421h-1.093v2.914c0,1.148,0.237,1.274,1.651,1.274c0.729,0,1.82,0.028,2.157-0.322
		c0.42-0.435,0.952-1.555,1.093-1.975h0.49L210.984,106.51z"/>
</g>
<g>
	<path fill="none" d="M164.343,122.947c-0.856-1.525-2.473-2.57-4.343-2.57c-1.871,0-3.485,1.045-4.342,2.57"/>
	<path fill="none" d="M160,119.377c2.443,0,4.546,1.471,5.48,3.57h72.02v-42.57h-155v42.57h72.019
		C155.454,120.848,157.557,119.377,160,119.377z"/>
	<path d="M238.5,79.377h-157v44.57h72.68c0.085-0.346,0.197-0.682,0.339-1H82.5v-42.57h155v42.57h-72.02
		c0.143,0.318,0.254,0.654,0.34,1h72.68V79.377z"/>
	<path d="M160,120.377c1.87,0,3.484,1.045,4.343,2.57h1.14c-0.937-2.102-3.039-3.57-5.48-3.57c-2.443,0-4.546,1.471-5.481,3.57
		h1.139C156.515,121.422,158.129,120.377,160,120.377z"/>
	<path d="M155.658,122.947h-1.139c-0.142,0.318-0.254,0.654-0.339,1h1.054C155.34,123.596,155.48,123.262,155.658,122.947z"/>
	<path d="M164.343,122.947c0.177,0.313,0.317,0.646,0.425,1h1.053c-0.084-0.346-0.195-0.682-0.338-1H164.343z"/>
</g>
</svg>
