<?xml version="1.0" encoding="utf-8"?>
<!-- Generator: Adobe Illustrator 15.0.0, SVG Export Plug-In . SVG Version: 6.00 Build 0)  -->
<!DOCTYPE svg PUBLIC "-//W3C//DTD SVG 1.1//EN" "http://www.w3.org/Graphics/SVG/1.1/DTD/svg11.dtd">
<svg version="1.1" xmlns="http://www.w3.org/2000/svg" xmlns:xlink="http://www.w3.org/1999/xlink" x="0px" y="0px" width="320px"
	 height="220px" viewBox="0 0 320 220" enable-background="new 0 0 320 220" xml:space="preserve">
<g id="Layer_2">
	<rect fill="#FFFABD" width="320" height="220"/>
</g>
<g id="track" display="none">
	<text transform="matrix(0.7894 -0.6139 0.6139 0.7894 -163.9893 128.418)" display="inline" opacity="0.98"><tspan x="0" y="0" fill="#FFFFFF" font-family="'BellGothicStd-Bold'" font-size="18">ROUGH TRADE  ROUGH TRADE  ROUGH TRADE  ROUGH TRADE  ROUGH TRADE  ROUGH TRADE  ROUGH TRADE  ROUGH TRADE  ROUGH TRADE  ROUGH TRADE  ROUGH TRADE  ROUGH TRADE  ROUGH TRADE  ROUGH T</tspan><tspan x="0" y="24" fill="#FFFFFF" font-family="'BellGothicStd-Bold'" font-size="18">RADE  ROUGH TRADE  ROUGH TRADE  ROUGH TRADE  ROUGH TRADE  ROUGH TRADE </tspan><tspan x="0.001" y="48" fill="#FFFFFF" font-family="'BellGothicStd-Bold'" font-size="18"> ROUGH TRADE  ROUGH TRADE  ROUGH TRADE  ROUGH TRADE  ROUGH TRADE</tspan><tspan x="-36" y="72" fill="#FFFFFF" font-family="'BellGothicStd-Bold'" font-size="18">  ROUGH TRADE  ROUGH TRADE  ROUGH TRADE  ROUGH TRADE  ROUG</tspan><tspan x="0" y="96" fill="#FFFFFF" font-family="'BellGothicStd-Bold'" font-size="18">H TRADE  ROUGH TRADE  ROUGH TRADE  ROUGH TRADE  ROUGH TRADE  ROUGH TRADE  ROUGH TRADE  BELL CENTENIAL BELL CENTENIAL BELL CENTENIAL BELL CENTENIAL BELL CENTENIAL BELL CENTENIAL</tspan><tspan x="-84" y="120" fill="#FFFFFF" font-family="'BellGothicStd-Bold'" font-size="18">ROUGH TRADE  ROUGH TRADE  ROUGH TRADE  ROUGH TRADE  ROUGH TRADE  ROUGH TRADE </tspan><tspan x="-60" y="144.001" fill="#FFFFFF" font-family="'BellGothicStd-Bold'" font-size="18"> ROUGH TRADE  ROUGH TRADE  ROUGH TRADE  ROUGH TRADE  ROUGH TRADE  ROUGH TRADE </tspan><tspan x="-107.999" y="168" fill="#FFFFFF" font-family="'BellGothicStd-Bold'" font-size="18"> ROUGH TRADE  ROUGH TRADE  ROUGH TRADE  ROUGH TRADE  ROUGH TRADE  ROUGH TRADE  ROUGH TRAD</tspan><tspan x="-59.999" y="192" fill="#FFFFFF" font-family="'BellGothicStd-Bold'" font-size="18">E  ROUGH TRADE  ROUGH TRADE  ROUGH TRADE  ROUGH TRADE  ROUGH TRADE  ROUGH TRADE </tspan><tspan x="-90" y="216" fill="#FFFFFF" font-family="'BellGothicStd-Bold'" font-size="18">E  ROUGH TRADE  ROUGH TRADE  ROUGH TRADE  ROUGH TRADE  ROUGH TRADE  ROUGH TRADE </tspan><tspan x="-120" y="239.999" fill="#FFFFFF" font-family="'BellGothicStd-Bold'" font-size="18">E  ROUGH TRADE  ROUGH TRADE  ROUGH TRADE  ROUGH TRADE  ROUGH TRADE  ROUGH TRADE </tspan><tspan x="-108" y="264" fill="#FFFFFF" font-family="'BellGothicStd-Bold'" font-size="18">E  ROUGH TRADE  ROUGH TRADE  ROUGH TRADE  ROUGH TRADE  ROUGH TRADE  ROUGH TRADE </tspan><tspan x="-150" y="288.001" fill="#FFFFFF" font-family="'BellGothicStd-Bold'" font-size="18">E  ROUGH TRADE  ROUGH TRADE  ROUGH TRADE  ROUGH TRADE  ROUGH TRADE  ROUGH TRADE </tspan><tspan x="-59.999" y="311.999" fill="#FFFFFF" font-family="'BellGothicStd-Bold'" font-size="18">E  ROUGH TRADE  ROUGH TRADE  ROUGH TRADE  ROUGH TRADE  ROUGH TRADE  ROUGH TRADE </tspan><tspan x="-59.999" y="336" fill="#FFFFFF" font-family="'BellGothicStd-Bold'" font-size="18">E  ROUGH TRADE  ROUGH TRADE  ROUGH TRADE  ROUGH TRADE  ROUGH TRADE  ROUGH TRADE </tspan><tspan x="-60.001" y="360" fill="#FFFFFF" font-family="'BellGothicStd-Bold'" font-size="18">E  ROUGH TRADE  ROUGH TRADE  ROUGH TRADE  ROUGH TRADE  ROUGH TRADE  ROUGH TRADE </tspan></text>
</g>
<g id="Layer_3">
	<g>
		<path fill="#222333" d="M83.6,115.438v1.59c0,7.418,4.693,9.765,9.16,9.765c5.526,0,9.765-2.347,9.765-8.856
			c0-12.112-24.527-10.749-24.527-27.176c0-9.689,6.889-14.837,16.048-14.837c9.992,0,15.594,4.845,15.14,15.973h-7.267
			c0.076-5.98-1.816-9.917-8.402-9.917c-4.164,0-8.403,2.12-8.403,8.024c0,12.036,24.527,10.295,24.527,27.63
			c0,11.506-7.949,15.216-16.957,15.216C76.56,133,76.56,120.661,76.711,115.438H83.6z"/>
		<path fill="#222333" d="M125.686,115.438v1.59c0,7.418,4.693,9.765,9.16,9.765c5.526,0,9.765-2.347,9.765-8.856
			c0-12.112-24.527-10.749-24.527-27.176c0-9.689,6.889-14.837,16.048-14.837c9.992,0,15.594,4.845,15.14,15.973h-7.267
			c0.076-5.98-1.816-9.917-8.402-9.917c-4.164,0-8.403,2.12-8.403,8.024c0,12.036,24.526,10.295,24.526,27.63
			c0,11.506-7.948,15.216-16.956,15.216c-16.124,0.151-16.124-12.188-15.973-17.411H125.686z"/>
		<path fill="#222333" d="M188.588,91.668c0-6.434-2.649-9.917-9.689-9.917c-2.195,0-10.067,0.379-10.067,11.809v18.471
			c0,11.96,3.481,14.988,10.067,14.988c4.996,0,8.327-1.362,9.766-2.422v-16.352h-10.068v-6.056h17.032v26.57
			c-4.466,2.422-9.689,4.088-16.729,4.088c-11.582,0-17.184-5.98-17.184-21.12V93.788c0-10.9,5.602-17.865,17.184-17.865
			c11.81,0,17.411,4.315,16.957,15.745H188.588z"/>
		<path fill="#222333" d="M209.325,131.713V77.058h17.79c7.569,0,10.144,2.574,12.188,5.602c1.892,2.952,2.195,6.207,2.195,7.267
			c0,6.813-2.347,11.354-9.387,12.944v0.378c7.797,0.909,11.203,5.602,11.203,13.096c0,14.005-10.22,15.367-16.427,15.367H209.325z
			 M216.29,100.071h10.144c5.45-0.076,8.1-3.406,8.1-8.706c0-4.542-2.573-8.251-8.402-8.251h-9.841V100.071z M216.29,125.657h9.841
			c7.418,0,10.067-5.299,10.067-9.312c0-8.705-5.374-10.219-12.49-10.219h-7.418V125.657z"/>
	</g>
</g>
</svg>
