<?xml version="1.0" encoding="utf-8"?>
<!-- Generator: Adobe Illustrator 15.0.0, SVG Export Plug-In . SVG Version: 6.00 Build 0)  -->
<!DOCTYPE svg PUBLIC "-//W3C//DTD SVG 1.1//EN" "http://www.w3.org/Graphics/SVG/1.1/DTD/svg11.dtd">
<svg version="1.1" id="track_1_" xmlns="http://www.w3.org/2000/svg" xmlns:xlink="http://www.w3.org/1999/xlink" x="0px" y="0px"
	 width="320px" height="220px" viewBox="0 0 320 220" enable-background="new 0 0 320 220" xml:space="preserve">
<g id="track">
	<g>
		<g>
			<path fill="#FFFED9" d="M74.599,97.839c0.041,0.04,0.055,0.079,0.028,0.131c-0.822,1.124-2.139,2.196-4.084,2.196
				c-1.755,0-2.742-0.497-3.592-1.229c-1.015-0.863-1.48-2.378-1.48-3.529c0-1.28,0.438-2.508,1.398-3.502
				c0.74-0.758,1.919-1.386,3.563-1.386c1.261,0,2.275,0.366,2.769,0.627c0.192,0.105,0.247,0.105,0.273,0l0.11-0.34
				c0.027-0.078,0.055-0.078,0.22-0.078c0.164,0,0.191,0.026,0.191,0.209c0,0.235,0.274,2.327,0.329,2.719
				c0.014,0.079,0,0.117-0.055,0.131l-0.26,0.078c-0.069,0.027-0.11-0.025-0.151-0.13c-0.165-0.471-0.493-1.125-1.069-1.699
				c-0.604-0.549-1.316-0.968-2.385-0.968c-2.193,0-3.098,1.882-3.098,3.765c0,0.81,0.247,2.353,1.262,3.399
				c0.904,0.915,1.7,1.018,2.357,1.018c1.507,0,2.701-0.718,3.276-1.515c0.068-0.092,0.123-0.131,0.164-0.092L74.599,97.839z"/>
			<path fill="#FFFED9" d="M80.259,95.421c-0.151,0-0.192,0.052-0.192,0.169v0.562c0,0.47,0.028,1.986,0.054,2.889
				c0.015,0.313,0.166,0.444,0.467,0.444h0.494c0.109,0,0.136,0.027,0.136,0.091v0.302c0,0.078-0.027,0.13-0.136,0.13
				c-0.247,0-0.714-0.04-1.837-0.04c-1.343,0-1.754,0.04-2.028,0.04c-0.11,0-0.137-0.053-0.137-0.119V99.59
				c0-0.079,0.027-0.105,0.137-0.105h0.712c0.329,0,0.384-0.313,0.384-0.614c0-0.627,0.027-2.118,0.027-2.953v-1.674
				c0-0.393-0.027-2.013-0.027-2.209c0-0.653-0.083-0.837-0.521-0.837h-0.604c-0.109,0-0.137-0.052-0.137-0.117v-0.275
				c0-0.052,0.027-0.13,0.137-0.13c0.247,0,0.686,0.039,2.029,0.039c1.234,0,1.727-0.039,1.974-0.039
				c0.109,0,0.137,0.052,0.137,0.117v0.274c0,0.079-0.028,0.131-0.137,0.131h-0.494c-0.494,0-0.549,0.208-0.562,0.719
				c-0.015,0.184-0.068,1.908-0.068,2.249v0.523c0,0.13,0.041,0.183,0.164,0.183h4.524c0.219,0,0.274-0.04,0.274-0.183v-0.392
				c0-0.471-0.055-2.3-0.068-2.444c-0.014-0.419-0.068-0.654-0.37-0.654h-0.63c-0.096,0-0.11-0.039-0.11-0.117v-0.301
				c0-0.066,0.014-0.104,0.11-0.104c0.246,0,0.849,0.039,1.946,0.039c1.042,0,1.59-0.039,1.809-0.039
				c0.138,0,0.166,0.052,0.166,0.117v0.274c0,0.079-0.028,0.131-0.166,0.131h-0.493c-0.412,0-0.438,0.208-0.438,0.667
				c0,0.184-0.027,1.96-0.027,2.379v1.412c0,0.574,0.027,2.431,0.027,3.175c0,0.471,0.137,0.654,0.548,0.654h0.549
				c0.082,0,0.109,0.04,0.109,0.091v0.302c0,0.078-0.028,0.13-0.137,0.13c-0.219,0-0.686-0.04-1.864-0.04
				c-1.289,0-1.728,0.04-2.111,0.04c-0.083,0-0.109-0.065-0.109-0.119v-0.299c0-0.066,0.013-0.105,0.109-0.105h0.741
				c0.329,0,0.342-0.235,0.356-0.588c0.027-0.628,0.055-2.719,0.055-2.954v-0.366c0-0.118-0.11-0.157-0.302-0.157H80.259z"/>
			<path fill="#FFFED9" d="M98.337,91.566c1.028,0.796,1.864,2.091,1.864,3.869c0,0.966-0.274,1.986-1.015,2.875
				c-0.876,1.045-2.056,1.856-4.112,1.856c-0.822,0-2.001-0.236-3.098-0.864c-0.973-0.561-2.001-1.986-2.001-3.868
				c0-0.785,0.233-2.026,1.261-3.242c1.206-1.412,2.687-1.673,3.865-1.673C96.117,90.52,97.212,90.703,98.337,91.566z
				 M93.073,91.826c-0.837,0.771-1.234,2.118-1.234,3.164c0,3.398,2.193,4.602,3.345,4.602c2.769,0,3.207-2.929,3.207-4.026
				c0-2.85-2.028-4.471-3.344-4.471C94.801,91.094,94.005,90.964,93.073,91.826z"/>
			<path fill="#FFFED9" d="M111.772,97.839c0.041,0.04,0.054,0.079,0.027,0.131c-0.822,1.124-2.138,2.196-4.084,2.196
				c-1.754,0-2.742-0.497-3.591-1.229c-1.014-0.863-1.48-2.378-1.48-3.529c0-1.28,0.438-2.508,1.398-3.502
				c0.74-0.758,1.919-1.386,3.564-1.386c1.261,0,2.275,0.366,2.769,0.627c0.192,0.105,0.246,0.105,0.274,0l0.109-0.34
				c0.028-0.078,0.055-0.078,0.22-0.078c0.164,0,0.191,0.026,0.191,0.209c0,0.235,0.274,2.327,0.329,2.719
				c0.014,0.079,0,0.117-0.055,0.131l-0.26,0.078c-0.068,0.027-0.109-0.025-0.15-0.13c-0.165-0.471-0.493-1.125-1.069-1.699
				c-0.603-0.549-1.316-0.968-2.385-0.968c-2.193,0-3.098,1.882-3.098,3.765c0,0.81,0.247,2.353,1.261,3.399
				c0.904,0.915,1.7,1.018,2.358,1.018c1.507,0,2.7-0.718,3.275-1.515c0.068-0.092,0.124-0.131,0.165-0.092L111.772,97.839z"/>
			<path fill="#FFFED9" d="M122.247,91.566c1.029,0.796,1.865,2.091,1.865,3.869c0,0.966-0.275,1.986-1.015,2.875
				c-0.877,1.045-2.056,1.856-4.112,1.856c-0.823,0-2.001-0.236-3.098-0.864c-0.973-0.561-2.001-1.986-2.001-3.868
				c0-0.785,0.232-2.026,1.261-3.242c1.207-1.412,2.687-1.673,3.865-1.673C120.027,90.52,121.124,90.703,122.247,91.566z
				 M116.984,91.826c-0.836,0.771-1.234,2.118-1.234,3.164c0,3.398,2.193,4.602,3.345,4.602c2.769,0,3.207-2.929,3.207-4.026
				c0-2.85-2.028-4.471-3.344-4.471C118.711,91.094,117.916,90.964,116.984,91.826z"/>
			<path fill="#FFFED9" d="M134.499,97.277c0.027,0.026,0.027,0.053,0.027,0.131c-0.054,0.078-0.603,2.248-0.685,2.601
				c-0.356-0.013-4.304-0.04-5.702-0.04c-1.234,0-1.727,0.04-1.892,0.04c-0.109,0-0.109-0.027-0.109-0.119v-0.299
				c0-0.079,0-0.105,0.082-0.105h0.549c0.493,0,0.575-0.183,0.575-0.353c0-0.235,0.056-3.503,0.056-4.287v-0.732
				c0-0.836-0.028-2.221-0.056-2.444c-0.028-0.34-0.082-0.471-0.439-0.471h-0.575c-0.082,0-0.11-0.078-0.11-0.117v-0.301
				c0-0.079,0.028-0.104,0.11-0.104c0.137,0,0.631,0.039,1.892,0.039c1.481,0,2.056-0.039,2.166-0.039
				c0.11,0,0.137,0.052,0.137,0.117v0.3c0,0.053-0.028,0.105-0.137,0.105h-0.74c-0.411,0-0.466,0.13-0.466,0.484
				c0,0.183-0.055,2.143-0.055,3.059v1.124c0,0.235,0,3.057,0.055,3.62h0.768c0.768,0,1.754,0,2.302-0.065
				c0.768-0.104,1.645-1.672,1.837-2.169c0.055-0.053,0.082-0.078,0.165-0.053L134.499,97.277z"/>
			<path fill="#FFFED9" d="M139.139,96.375c-0.11,0.3-0.782,2.17-0.85,2.522c-0.028,0.104-0.028,0.209-0.028,0.275
				c0,0.169,0.219,0.313,0.493,0.313h0.576c0.11,0,0.137,0.027,0.137,0.065v0.328c0,0.078-0.027,0.13-0.11,0.13
				c-0.192,0-0.767-0.04-1.727-0.04c-1.015,0-1.316,0.04-1.507,0.04c-0.083,0-0.083-0.079-0.083-0.17V99.59
				c0-0.079,0.027-0.105,0.083-0.105h0.411c0.384,0,0.63-0.183,0.876-0.588c0.138-0.235,1.125-2.588,1.535-3.686l1.343-3.425
				c0.028-0.131,0.11-0.366,0.028-0.444c-0.042-0.04-0.083-0.118-0.083-0.157c0-0.052,0.027-0.104,0.137-0.13
				c0.439-0.105,1.193-0.496,1.357-0.653c0.083-0.078,0.137-0.131,0.206-0.131c0.082,0,0.137,0.157,0.165,0.235
				c0.246,0.811,1.316,3.739,1.562,4.574c0.329,1.021,1.206,3.452,1.398,3.805c0.247,0.444,0.603,0.601,0.877,0.601h0.438
				c0.082,0,0.109,0.027,0.109,0.091v0.275c0,0.079-0.027,0.157-0.137,0.157c-0.247,0-0.521-0.04-2.028-0.04
				c-1.152,0-1.618,0.04-1.919,0.04c-0.11,0-0.138-0.079-0.138-0.157v-0.261c0-0.079,0.028-0.105,0.11-0.105h0.355
				c0.385,0,0.494-0.13,0.412-0.484c-0.11-0.469-0.659-2.143-0.822-2.626L139.139,96.375L139.139,96.375z M142.182,95.853
				c-0.137-0.379-1.069-3.359-1.151-3.621c-0.055-0.157-0.082-0.235-0.137-0.235c-0.083,0-0.138,0.053-0.179,0.17
				c-0.055,0.17-1.288,3.384-1.384,3.685L142.182,95.853L142.182,95.853z"/>
			<path fill="#FFFED9" d="M150.844,91.265h-0.384c-0.438,0-1.425,0-2.001,0.183c-0.438,0.183-0.959,1.046-1.219,1.491
				c-0.041,0.065-0.083,0.117-0.151,0.091l-0.274-0.091c-0.055-0.027-0.068-0.066-0.055-0.131l0.658-2.405
				c0.028-0.183,0.109-0.236,0.165-0.236c0.082,0,0.137,0.053,0.219,0.131c0.274,0.262,0.548,0.327,0.933,0.34
				c0.739,0.025,1.315,0.077,2.659,0.077h0.739c1.508,0,2.084-0.052,2.715-0.077c0.26-0.014,0.781-0.197,0.986-0.34
				c0.111-0.079,0.165-0.131,0.248-0.131s0.109,0.053,0.136,0.21c0.027,0.235,0.301,1.855,0.413,2.483
				c0.013,0.079-0.014,0.105-0.055,0.117L156.3,93.07c-0.054,0.013-0.082-0.026-0.122-0.105c-0.192-0.367-0.699-1.202-1.083-1.464
				c-0.384-0.208-1.618-0.235-2.112-0.235h-0.384v6.967c0,0.992,0.137,1.253,0.466,1.253h0.796c0.054,0,0.082,0.052,0.082,0.118
				v0.275c0,0.078-0.028,0.13-0.137,0.13c-0.137,0-0.576-0.04-2.057-0.04c-1.398,0-1.973,0.04-2.166,0.04
				c-0.082,0-0.11-0.027-0.11-0.119v-0.299c0-0.079,0.042-0.105,0.096-0.105h0.781c0.274,0,0.438-0.157,0.453-0.353
				c0.041-0.339,0.041-4.34,0.041-4.6V91.265z"/>
			<path fill="#FFFED9" d="M161.58,96.179c0.014,0.706,0.041,1.986,0.041,2.222c0,0.68,0.247,0.941,0.549,1.02
				c0.219,0.052,0.548,0.105,1.07,0.105c0.246,0,0.876-0.026,1.15-0.053c0.246-0.024,0.768-0.156,1.123-0.443
				c0.246-0.21,1.016-1.072,1.273-1.385c0.056-0.066,0.097-0.079,0.15-0.052l0.22,0.13c0.04,0.026,0.056,0.064,0.026,0.13
				l-0.656,1.961c-0.041,0.118-0.137,0.196-0.303,0.196c-0.067,0-0.369-0.013-1.221-0.027c-0.863,0-2.273-0.013-4.562-0.013
				c-0.507,0-0.877,0.013-1.166,0.013c-0.274,0.014-0.465,0.027-0.588,0.027c-0.083,0-0.111-0.027-0.111-0.104v-0.313
				c0-0.079,0.028-0.105,0.138-0.105h0.466c0.63,0,0.686-0.078,0.686-0.562v-4.39c0-1.072-0.028-2.693-0.055-2.877
				c-0.055-0.353-0.193-0.457-0.603-0.457h-0.521c-0.056,0-0.083-0.026-0.083-0.091v-0.34c0-0.066,0.013-0.092,0.083-0.092
				c0.301,0,0.793,0.052,1.917,0.039h0.385c0.603,0,3.757-0.025,4.359-0.025c0.217,0,0.479-0.013,0.547-0.013
				s0.096,0.026,0.109,0.078c0.055,0.169,0.576,1.947,0.631,2.079c0.026,0.078,0.014,0.117-0.041,0.143l-0.246,0.105
				c-0.041,0.012-0.082,0-0.125-0.065c-0.055-0.078-1.178-1.282-1.508-1.464c-0.287-0.156-0.658-0.327-1.042-0.34l-2.083-0.052
				l-0.027,3.777c0.412,0,1.399-0.025,1.563-0.064c0.302-0.053,0.465-0.157,0.63-0.471c0.082-0.169,0.221-0.496,0.221-0.731
				c0-0.079,0.055-0.106,0.108-0.106l0.356,0.027c0.055,0,0.096,0.026,0.082,0.105c-0.027,0.209-0.027,1.071-0.027,1.412
				c0,0.522,0.055,1.15,0.083,1.437c0,0.066-0.028,0.079-0.11,0.092l-0.302,0.052c-0.055,0.013-0.082-0.014-0.11-0.091
				c-0.053-0.208-0.148-0.496-0.219-0.654c-0.123-0.26-0.383-0.445-0.686-0.47c-0.494-0.052-1.151-0.078-1.59-0.078L161.58,96.179z"
				/>
			<path fill="#FFFED9" d="M182.4,97.839c0.039,0.04,0.056,0.079,0.026,0.131c-0.821,1.124-2.139,2.196-4.084,2.196
				c-1.755,0-2.741-0.497-3.592-1.229c-1.017-0.863-1.481-2.378-1.481-3.529c0-1.28,0.44-2.508,1.396-3.502
				c0.742-0.758,1.922-1.386,3.564-1.386c1.263,0,2.274,0.366,2.77,0.627c0.193,0.105,0.246,0.105,0.273,0l0.11-0.34
				c0.027-0.078,0.056-0.078,0.22-0.078s0.19,0.026,0.19,0.209c0,0.235,0.274,2.327,0.329,2.719c0.016,0.079,0,0.117-0.055,0.131
				l-0.262,0.078c-0.067,0.027-0.108-0.025-0.148-0.13c-0.166-0.471-0.494-1.125-1.069-1.699c-0.604-0.549-1.317-0.968-2.386-0.968
				c-2.195,0-3.098,1.882-3.098,3.765c0,0.81,0.246,2.353,1.262,3.399c0.902,0.915,1.699,1.018,2.357,1.018
				c1.506,0,2.698-0.718,3.273-1.515c0.068-0.092,0.124-0.131,0.166-0.092L182.4,97.839z"/>
			<path fill="#FFFED9" d="M187.454,95.421c-0.151,0-0.192,0.052-0.192,0.169v0.562c0,0.47,0.026,1.986,0.055,2.889
				c0.016,0.313,0.164,0.444,0.468,0.444h0.493c0.109,0,0.137,0.027,0.137,0.091v0.302c0,0.078-0.025,0.13-0.137,0.13
				c-0.248,0-0.713-0.04-1.836-0.04c-1.346,0-1.756,0.04-2.029,0.04c-0.109,0-0.137-0.053-0.137-0.119V99.59
				c0-0.079,0.026-0.105,0.137-0.105h0.712c0.329,0,0.383-0.313,0.383-0.614c0-0.627,0.028-2.118,0.028-2.953v-1.674
				c0-0.393-0.028-2.013-0.028-2.209c0-0.653-0.082-0.837-0.519-0.837h-0.604c-0.108,0-0.137-0.052-0.137-0.117v-0.275
				c0-0.052,0.028-0.13,0.137-0.13c0.247,0,0.687,0.039,2.03,0.039c1.234,0,1.727-0.039,1.975-0.039
				c0.107,0,0.135,0.052,0.135,0.117v0.274c0,0.079-0.026,0.131-0.135,0.131h-0.494c-0.494,0-0.549,0.208-0.562,0.719
				c-0.016,0.184-0.068,1.908-0.068,2.249v0.523c0,0.13,0.041,0.183,0.164,0.183h4.522c0.22,0,0.274-0.04,0.274-0.183v-0.392
				c0-0.471-0.056-2.3-0.068-2.444c-0.016-0.419-0.069-0.654-0.37-0.654h-0.63c-0.096,0-0.11-0.039-0.11-0.117v-0.301
				c0-0.066,0.015-0.104,0.11-0.104c0.246,0,0.85,0.039,1.947,0.039c1.041,0,1.588-0.039,1.809-0.039
				c0.136,0,0.163,0.052,0.163,0.117v0.274c0,0.079-0.027,0.131-0.163,0.131h-0.493c-0.412,0-0.438,0.208-0.438,0.667
				c0,0.184-0.027,1.96-0.027,2.379v1.412c0,0.574,0.027,2.431,0.027,3.175c0,0.471,0.136,0.654,0.547,0.654h0.549
				c0.083,0,0.111,0.04,0.111,0.091v0.302c0,0.078-0.028,0.13-0.14,0.13c-0.219,0-0.687-0.04-1.862-0.04
				c-1.287,0-1.729,0.04-2.111,0.04c-0.083,0-0.109-0.065-0.109-0.119v-0.299c0-0.066,0.014-0.105,0.109-0.105h0.74
				c0.328,0,0.342-0.235,0.355-0.588c0.027-0.628,0.057-2.719,0.057-2.954v-0.366c0-0.118-0.111-0.157-0.303-0.157H187.454z"/>
			<path fill="#FFFED9" d="M200.463,95.734c0,0.132,0.025,3.138,0.025,3.281c0,0.418,0.221,0.47,0.55,0.47h0.575
				c0.056,0,0.109,0.027,0.109,0.091v0.328c0,0.078-0.055,0.104-0.136,0.104c-0.166,0-0.715-0.04-2.002-0.04
				c-1.371,0-1.976,0.04-2.11,0.04c-0.08,0-0.111-0.027-0.111-0.091v-0.354c0-0.052,0.031-0.079,0.111-0.079h0.549
				c0.271,0,0.574-0.026,0.631-0.378c0.027-0.184,0.055-3.006,0.055-3.711V94.48c0-0.313-0.027-2.666-0.041-2.837
				c-0.041-0.313-0.178-0.444-0.564-0.444h-0.709c-0.082,0-0.11-0.026-0.11-0.091v-0.34c0-0.066,0.028-0.092,0.081-0.092
				c0.164,0,0.879,0.039,2.222,0.039c1.317,0,1.755-0.039,1.947-0.039c0.081,0,0.108,0.052,0.108,0.117v0.3
				c0,0.079-0.055,0.105-0.108,0.105h-0.521c-0.305,0-0.523,0.104-0.523,0.353c0,0.131-0.026,3.006-0.026,3.164L200.463,95.734
				L200.463,95.734z"/>
			<path fill="#FFFED9" d="M205.169,93.879c0-0.862,0-2.248-0.013-2.392c-0.028-0.222-0.18-0.288-0.481-0.288h-0.71
				c-0.058,0-0.084-0.026-0.084-0.091v-0.327c0-0.079,0.026-0.104,0.084-0.104c0.162,0,0.657,0.039,2.026,0.039
				c0.245,0,1.042-0.039,1.509-0.039c1.645,0,2.439,0.145,3.234,0.667c0.629,0.444,1.041,1.177,1.041,1.986
				c0,1.622-1.315,2.64-3.646,2.64c-0.466,0-0.876,0-1.232-0.051v0.574c0,0.627,0,2.405,0.014,2.575
				c0.041,0.287,0.178,0.417,0.424,0.417h0.768c0.11,0,0.11,0.052,0.11,0.091v0.302c0,0.078,0,0.13-0.11,0.13
				c-0.189,0-0.629-0.04-2.109-0.04c-1.206,0-1.754,0.04-1.893,0.04c-0.108,0-0.108-0.053-0.108-0.091V99.59
				c0-0.079,0-0.105,0.082-0.105h0.438c0.467,0,0.576-0.052,0.616-0.405c0.015-0.13,0.041-2.169,0.041-3.685V93.879z
				 M206.896,95.448c0.246,0.078,0.631,0.104,0.985,0.104c0.603,0,1.315-0.444,1.646-0.888c0.272-0.394,0.326-0.89,0.326-1.359
				c0-1.778-1.506-2.183-2.164-2.183c-0.246,0-0.576-0.013-0.795,0.091v4.235H206.896z"/>
		</g>
		<g>
			<path fill="#FFFED9" d="M83.649,108.381c0-0.238,0.079-0.317,0.316-0.317c0.315,0,2.133,0.119,4.662,0.119
				c3.319,0,4.346-0.119,4.662-0.119c0.237,0,0.316,0.079,0.316,0.277v0.988c0,0.198-0.079,0.316-0.316,0.316H92.34
				c-0.948,0-1.975,0.395-2.884,1.817c-1.304,2.095-3.674,8.259-4.78,10.864c-0.79,1.738-5.532,13.275-5.927,14.105
				c-0.158,0.315-0.474,0.514-0.79,0.514c-0.474,0-0.672-0.436-0.87-0.908c-1.343-3.357-4.662-12.406-6.005-16.081
				c-1.027-2.845-2.767-7.901-3.2-9.047c-0.356-0.87-0.83-1.265-1.699-1.265h-0.948c-0.158,0-0.237-0.119-0.237-0.356v-0.908
				c0-0.238,0.079-0.317,0.237-0.317c0.395,0,1.738,0.119,5.848,0.119c3.713,0,5.531-0.119,5.847-0.119
				c0.317,0,0.396,0.119,0.396,0.317v0.87c0,0.276-0.079,0.395-0.316,0.395h-1.896c-1.027,0-1.66,0.395-1.66,0.988
				c0,0.315,0,0.789,0.119,1.344c0.276,1.422,1.778,6.084,2.568,8.375c0.553,1.502,2.687,7.744,3.319,9.879h0.079v-0.08
				c0.948-2.213,3.477-8.771,3.872-9.957c0.632-1.855,3.082-7.822,3.082-9.441c0-0.475-0.396-1.106-1.501-1.106h-1.067
				c-0.158,0-0.276-0.158-0.276-0.356v-0.909H83.649z"/>
			<path fill="#FFFED9" d="M95.671,125.292c-0.316,0.907-2.252,6.558-2.45,7.625c-0.079,0.315-0.079,0.631-0.079,0.83
				c0,0.514,0.632,0.946,1.422,0.946h1.659c0.316,0,0.396,0.08,0.396,0.199v0.987c0,0.236-0.079,0.396-0.317,0.396
				c-0.553,0-2.212-0.119-4.978-0.119c-2.924,0-3.793,0.119-4.346,0.119c-0.237,0-0.237-0.237-0.237-0.516v-0.75
				c0-0.236,0.079-0.316,0.237-0.316h1.185c1.106,0,1.817-0.553,2.529-1.776c0.395-0.712,3.24-7.823,4.425-11.144l3.872-10.352
				c0.079-0.396,0.316-1.106,0.079-1.343c-0.119-0.119-0.237-0.356-0.237-0.474c0-0.159,0.079-0.316,0.396-0.396
				c1.264-0.316,3.438-1.5,3.911-1.975c0.238-0.237,0.396-0.396,0.593-0.396c0.237,0,0.396,0.474,0.475,0.712
				c0.711,2.45,3.793,11.3,4.503,13.828c0.949,3.082,3.478,10.431,4.03,11.497c0.711,1.344,1.739,1.816,2.529,1.816h1.264
				c0.237,0,0.317,0.08,0.317,0.276v0.829c0,0.238-0.08,0.477-0.396,0.477c-0.711,0-1.502-0.119-5.848-0.119
				c-3.319,0-4.662,0.119-5.531,0.119c-0.316,0-0.395-0.237-0.395-0.477v-0.789c0-0.236,0.079-0.316,0.316-0.316h1.027
				c1.106,0,1.422-0.396,1.186-1.461c-0.316-1.422-1.896-6.479-2.371-7.94h-9.166V125.292z M104.442,123.71
				c-0.395-1.146-3.082-10.153-3.319-10.942c-0.158-0.475-0.237-0.711-0.395-0.711c-0.237,0-0.395,0.156-0.514,0.512
				c-0.158,0.516-3.714,10.233-3.991,11.143L104.442,123.71L104.442,123.71z"/>
			<path fill="#FFFED9" d="M121.185,118.298c0,6.718,0.316,12.248,0.395,13.474c0.079,1.977,0.553,2.924,1.976,2.924h1.027
				c0.317,0,0.317,0.158,0.317,0.355v0.908c0,0.236,0,0.316-0.317,0.316c-0.395,0-2.766-0.119-4.267-0.119
				c-1.027,0-3.714,0.119-4.109,0.119c-0.158,0-0.237-0.08-0.237-0.355v-0.988c0-0.078,0.079-0.236,0.237-0.236h1.344
				c1.027,0,1.58-0.869,1.777-3.279c0.04-0.712,0.277-6.242,0.277-12.562v-5.02c0-2.37-1.343-4.188-3.082-4.188h-1.264
				c-0.158-0.04-0.237-0.119-0.237-0.277v-1.067c0-0.158,0.079-0.237,0.237-0.237c0.197,0,0.514,0.04,1.225,0.079
				c0.711,0.04,1.778,0.04,3.516,0.04c0.672,0,1.265-0.04,1.739-0.079c0.514,0,0.87-0.04,1.106-0.04
				c0.475,0,0.712,0.119,0.949,0.356c0.395,0.395,8.139,10.114,8.929,11.222c0.553,0.633,6.717,8.297,7.349,9.086h0.158v-4.107
				c0-3.479,0-5.453-0.079-7.43c-0.079-1.5-0.237-5.373-0.434-6.045c-0.277-0.948-1.146-1.5-2.095-1.5h-1.264
				c-0.237,0-0.237-0.158-0.237-0.356v-0.908c0-0.238,0-0.317,0.316-0.317c0.474,0,1.738,0.119,4.425,0.119
				c2.371,0,3.319-0.119,3.793-0.119c0.316,0,0.395,0.159,0.395,0.277v0.91c0,0.237-0.079,0.395-0.237,0.395h-1.106
				c-0.79,0-1.185,0.632-1.304,2.094c-0.197,2.687-0.593,9.323-0.593,13.354v10.43c0,0.554,0,1.106-0.474,1.106
				c-0.553,0-1.027-0.315-1.343-0.633c-0.316-0.396-2.45-2.845-4.899-5.769c-2.766-3.397-5.848-7.111-6.321-7.744
				c-0.554-0.553-6.875-8.454-7.349-9.008h-0.238L121.185,118.298L121.185,118.298z"/>
			<path fill="#FFFED9" d="M157.166,123.354c0,0.396,0.08,9.483,0.08,9.918c0,1.266,0.632,1.422,1.581,1.422h1.659
				c0.159,0,0.316,0.08,0.316,0.277v0.987c0,0.237-0.157,0.315-0.395,0.315c-0.475,0-2.054-0.119-5.769-0.119
				c-3.951,0-5.689,0.119-6.084,0.119c-0.238,0-0.316-0.078-0.316-0.276v-1.067c0-0.156,0.079-0.236,0.316-0.236h1.581
				c0.79,0,1.659-0.078,1.817-1.146c0.079-0.552,0.158-9.086,0.158-11.221v-2.765c0-0.948-0.079-8.062-0.118-8.574
				c-0.118-0.948-0.514-1.343-1.621-1.343h-2.055c-0.236,0-0.315-0.08-0.315-0.277v-1.027c0-0.198,0.079-0.277,0.236-0.277
				c0.475,0,2.529,0.119,6.4,0.119c3.793,0,5.057-0.119,5.611-0.119c0.236,0,0.314,0.159,0.314,0.356v0.909
				c0,0.237-0.158,0.316-0.314,0.316h-1.502c-0.869,0-1.501,0.315-1.501,1.066c0,0.396-0.08,9.087-0.08,9.562L157.166,123.354
				L157.166,123.354z"/>
			<path fill="#FFFED9" d="M187.52,128.018c0.08,0.078,0.08,0.158,0.08,0.396c-0.156,0.237-1.738,6.797-1.976,7.862
				c-1.026-0.039-12.406-0.118-16.437-0.118c-3.557,0-4.979,0.118-5.453,0.118c-0.315,0-0.315-0.078-0.315-0.354v-0.909
				c0-0.236,0-0.315,0.238-0.315h1.579c1.423,0,1.66-0.554,1.66-1.066c0-0.711,0.158-10.588,0.158-12.959v-2.213
				c0-2.528-0.08-6.717-0.158-7.39c-0.08-1.026-0.237-1.421-1.266-1.421h-1.658c-0.238,0-0.315-0.238-0.315-0.356v-0.908
				c0-0.238,0.077-0.317,0.315-0.317c0.396,0,1.816,0.119,5.452,0.119c4.267,0,5.927-0.119,6.242-0.119s0.394,0.159,0.394,0.356
				v0.909c0,0.159-0.076,0.316-0.394,0.316h-2.135c-1.185,0-1.343,0.395-1.343,1.462c0,0.553-0.158,6.479-0.158,9.244v3.397
				c0,0.712,0,9.246,0.158,10.944h2.213c2.213,0,5.058,0,6.638-0.196c2.211-0.315,4.741-5.06,5.294-6.56
				c0.159-0.158,0.238-0.237,0.475-0.158L187.52,128.018z"/>
			<path fill="#FFFED9" d="M212.807,128.018c0.078,0.078,0.078,0.158,0.078,0.396c-0.158,0.237-1.736,6.797-1.975,7.862
				c-1.028-0.039-12.406-0.118-16.438-0.118c-3.556,0-4.978,0.118-5.451,0.118c-0.316,0-0.316-0.078-0.316-0.354v-0.909
				c0-0.236,0-0.315,0.238-0.315h1.578c1.424,0,1.66-0.554,1.66-1.066c0-0.711,0.157-10.588,0.157-12.959v-2.213
				c0-2.528-0.079-6.717-0.157-7.39c-0.078-1.026-0.236-1.421-1.265-1.421h-1.66c-0.235,0-0.313-0.238-0.313-0.356v-0.908
				c0-0.238,0.078-0.317,0.313-0.317c0.396,0,1.817,0.119,5.453,0.119c4.267,0,5.927-0.119,6.242-0.119
				c0.317,0,0.396,0.159,0.396,0.356v0.909c0,0.159-0.078,0.316-0.396,0.316h-2.134c-1.187,0-1.344,0.395-1.344,1.462
				c0,0.553-0.158,6.479-0.158,9.244v3.397c0,0.712,0,9.246,0.158,10.944h2.213c2.213,0,5.058,0,6.639-0.196
				c2.212-0.315,4.742-5.06,5.294-6.56c0.159-0.158,0.237-0.237,0.476-0.158L212.807,128.018z"/>
			<path fill="#FFFED9" d="M221.577,125.292c-0.315,0.907-2.251,6.558-2.448,7.625c-0.079,0.315-0.079,0.631-0.079,0.83
				c0,0.514,0.632,0.946,1.423,0.946h1.658c0.314,0,0.395,0.08,0.395,0.199v0.987c0,0.236-0.078,0.396-0.313,0.396
				c-0.554,0-2.213-0.119-4.979-0.119c-2.922,0-3.793,0.119-4.346,0.119c-0.236,0-0.236-0.237-0.236-0.516v-0.75
				c0-0.236,0.078-0.316,0.236-0.316h1.186c1.107,0,1.816-0.553,2.529-1.776c0.396-0.712,3.238-7.823,4.426-11.144l3.869-10.352
				c0.08-0.396,0.316-1.106,0.08-1.343c-0.117-0.119-0.236-0.356-0.236-0.474c0-0.159,0.078-0.316,0.396-0.396
				c1.264-0.316,3.437-1.5,3.91-1.975c0.237-0.237,0.395-0.396,0.594-0.396c0.235,0,0.395,0.474,0.473,0.712
				c0.713,2.45,3.794,11.3,4.506,13.828c0.947,3.082,3.477,10.431,4.029,11.497c0.711,1.344,1.738,1.816,2.529,1.816h1.264
				c0.238,0,0.316,0.08,0.316,0.276v0.829c0,0.238-0.078,0.477-0.396,0.477c-0.709,0-1.5-0.119-5.846-0.119
				c-3.318,0-4.662,0.119-5.531,0.119c-0.316,0-0.396-0.237-0.396-0.477v-0.789c0-0.236,0.079-0.316,0.316-0.316h1.027
				c1.104,0,1.422-0.396,1.185-1.461c-0.315-1.422-1.896-6.479-2.37-7.94h-9.169V125.292z M230.35,123.71
				c-0.396-1.146-3.082-10.153-3.318-10.942c-0.159-0.475-0.237-0.711-0.395-0.711c-0.238,0-0.396,0.156-0.516,0.512
				c-0.159,0.516-3.714,10.233-3.99,11.143L230.35,123.71L230.35,123.71z"/>
		</g>
		<g>
			<path fill="#FFFED9" d="M213.734,114.518c-0.125-6.891,4.113-10.815,6.449-11.891c-1.529-1.985-2.203-4.212-2.248-6.796
				c-0.078-4.249,3.123-8.328,8.465-8.425c3.158-0.058,5.603,1.623,5.65,4.437c0.045,2.469-1.939,3.825-2.63,3.838
				c-0.231,0.004-0.294-0.397-0.192-1.03c0.416-2.42-1.562-3.879-3.516-3.843c-3.1,0.055-5.464,2.798-5.395,6.704
				c0.031,1.608,0.578,3.264,1.521,4.51c0.513-0.182,1.144-0.308,2.003-0.323c1.035-0.019,2.938,0.463,2.955,1.325
				c0.025,1.379-0.699,2.712-1.617,2.729c-0.918,0.016-2.77-0.697-3.236-1.09c-0.758-0.619-0.989-0.73-1.728-0.257
				c-1.931,1.299-3.253,4.309-3.19,7.812c0.127,7.063,6.433,12.637,17.056,12.444c10.508-0.19,15.956-7.125,15.856-12.58
				c-0.082-4.536-3.664-8.895-8.719-8.804c-4.535,0.083-5.322,4.232-5.302,5.381c0.048,2.643,1.396,4.109,1.912,4.101
				c0.287-0.006,0.509-0.353,0.501-0.87c-0.014-0.688,0.646-2.31,2.428-2.342c1.665-0.029,2.721,1.159,2.754,2.881
				c0.016,0.977-0.869,2.83-3.453,2.877c-2.24,0.039-6.129-2.13-6.217-6.954c-0.068-3.848,2.611-8.204,8.641-8.313
				c2.184-0.039,5.117,0.31,6.152,0.291c6.202-0.111,9.153-2.003,9.096-5.219c-0.037-2.067-1.795-3.989-3.344-3.961
				c-0.75,0.014-0.734,0.76-0.611,1.274c0.129,0.745-0.414,2.421-2.311,2.455c-1.895,0.034-2.494-1.276-2.507-2.022
				c-0.044-2.412,2.177-3.601,4.301-3.64c3.903-0.07,6.656,2.867,6.712,5.911c0.098,5.34-3.416,8.046-9.201,8.897
				c-1.318,0.196-1.428,0.6-0.776,1.565c0.769,1.135,2.13,3.408,2.202,7.429c0.177,9.763-8.332,15.774-18.209,15.953
				C217.965,129.262,213.84,120.376,213.734,114.518z"/>
		</g>
	</g>
</g>
</svg>
